<?xml version="1.0" standalone="no"?>
<!DOCTYPE svg PUBLIC "-//W3C//DTD SVG 1.1//EN" "http://www.w3.org/Graphics/SVG/1.1/DTD/svg11.dtd" >
<svg xmlns="http://www.w3.org/2000/svg" xmlns:xlink="http://www.w3.org/1999/xlink" version="1.1">
<metadata>
Created by FontForge 20201107 at Sun May 19 12:59:50 2013
 By Jimmy Wärting
Relative Italic is a trademark of The Entente (AS&#38;EH).
</metadata>
<defs>
<font id="RelativeLG-MediumItalic" horiz-adv-x="620" >
  <font-face 
    font-family="RelativeLG Med"
    font-weight="500"
    font-style="italic"
    font-stretch="normal"
    units-per-em="1000"
    panose-1="0 0 0 0 0 0 0 0 0 0"
    ascent="800"
    descent="-200"
    x-height="502"
    cap-height="700"
    bbox="-150 -258 1186 998"
    underline-thickness="50"
    underline-position="-100"
    stemh="94"
    stemv="106"
    unicode-range="U+0020-FB02"
  />
<missing-glyph horiz-adv-x="650" 
d="M632 690l-133 -680c-1 -7 -5 -10 -12 -10h-461c-7 0 -8 4 -8 10l133 680c1 7 5 10 12 10h461c7 0 8 -4 8 -10zM506 600h-265l-97 -500h265z" />
    <glyph glyph-name=".notdef" horiz-adv-x="650" 
d="M632 690l-133 -680c-1 -7 -5 -10 -12 -10h-461c-7 0 -8 4 -8 10l133 680c1 7 5 10 12 10h461c7 0 8 -4 8 -10zM506 600h-265l-97 -500h265z" />
    <glyph glyph-name="space" unicode=" " horiz-adv-x="232" 
 />
    <glyph glyph-name="exclam" unicode="!" horiz-adv-x="351" 
d="M209 700h84c7 0 8 -4 8 -10l-95 -487c-1 -7 -5 -10 -12 -10h-84c-7 0 -8 4 -8 10l95 487c1 7 5 10 12 10zM88 120h100c7 0 8 -4 8 -10l-20 -100c-1 -7 -5 -10 -12 -10h-100c-7 0 -8 4 -8 10l20 100c1 7 5 10 12 10z" />
    <glyph glyph-name="quotedbl" unicode="&#x22;" horiz-adv-x="382" 
d="M62 474l41 216c1 7 5 10 12 10h80c7 0 8 -4 8 -10l-41 -216c-1 -7 -5 -10 -12 -10h-80c-7 0 -8 4 -8 10zM252 474l41 216c1 7 6 10 13 10h79c7 0 8 -4 8 -10l-41 -216c-1 -7 -5 -10 -12 -10h-80c-7 0 -8 4 -8 10z" />
    <glyph glyph-name="numbersign" unicode="#" horiz-adv-x="749" 
d="M322 10l69 188h-139l-69 -188c-3 -7 -6 -10 -13 -10h-88c-7 0 -10 3 -7 10l69 188h-110c-7 0 -8 4 -8 10l15 80c2 7 5 10 12 10h128l38 104h-105c-7 0 -8 4 -8 10l15 80c1 7 5 10 12 10h123l69 188c3 7 6 10 13 10h88c7 0 9 -4 7 -10l-69 -188h139l69 188c3 7 6 10 13 10
h88c7 0 10 -3 7 -10l-69 -188h110c7 0 8 -4 8 -10l-15 -80c-1 -7 -5 -10 -12 -10h-128l-38 -104h105c7 0 10 -3 8 -10l-15 -80c-1 -7 -5 -10 -12 -10h-123l-69 -188c-3 -7 -6 -10 -13 -10h-88c-7 0 -10 3 -7 10zM327 402l-38 -104h139l38 104h-139z" />
    <glyph glyph-name="dollar" unicode="$" horiz-adv-x="589" 
d="M76 502c0 129 113 200 243 207l16 81c1 7 5 10 12 10h78c7 0 8 -4 8 -10l-18 -88c105 -28 150 -95 150 -193c-1 -7 -5 -10 -12 -10h-86c-7 0 -8 3 -8 10c0 41 -23 73 -64 89l-39 -203c93 -30 177 -74 177 -169c0 -148 -109 -226 -256 -235l-15 -81c-1 -7 -5 -10 -12 -10
h-78c-7 0 -8 4 -8 10l17 87c-108 22 -173 98 -173 194c0 9 1 18 2 27c1 7 5 10 12 10h86c7 0 8 -3 8 -10c0 -62 22 -106 84 -122l44 227c-109 34 -168 83 -168 179zM425 207c0 39 -32 66 -89 87l-39 -202c69 10 128 45 128 115zM182 513c0 -44 33 -69 82 -88l36 183
c-57 -6 -118 -35 -118 -95z" />
    <glyph glyph-name="percent" unicode="%" horiz-adv-x="853" 
d="M424 552c0 -122 -90 -210 -205 -210c-92 0 -155 64 -155 148c0 122 90 210 205 210c92 0 155 -64 155 -148zM226 419c70 0 116 56 116 125c0 47 -38 79 -80 79c-70 0 -116 -56 -116 -125c0 -47 38 -79 80 -79zM784 210c0 -122 -90 -210 -205 -210c-92 0 -155 64 -155 148
c0 122 90 210 205 210c92 0 155 -64 155 -148zM586 77c70 0 116 56 116 125c0 47 -38 79 -80 79c-70 0 -116 -56 -116 -125c0 -47 38 -79 80 -79zM67 50l673 647c2 2 4 3 7 3s5 -1 7 -3l30 -33c3 -3 4 -5 4 -7s0 -3 -4 -7l-673 -647c-2 -2 -4 -3 -7 -3s-5 1 -7 3l-30 33
c-3 3 -4 5 -4 7s0 3 4 7z" />
    <glyph glyph-name="ampersand" unicode="&#x26;" horiz-adv-x="672" 
d="M538 271c-15 -61 -33 -108 -59 -147l57 -108c1 -3 2 -5 2 -9s-3 -7 -8 -7h-94c-5 0 -8 3 -11 9l-21 41c-54 -40 -115 -60 -179 -60c-118 0 -199 60 -199 180c0 115 72 189 183 243c-14 30 -27 66 -27 109c0 102 73 188 194 188c103 0 160 -62 160 -136
c0 -81 -44 -130 -134 -172l-58 -27l82 -152c16 36 29 80 38 133c1 7 6 9 11 9h162c7 0 8 -4 8 -10l-14 -74c-1 -7 -5 -10 -12 -10h-81zM237 84c47 0 89 16 124 46l-109 202c-71 -36 -120 -83 -120 -151c0 -60 44 -97 105 -97zM281 525c0 -20 8 -45 24 -75l55 25
c47 21 74 41 74 86c0 35 -25 55 -68 55c-47 0 -85 -37 -85 -91z" />
    <glyph glyph-name="quoteright" unicode="&#x2019;" horiz-adv-x="245" 
d="M100 526c42 0 61 17 66 50l2 12h-47c-7 0 -9 4 -9 10l18 92c1 7 5 10 12 10h98c7 0 8 -4 8 -10l-23 -121c-12 -62 -45 -93 -107 -93h-27c-7 0 -8 4 -8 10l6 30c1 7 4 10 11 10z" />
    <glyph glyph-name="parenleft" unicode="(" horiz-adv-x="387" 
d="M185 307l-21 -111c-11 -59 -18 -103 -18 -140c0 -74 28 -120 91 -184c2 -2 3 -4 3 -6c0 -3 -2 -5 -5 -8l-58 -59c-4 -4 -6 -4 -8 -4s-5 1 -7 3c-86 80 -122 163 -122 263c0 33 4 68 11 105l33 171c39 203 95 260 254 368c3 2 5 3 7 3s4 -1 6 -4l47 -66c2 -3 2 -4 2 -6
c0 -3 -2 -5 -6 -8c-140 -100 -174 -134 -209 -317z" />
    <glyph glyph-name="parenright" unicode=")" horiz-adv-x="387" 
d="M170 196l21 111c11 59 18 103 18 140c0 74 -28 120 -91 184c-2 2 -3 4 -3 6c0 3 2 5 5 8l58 59c4 4 6 4 8 4s5 -1 7 -3c86 -80 122 -163 122 -263c0 -33 -4 -68 -11 -105l-33 -171c-39 -203 -95 -260 -254 -368c-3 -2 -5 -3 -7 -3s-4 1 -6 4l-47 66c-2 3 -2 4 -2 6
c0 3 2 5 6 8c140 100 174 134 209 317z" />
    <glyph glyph-name="asterisk" unicode="*" horiz-adv-x="449" 
d="M82 543l25 65c2 5 5 8 9 8c1 0 2 0 5 -1l94 -33l22 108c1 7 5 10 12 10h72c7 0 8 -4 8 -10l-20 -112l103 32c3 1 4 1 5 1c4 0 5 -2 7 -8l20 -62s1 -3 1 -4c0 -5 -3 -7 -9 -9l-116 -38l50 -89c1 -2 1 -4 1 -5c0 -3 -2 -6 -7 -9l-62 -35c-2 -1 -4 -2 -7 -2c-2 0 -4 1 -6 4
l-52 87l-76 -90c-3 -3 -5 -5 -8 -5c-2 0 -5 1 -7 3l-57 47c-3 3 -4 4 -4 6s1 5 4 8l82 88l-85 32c-5 2 -6 3 -6 6c0 2 1 4 2 7z" />
    <glyph glyph-name="plus" unicode="+" horiz-adv-x="587" 
d="M387 559l-33 -168h166c7 0 8 -4 8 -10l-15 -78c-1 -7 -5 -10 -12 -10h-166l-33 -168c-1 -7 -5 -10 -12 -10h-82c-7 0 -8 4 -8 10l33 168h-166c-7 0 -8 4 -8 10l15 78c1 7 5 10 12 10h166l33 168c1 7 5 10 12 10h82c7 0 8 -4 8 -10z" />
    <glyph glyph-name="comma" unicode="," horiz-adv-x="273" 
d="M17 -54c35 0 49 10 54 42l2 12h-47c-7 0 -8 4 -8 10l18 92c1 7 4 10 11 10h92c7 0 9 -4 9 -10l-24 -121c-11 -56 -39 -85 -92 -85h-24c-7 0 -9 3 -9 10l6 30c1 7 5 10 12 10z" />
    <glyph glyph-name="hyphen" unicode="-" horiz-adv-x="525" 
d="M84 391h376c7 0 8 -4 8 -10l-15 -78c-1 -7 -5 -10 -12 -10h-376c-7 0 -8 4 -8 10l15 78c1 7 5 10 12 10z" />
    <glyph glyph-name="period" unicode="." horiz-adv-x="273" 
d="M47 112h92c7 0 8 -4 8 -10l-17 -92c-1 -7 -5 -10 -12 -10h-92c-7 0 -8 4 -8 10l17 92c1 7 5 10 12 10z" />
    <glyph glyph-name="slash" unicode="/" horiz-adv-x="504" 
d="M-66 10l479 680c5 7 9 10 16 10h93c7 0 9 -3 4 -10l-480 -680c-5 -7 -8 -10 -15 -10h-92c-7 0 -10 3 -5 10z" />
    <glyph glyph-name="zero" unicode="0" horiz-adv-x="629" 
d="M33 269c0 189 109 441 342 441c130 0 221 -87 221 -279c0 -189 -109 -441 -342 -441c-130 0 -221 87 -221 279zM362 612c-152 0 -221 -183 -221 -343c0 -137 50 -181 126 -181c152 0 221 183 221 343c0 137 -50 181 -126 181z" />
    <glyph glyph-name="one" unicode="1" horiz-adv-x="390" 
d="M100 10l108 553l-139 -67c-4 -2 -7 -3 -12 -3c-4 0 -5 4 -5 9l17 89c2 7 8 12 14 15l180 89c6 3 11 5 17 5h50c7 0 9 -4 9 -10l-133 -680c-1 -7 -5 -10 -12 -10h-86c-7 0 -8 4 -8 10z" />
    <glyph glyph-name="two" unicode="2" horiz-adv-x="604" 
d="M4 10l11 62c2 10 8 17 16 23l320 259c60 48 97 96 97 166c0 53 -34 92 -105 92c-75 0 -129 -55 -145 -121c-3 -12 -7 -15 -16 -15h-71c-8 0 -13 5 -13 15c25 130 116 219 256 219c133 0 202 -79 202 -178c0 -103 -53 -174 -144 -248l-230 -186h301c7 0 9 -4 9 -10
l-16 -78c-1 -7 -5 -10 -12 -10h-453c-6 0 -7 4 -7 10z" />
    <glyph glyph-name="three" unicode="3" horiz-adv-x="597" 
d="M218 335l14 76c2 9 6 11 13 11h57c80 0 136 38 136 109c0 49 -37 81 -98 81s-120 -35 -140 -98c-3 -11 -7 -12 -15 -12h-72c-10 0 -13 7 -13 17c22 112 122 191 251 191c115 0 189 -68 189 -155c0 -80 -28 -133 -102 -179c34 -22 74 -65 74 -147
c0 -148 -103 -239 -268 -239c-135 0 -219 80 -219 201c0 7 0 14 1 21c1 12 9 17 16 17h75c8 0 11 -2 11 -13c0 -5 -1 -14 -1 -19c0 -72 50 -109 121 -109c97 0 158 53 158 141c0 60 -39 95 -120 95h-59c-7 0 -9 6 -9 11z" />
    <glyph glyph-name="four" unicode="4" horiz-adv-x="588" 
d="M276 10l24 120h-297c-6 0 -7 4 -7 10l10 57c2 10 6 16 12 23l406 472c4 5 9 8 15 8h68c7 0 8 -4 8 -10l-90 -462h94c7 0 9 -4 9 -10l-15 -78c-1 -7 -5 -10 -12 -10h-95l-24 -120c-1 -7 -5 -10 -13 -10h-85c-7 0 -8 4 -8 10zM369 487l-221 -259h171z" />
    <glyph glyph-name="five" unicode="5" horiz-adv-x="618" 
d="M67 314l117 376c2 7 5 10 12 10h382c7 0 8 -4 8 -10l-16 -78c-1 -7 -5 -10 -12 -10h-297l-60 -180c43 25 94 42 147 42c118 0 191 -75 191 -196c0 -170 -115 -278 -283 -278c-133 0 -213 83 -213 202v9c0 11 7 15 14 15h77c8 0 11 -3 11 -15c0 -72 47 -113 127 -113
c99 0 159 70 159 164c0 70 -44 114 -121 114c-49 0 -98 -19 -141 -53c-6 -5 -14 -9 -22 -9h-71c-7 0 -9 5 -9 10z" />
    <glyph glyph-name="six" unicode="6" 
d="M51 242c0 210 109 468 335 468c126 0 197 -79 197 -180c0 -9 -6 -10 -12 -10h-80c-7 0 -9 4 -10 10c-10 58 -45 86 -110 86c-70 0 -152 -61 -187 -220c51 39 111 56 170 56c114 0 190 -77 190 -194c0 -163 -116 -268 -275 -268c-119 0 -218 75 -218 252zM316 354
c-91 0 -157 -65 -157 -147c0 -74 48 -119 122 -119c88 0 157 69 157 154c0 68 -43 112 -122 112z" />
    <glyph glyph-name="seven" unicode="7" horiz-adv-x="504" 
d="M67 612l16 78c1 7 5 10 12 10h437c7 0 8 -4 8 -10l-12 -58c-2 -9 -5 -16 -10 -25l-346 -600c-3 -5 -8 -7 -13 -7h-88c-5 0 -8 2 -8 6s2 7 3 9l337 587h-328c-7 0 -8 4 -8 10z" />
    <glyph glyph-name="eight" unicode="8" horiz-adv-x="602" 
d="M115 502c0 116 99 208 246 208c114 0 192 -66 192 -171c0 -66 -36 -130 -113 -167c32 -21 73 -70 73 -146c0 -145 -117 -236 -269 -236c-125 0 -213 70 -213 184c0 96 57 163 142 200c-29 25 -58 62 -58 128zM285 320c-75 0 -148 -49 -148 -131c0 -67 45 -101 113 -101
c76 0 157 46 157 134c0 56 -38 98 -122 98zM346 614c-66 0 -132 -40 -132 -110c0 -55 37 -88 102 -88c68 0 135 41 135 112c0 49 -40 86 -105 86z" />
    <glyph glyph-name="nine" unicode="9" 
d="M574 458c0 -210 -109 -468 -335 -468c-126 0 -197 79 -197 180c0 9 6 10 12 10h80c7 0 9 -4 10 -10c10 -58 45 -86 110 -86c70 0 152 61 187 220c-51 -39 -111 -56 -170 -56c-114 0 -190 77 -190 194c0 163 116 268 275 268c119 0 218 -75 218 -252zM309 346
c91 0 157 65 157 147c0 74 -48 119 -122 119c-88 0 -157 -69 -157 -154c0 -68 43 -112 122 -112z" />
    <glyph glyph-name="colon" unicode=":" horiz-adv-x="273" 
d="M47 112h92c7 0 9 -4 9 -10l-18 -92c-1 -7 -5 -10 -12 -10h-92c-7 0 -8 4 -8 10l18 92c1 7 4 10 11 10zM123 502h92c7 0 8 -4 8 -10l-18 -92c-1 -7 -4 -10 -11 -10h-92c-7 0 -9 4 -9 10l18 92c1 7 5 10 12 10z" />
    <glyph glyph-name="semicolon" unicode=";" horiz-adv-x="273" 
d="M17 -54c35 0 49 10 54 42l2 12h-47c-7 0 -8 4 -8 10l18 92c1 7 4 10 11 10h92c7 0 9 -4 9 -10l-24 -121c-11 -56 -39 -85 -92 -85h-24c-7 0 -9 4 -9 10l6 30c1 7 5 10 12 10zM123 502h92c7 0 8 -4 8 -10l-18 -92c-1 -7 -4 -10 -11 -10h-92c-7 0 -9 4 -9 10l18 92
c1 7 5 10 12 10z" />
    <glyph glyph-name="less" unicode="&#x3c;" horiz-adv-x="514" 
d="M419 132l-16 -82c-1 -5 -3 -7 -6 -7c-1 0 -3 0 -5 1l-334 201c-6 4 -8 6 -8 13l17 82c1 7 4 9 12 13l412 197c2 1 3 1 4 1c4 0 5 -3 5 -7l-19 -95c-1 -7 -5 -10 -13 -14l-307 -142l251 -147c6 -3 7 -7 7 -14z" />
    <glyph glyph-name="equal" unicode="=" horiz-adv-x="619" 
d="M117 451h434c7 0 8 -4 8 -10l-15 -78c-1 -7 -5 -10 -12 -10h-434c-7 0 -8 4 -8 10l15 78c1 7 5 10 12 10zM77 248h434c7 0 8 -4 8 -10l-15 -78c-1 -7 -5 -10 -12 -10h-434c-7 0 -8 3 -8 10l15 78c1 7 5 10 12 10z" />
    <glyph glyph-name="greater" unicode="&#x3e;" horiz-adv-x="514" 
d="M98 462l16 82c1 5 3 7 6 7c1 0 3 0 5 -1l334 -201c6 -4 8 -6 8 -13l-17 -82c-1 -7 -4 -9 -12 -13l-412 -197c-2 -1 -3 -1 -4 -1c-4 0 -5 3 -5 7l19 95c1 7 5 10 13 14l307 142l-251 147c-6 3 -7 7 -7 14z" />
    <glyph glyph-name="question" unicode="?" horiz-adv-x="547" 
d="M79 506c20 119 117 204 252 204c128 0 197 -67 197 -163c0 -171 -200 -177 -228 -319l-5 -25c-1 -7 -5 -10 -12 -10h-84c-7 0 -7 4 -7 10l4 25c30 187 224 186 224 306c0 45 -36 76 -97 76c-58 0 -120 -32 -142 -104c-3 -7 -5 -10 -12 -10h-82c-7 0 -8 4 -8 10zM177 120
h100c7 0 8 -4 8 -10l-20 -100c-1 -7 -5 -10 -12 -10h-100c-7 0 -8 4 -8 10l20 100c1 7 5 10 12 10z" />
    <glyph glyph-name="at" unicode="@" horiz-adv-x="808" 
d="M691 348c0 137 -72 225 -245 225c-192 0 -326 -142 -326 -335c0 -155 100 -251 249 -251c89 0 133 18 190 48c2 1 4 1 5 1c3 0 5 -1 7 -5l25 -56c1 -2 1 -3 1 -4c0 -4 -3 -6 -7 -8c-78 -39 -153 -56 -232 -56c-176 0 -327 124 -327 334c0 241 170 412 418 412
c202 0 328 -122 328 -289c0 -153 -69 -277 -195 -277c-52 0 -78 22 -97 53c-43 -38 -89 -53 -140 -53c-77 0 -149 53 -149 161c0 138 110 235 219 235c66 0 97 -18 121 -42l8 27c2 6 5 8 10 8h57c6 0 8 -3 8 -8l-62 -204c-4 -12 -7 -25 -9 -35c-1 -7 -2 -13 -2 -18
c0 -37 22 -50 47 -50c59 0 98 93 98 187zM498 322c0 58 -24 87 -79 87c-77 0 -141 -79 -141 -155c0 -67 32 -93 79 -93c92 0 141 93 141 161z" />
    <glyph glyph-name="A" unicode="A" horiz-adv-x="613" 
d="M443 10l-30 183h-269l-101 -183c-4 -7 -6 -10 -14 -10h-92c-7 0 -9 4 -9 8c0 3 1 5 3 8l376 674c4 7 6 10 13 10h102c7 0 10 -3 11 -10l115 -674c0 -11 -4 -16 -14 -16h-81c-6 0 -9 3 -10 10zM352 567l-152 -274h197z" />
    <glyph glyph-name="B" unicode="B" horiz-adv-x="640" 
d="M28 0c-7 0 -8 4 -8 10l133 680c1 7 5 10 12 10h249c103 0 185 -50 185 -153c0 -78 -37 -135 -105 -174c41 -25 76 -61 76 -141c0 -121 -96 -232 -272 -232h-270zM188 318l-42 -218h164c83 0 148 47 148 128c0 61 -40 90 -106 90h-164zM243 600l-35 -182h158
c70 0 121 38 121 102c0 54 -32 80 -91 80h-153z" />
    <glyph glyph-name="C" unicode="C" horiz-adv-x="690" 
d="M546 247h86c8 0 10 -3 10 -10c-44 -158 -175 -247 -340 -247c-153 0 -272 106 -272 293c0 219 146 427 394 427c156 0 263 -89 263 -247c0 -8 -4 -10 -12 -10h-84c-6 0 -10 3 -11 10c-13 95 -71 147 -172 147c-159 0 -266 -157 -266 -316c0 -140 72 -204 177 -204
c97 0 166 46 214 147c3 7 7 10 13 10z" />
    <glyph glyph-name="D" unicode="D" horiz-adv-x="672" 
d="M20 10l133 680c1 7 5 10 12 10h197c161 0 275 -100 275 -278c0 -233 -145 -422 -407 -422h-202c-7 0 -8 4 -8 10zM340 600h-97l-97 -500h89c190 0 290 140 290 302c0 143 -71 198 -185 198z" />
    <glyph glyph-name="E" unicode="E" horiz-adv-x="569" 
d="M188 318l-42 -218h330c7 0 9 -4 9 -10l-16 -80c-1 -7 -5 -10 -12 -10h-429c-7 0 -8 4 -8 10l133 680c1 7 5 10 12 10h413c7 0 9 -4 9 -10l-16 -80c-1 -7 -5 -10 -12 -10h-316l-35 -182h285c7 0 9 -4 9 -10l-16 -80c-1 -7 -5 -10 -12 -10h-286z" />
    <glyph glyph-name="F" unicode="F" horiz-adv-x="567" 
d="M185 303l-57 -293c-1 -7 -5 -10 -12 -10h-88c-7 0 -8 4 -8 10l133 680c1 7 5 10 12 10h428c7 0 8 -4 8 -10l-16 -80c-1 -7 -5 -10 -12 -10h-330l-38 -197h298c7 0 8 -4 8 -10l-16 -80c-1 -7 -5 -10 -12 -10h-298z" />
    <glyph glyph-name="G" unicode="G" horiz-adv-x="720" 
d="M375 362h287c7 0 8 -4 8 -10l-35 -183c-3 -17 -10 -29 -18 -38c-86 -99 -176 -141 -300 -141c-162 0 -285 94 -285 294c0 222 152 426 397 426c145 0 255 -76 255 -216c-1 -8 -4 -10 -12 -10h-86c-6 0 -10 3 -11 10c-10 85 -74 116 -159 116c-168 0 -272 -174 -272 -318
c0 -129 65 -202 181 -202c87 0 162 34 206 89l16 83h-192c-7 0 -8 4 -8 10l16 80c1 7 5 10 12 10z" />
    <glyph glyph-name="H" unicode="H" horiz-adv-x="701" 
d="M191 315l-60 -305c-1 -7 -5 -10 -12 -10h-88c-7 0 -8 4 -8 10l133 680c1 7 5 10 12 10h88c7 0 8 -4 8 -10l-54 -275h306l54 275c1 7 5 10 12 10h88c7 0 8 -4 8 -10l-133 -680c-1 -7 -5 -10 -12 -10h-88c-7 0 -8 4 -8 10l60 305h-306z" />
    <glyph glyph-name="I" unicode="I" horiz-adv-x="277" 
d="M18 10l133 680c1 7 5 10 12 10h88c7 0 8 -4 8 -10l-133 -680c-1 -7 -5 -10 -12 -10h-88c-7 0 -8 4 -8 10z" />
    <glyph glyph-name="J" unicode="J" horiz-adv-x="567" 
d="M551 690l-84 -429c-42 -213 -143 -271 -282 -271c-125 0 -193 77 -193 183c0 16 0 29 3 46c1 7 6 10 13 10h86c7 0 9 -4 9 -10c0 -2 -3 -23 -3 -37c0 -58 35 -92 100 -92c81 0 135 48 159 170l84 430c1 7 5 10 12 10h87c7 0 9 -4 9 -10z" />
    <glyph glyph-name="K" unicode="K" horiz-adv-x="626" 
d="M261 690l-53 -268l304 268c7 7 11 10 18 10h110c9 0 11 -8 5 -14l-279 -252l189 -420c4 -9 -2 -14 -10 -14h-96c-10 0 -15 5 -19 15l-153 344l-98 -87l-51 -262c-1 -7 -5 -10 -12 -10h-88c-7 0 -8 4 -8 10l133 680c1 7 5 10 12 10h88c7 0 8 -4 8 -10z" />
    <glyph glyph-name="L" unicode="L" horiz-adv-x="548" 
d="M20 10l133 680c1 7 5 10 12 10h88c7 0 8 -4 8 -10l-115 -590h348c7 0 8 -4 8 -10l-16 -80c-1 -7 -5 -10 -12 -10h-446c-7 0 -8 4 -8 10z" />
    <glyph glyph-name="M" unicode="M" horiz-adv-x="819" 
d="M799 690l-133 -680c-1 -7 -5 -10 -12 -10h-88c-7 0 -8 4 -8 10l99 509l-239 -393c-3 -5 -9 -9 -15 -9h-65c-6 0 -10 4 -11 9l-99 393l-100 -509c-1 -7 -5 -10 -12 -10h-88c-7 0 -8 4 -8 10l133 680c1 7 5 10 12 10h111c7 0 12 -3 14 -10l103 -427l263 427
c4 7 11 10 18 10h117c7 0 8 -4 8 -10z" />
    <glyph glyph-name="N" unicode="N" horiz-adv-x="717" 
d="M552 0h-91c-7 0 -11 1 -14 8l-218 514l-101 -512c-1 -7 -5 -10 -12 -10h-88c-7 0 -8 4 -8 10l133 680c2 8 5 10 12 10h91c7 0 11 -1 14 -8l218 -514l101 512c1 7 5 10 12 10h88c7 0 8 -4 8 -10l-133 -680c-1 -7 -5 -10 -12 -10z" />
    <glyph glyph-name="O" unicode="O" horiz-adv-x="751" 
d="M314 -10c-159 0 -287 104 -287 297c0 221 155 423 409 423c159 0 287 -104 287 -297c0 -221 -155 -423 -409 -423zM327 90c172 0 284 157 284 308c0 144 -79 212 -188 212c-172 0 -284 -157 -284 -308c0 -144 79 -212 188 -212z" />
    <glyph glyph-name="P" unicode="P" horiz-adv-x="619" 
d="M20 10l133 680c1 7 5 10 12 10h252c121 0 200 -65 200 -170c0 -146 -108 -226 -273 -226h-158l-58 -294c-1 -7 -5 -10 -12 -10h-88c-7 0 -8 4 -8 10zM243 600l-38 -196h161c84 0 139 39 139 106c0 64 -39 90 -101 90h-161z" />
    <glyph glyph-name="Q" unicode="Q" horiz-adv-x="751" 
d="M314 -10c-159 0 -287 104 -287 297c0 221 155 423 409 423c159 0 287 -104 287 -297c0 -116 -43 -227 -120 -306l39 -46c2 -3 3 -5 3 -7c-1 -2 -2 -4 -6 -7l-69 -60c-4 -3 -6 -4 -8 -4s-4 1 -6 4l-44 51c-56 -31 -123 -48 -198 -48zM327 90c43 0 83 10 118 27l-52 63
c-2 3 -3 5 -3 7c1 2 2 4 6 7l70 60c3 3 5 4 7 4s4 -1 7 -4l55 -66c49 58 76 135 76 210c0 144 -79 212 -188 212c-172 0 -284 -157 -284 -308c0 -144 79 -212 188 -212z" />
    <glyph glyph-name="R" unicode="R" horiz-adv-x="635" 
d="M20 10l133 680c1 7 5 10 12 10h258c113 0 187 -57 187 -164c0 -105 -64 -171 -169 -204l88 -322s1 -3 1 -5s-1 -5 -7 -5h-96c-7 0 -10 3 -12 10l-85 314h-141l-61 -314c-1 -7 -5 -10 -12 -10h-88c-7 0 -8 4 -8 10zM243 600l-34 -176h162c78 0 127 33 127 99
c0 46 -26 77 -94 77h-161z" />
    <glyph glyph-name="S" unicode="S" horiz-adv-x="589" 
d="M76 502c0 136 126 208 265 208c144 0 224 -82 224 -189v-12c-1 -7 -5 -10 -12 -10h-86c-7 0 -8 3 -8 10c0 62 -53 101 -133 101c-63 0 -144 -27 -144 -97c0 -63 68 -86 155 -112c100 -30 196 -73 196 -175c0 -157 -120 -236 -282 -236c-149 0 -243 86 -243 201
c0 9 1 18 2 27c1 7 5 10 12 10h86c7 0 8 -3 8 -10c0 -78 36 -128 142 -128c83 0 167 34 167 117c0 52 -56 81 -150 107c-128 35 -199 84 -199 188z" />
    <glyph glyph-name="T" unicode="T" horiz-adv-x="517" 
d="M43 610l16 80c1 7 5 10 12 10h498c7 0 8 -4 8 -10l-16 -80c-1 -7 -5 -10 -12 -10h-195l-115 -590c-1 -7 -5 -10 -12 -10h-88c-7 0 -8 4 -8 10l115 590h-195c-7 0 -8 4 -8 10z" />
    <glyph glyph-name="U" unicode="U" horiz-adv-x="659" 
d="M57 267l82 423c1 7 5 10 12 10h88c7 0 8 -4 8 -10l-84 -428c-4 -18 -5 -36 -5 -51c0 -81 47 -121 124 -121c94 0 161 63 182 172l84 428c1 7 5 10 12 10h88c7 0 8 -4 8 -10l-85 -434c-36 -182 -144 -266 -298 -266c-134 0 -221 77 -221 225c0 17 2 34 5 52z" />
    <glyph glyph-name="V" unicode="V" horiz-adv-x="600" 
d="M669 690l-371 -680c-3 -7 -6 -10 -13 -10h-112c-7 0 -8 3 -9 10l-110 680c0 7 3 10 10 10h93c7 0 9 -3 10 -10l83 -561l295 561c4 7 7 10 14 10h105c5 0 7 -1 7 -4c0 -2 -1 -4 -2 -6z" />
    <glyph glyph-name="W" unicode="W" horiz-adv-x="861" 
d="M900 690l-286 -680c-3 -7 -6 -10 -13 -10h-111c-7 0 -9 3 -9 10l-28 480l-213 -480c-3 -7 -6 -10 -13 -10h-111c-7 0 -8 3 -9 10l-30 680c0 7 3 10 10 10h86c7 0 10 -3 10 -10l19 -540l218 492c3 7 7 10 14 10h92c7 0 10 -3 10 -10l32 -492l223 540c3 7 7 10 14 10h89
c5 0 7 -2 7 -5c0 -1 0 -2 -1 -5z" />
    <glyph glyph-name="X" unicode="X" horiz-adv-x="585" 
d="M214 690l104 -228l190 228c7 8 11 10 18 10h102c7 0 9 -5 5 -10l-270 -326l162 -354c3 -6 0 -10 -7 -10h-94c-7 0 -8 1 -12 10l-122 266l-220 -266c-6 -9 -9 -10 -16 -10h-109c-5 0 -8 5 -4 10l304 365l-145 315c-3 6 1 10 6 10h96c7 0 9 -3 12 -10z" />
    <glyph glyph-name="Y" unicode="Y" horiz-adv-x="528" 
d="M592 690l-300 -438l-47 -242c-1 -7 -5 -10 -12 -10h-88c-7 0 -8 4 -8 10l47 242l-131 438c0 7 4 10 9 10h95c7 0 10 -3 11 -8l89 -320l216 320c3 5 6 8 13 8h102c5 0 8 -4 4 -10z" />
    <glyph glyph-name="Z" unicode="Z" horiz-adv-x="601" 
d="M107 610l16 80c1 7 5 10 12 10h461c7 0 8 -4 8 -10l-16 -80c-1 -7 -4 -11 -9 -17l-457 -493h381c7 0 8 -4 8 -10l-16 -80c-1 -7 -5 -10 -12 -10h-501c-7 0 -8 4 -8 10l16 80c1 7 4 11 9 17l460 493h-344c-7 0 -8 4 -8 10z" />
    <glyph glyph-name="bracketleft" unicode="[" horiz-adv-x="447" 
d="M9 -188l170 878c1 7 5 10 12 10h267c7 0 8 -4 8 -10l-16 -80c-1 -7 -5 -10 -12 -10h-169l-135 -698h169c7 0 8 -4 8 -10l-16 -80c-1 -7 -5 -10 -12 -10h-267c-6 0 -7 4 -7 10z" />
    <glyph glyph-name="backslash" unicode="\" horiz-adv-x="301" 
d="M96 690l214 -680c2 -7 -2 -10 -9 -10h-85c-7 0 -9 3 -11 10l-214 680c-2 7 1 10 8 10h85c7 0 10 -3 12 -10z" />
    <glyph glyph-name="bracketright" unicode="]" horiz-adv-x="447" 
d="M399 690l-171 -878c-1 -7 -5 -10 -12 -10h-266c-7 0 -8 4 -8 10l16 80c1 7 5 10 12 10h168l135 698h-169c-7 0 -8 4 -8 10l16 80c1 7 5 10 12 10h267c7 0 8 -4 8 -10z" />
    <glyph glyph-name="asciicircum" unicode="^" horiz-adv-x="560" 
d="M125 365h-97c-6 0 -8 5 -4 10l253 315c4 6 8 10 15 10h91c7 0 9 -3 12 -10l132 -315c2 -6 -2 -10 -8 -10h-84c-6 0 -9 3 -12 10l-96 231l-186 -231c-5 -7 -9 -10 -16 -10z" />
    <glyph glyph-name="underscore" unicode="_" horiz-adv-x="464" 
d="M-31 0h422c7 0 8 -4 8 -10l-15 -78c-1 -7 -5 -10 -12 -10h-422c-7 0 -8 4 -8 10l15 78c1 7 5 10 12 10z" />
    <glyph glyph-name="quoteleft" unicode="&#x2018;" horiz-adv-x="245" 
d="M220 650c-42 0 -61 -17 -66 -50l-2 -12h47c7 0 9 -4 9 -10l-18 -92c-1 -7 -5 -10 -12 -10h-98c-7 0 -8 4 -8 10l23 121c12 62 45 93 107 93h27c7 0 8 -4 8 -10l-6 -30c-1 -7 -4 -10 -11 -10z" />
    <glyph glyph-name="a" unicode="a" horiz-adv-x="605" 
d="M556 492l-93 -482c-1 -7 -5 -10 -12 -10h-82c-7 0 -8 4 -8 10l5 27c-41 -32 -84 -47 -148 -47c-108 0 -198 72 -198 223c0 169 112 299 288 299c67 0 112 -23 141 -49l5 29c1 7 5 10 12 10h82c7 0 8 -4 8 -10zM246 84c100 0 174 88 174 204c0 79 -43 130 -120 130
c-104 0 -172 -92 -172 -203c0 -83 47 -131 118 -131z" />
    <glyph glyph-name="b" unicode="b" horiz-adv-x="617" 
d="M23 10l133 680c1 7 5 10 12 10h82c7 0 8 -4 8 -10l-44 -228c44 33 98 50 163 50c103 0 180 -73 180 -216c0 -156 -105 -306 -274 -306c-71 0 -119 26 -150 57l-8 -37c-1 -7 -5 -10 -12 -10h-82c-7 0 -8 4 -8 10zM335 418c-101 0 -175 -83 -175 -199
c0 -89 48 -135 117 -135c103 0 170 91 170 198c0 85 -39 136 -112 136z" />
    <glyph glyph-name="c" unicode="c" horiz-adv-x="561" 
d="M307 418c-101 0 -177 -86 -177 -195c0 -99 48 -139 122 -139c58 0 108 30 140 86c4 8 9 9 16 9h85c4 0 6 -2 6 -6c0 -2 -1 -5 -3 -10c-48 -116 -137 -173 -255 -173c-135 0 -219 85 -219 225c0 170 121 297 298 297c128 0 208 -80 208 -173c0 -4 -1 -8 -1 -10
c-1 -4 -5 -6 -9 -6h-81c-7 0 -11 1 -12 9c-11 61 -54 86 -118 86z" />
    <glyph glyph-name="d" unicode="d" horiz-adv-x="609" 
d="M595 690l-133 -680c-1 -7 -5 -10 -12 -10h-82c-7 0 -8 4 -8 10l7 32c-45 -38 -94 -52 -146 -52c-115 0 -199 73 -199 221c0 159 109 301 279 301c71 0 114 -25 146 -58l46 236c1 7 5 10 12 10h82c7 0 8 -4 8 -10zM420 286c0 75 -40 132 -119 132
c-106 0 -171 -97 -171 -207c0 -81 44 -127 113 -127c112 0 177 96 177 202z" />
    <glyph glyph-name="e" unicode="e" horiz-adv-x="584" 
d="M250 84c65 0 107 22 143 75c5 8 8 9 15 9h87c5 0 6 -3 6 -7c0 -2 0 -3 -3 -10c-50 -112 -137 -161 -255 -161c-127 0 -221 82 -221 229c0 157 124 293 299 293c144 0 212 -97 212 -214c0 -12 0 -28 -5 -50l-4 -19c-1 -7 -5 -10 -12 -10h-382v-12c0 -77 43 -123 120 -123z
M310 418c-62 0 -130 -33 -165 -109h282c-3 72 -43 109 -117 109z" />
    <glyph glyph-name="f" unicode="f" horiz-adv-x="366" 
d="M360 408h-144l-78 -398c-1 -7 -5 -10 -12 -10h-82c-7 0 -9 3 -8 10l78 398h-80c-7 0 -8 4 -8 10l14 74c1 7 5 10 12 10h80l10 53c19 100 87 155 176 155c47 0 78 -10 104 -22c5 -3 6 -5 6 -9c0 -2 0 -3 -1 -8l-14 -69c-1 -6 -4 -10 -9 -10c-3 0 -5 1 -7 2
c-30 16 -52 22 -76 22c-49 0 -71 -27 -80 -77l-7 -37h144c7 0 8 -4 8 -10l-14 -74c-2 -7 -5 -10 -12 -10z" />
    <glyph glyph-name="g" unicode="g" horiz-adv-x="609" 
d="M207 -208c-127 0 -192 59 -192 169c1 8 5 10 12 10h78c7 0 8 -3 8 -10c0 -53 43 -75 105 -75c88 0 134 56 150 144l3 17c-52 -33 -86 -45 -147 -45c-114 0 -187 70 -187 204c0 157 99 306 274 306c65 0 108 -18 140 -52l7 32c2 7 5 10 12 10h82c7 0 8 -4 8 -10l-88 -452
c-35 -182 -118 -248 -265 -248zM262 96c99 0 163 98 163 195c0 82 -36 127 -110 127c-107 0 -172 -95 -172 -197c0 -80 40 -125 119 -125z" />
    <glyph glyph-name="h" unicode="h" horiz-adv-x="607" 
d="M20 10l133 680c1 7 5 10 12 10h82c7 0 8 -4 8 -10l-46 -237c55 41 109 59 171 59c100 0 152 -54 152 -134c0 -15 -2 -30 -5 -47l-63 -321c-1 -7 -5 -10 -12 -10h-82c-7 0 -8 4 -8 10l58 294c2 12 4 24 4 34c0 46 -24 80 -83 80c-75 0 -151 -56 -173 -171l-46 -237
c-1 -7 -5 -10 -12 -10h-82c-7 0 -8 4 -8 10z" />
    <glyph glyph-name="i" unicode="i" horiz-adv-x="268" 
d="M21 10l93 482c1 7 5 10 12 10h82c7 0 8 -4 8 -10l-94 -482c-1 -7 -5 -10 -12 -10h-81c-7 0 -8 4 -8 10zM122 590l20 100c1 7 5 10 12 10h104c7 0 8 -4 8 -10l-20 -100c-1 -7 -5 -10 -12 -10h-104c-7 0 -8 4 -8 10z" />
    <glyph glyph-name="j" unicode="j" horiz-adv-x="268" 
d="M13 -31l101 523c1 7 5 10 12 10h82c7 0 8 -4 8 -10l-100 -519c-17 -90 -38 -130 -64 -173c-3 -5 -6 -8 -9 -8s-5 1 -10 3l-70 26c-4 2 -6 4 -6 7c0 1 0 3 1 5c27 47 44 80 55 136zM122 590l20 100c1 7 5 10 12 10h104c7 0 8 -4 8 -10l-20 -100c-1 -7 -4 -10 -11 -10h-104
c-7 0 -9 4 -9 10z" />
    <glyph glyph-name="k" unicode="k" horiz-adv-x="545" 
d="M532 487l-207 -171l133 -301c1 -3 1 -5 1 -7c-1 -5 -4 -8 -11 -8h-86c-7 0 -11 2 -14 9l-107 244l-79 -64l-35 -179c-1 -7 -5 -10 -12 -10h-82c-7 0 -8 4 -8 10l133 680c1 7 5 10 12 10h82c7 0 8 -4 8 -10l-72 -369l217 172c6 5 11 9 18 9h108c5 0 7 -2 7 -6
c0 -3 -2 -6 -6 -9z" />
    <glyph glyph-name="l" unicode="l" horiz-adv-x="269" 
d="M21 10l133 680c1 7 5 10 12 10h82c7 0 8 -4 8 -10l-133 -680c-1 -7 -5 -10 -12 -10h-82c-7 0 -8 4 -8 10z" />
    <glyph glyph-name="m" unicode="m" horiz-adv-x="819" 
d="M21 10l93 482c1 7 5 10 12 10h82c7 0 8 -4 8 -10l-7 -38c37 38 86 58 134 58c66 0 95 -24 121 -67c47 47 96 67 157 67c79 0 123 -44 123 -120c0 -14 -1 -28 -4 -44l-65 -338c-1 -7 -5 -10 -12 -10h-82c-7 0 -8 4 -8 10l61 314c2 12 4 24 4 34c0 36 -19 60 -61 60
c-62 0 -111 -61 -133 -174l-45 -234c-1 -7 -5 -10 -12 -10h-82c-7 0 -8 4 -8 10l61 314c3 13 4 24 4 34c0 38 -21 60 -65 60c-58 0 -106 -54 -129 -174l-45 -234c-1 -7 -5 -10 -12 -10h-82c-7 0 -8 4 -8 10z" />
    <glyph glyph-name="n" unicode="n" horiz-adv-x="595" 
d="M20 10l93 482c1 7 5 10 12 10h82c7 0 8 -4 8 -10l-8 -45c47 40 99 65 172 65c93 0 143 -52 143 -130c0 -14 -2 -29 -5 -45l-63 -327c-1 -7 -5 -10 -12 -10h-82c-7 0 -8 4 -8 10l58 298c3 13 4 24 4 35c0 45 -28 75 -81 75c-71 0 -143 -57 -165 -171l-46 -237
c-1 -7 -5 -10 -12 -10h-82c-7 0 -8 3 -8 10z" />
    <glyph glyph-name="o" unicode="o" horiz-adv-x="608" 
d="M22 212c0 174 128 300 306 300c139 0 228 -95 228 -222c0 -174 -128 -300 -306 -300c-139 0 -228 95 -228 222zM318 418c-105 0 -188 -80 -188 -197c0 -87 48 -137 130 -137c105 0 188 80 188 197c0 87 -48 137 -130 137z" />
    <glyph glyph-name="p" unicode="p" horiz-adv-x="613" 
d="M-14 -188l133 680c1 7 5 10 12 10h82c7 0 8 -4 8 -10l-7 -32c45 38 94 52 146 52c115 0 199 -73 199 -221c0 -159 -109 -301 -279 -301c-71 0 -114 25 -146 58l-46 -236c-1 -7 -5 -10 -12 -10h-82c-7 0 -8 4 -8 10zM161 216c0 -75 40 -132 119 -132c106 0 171 97 171 207
c0 81 -44 127 -113 127c-112 0 -177 -96 -177 -202z" />
    <glyph glyph-name="q" unicode="q" horiz-adv-x="609" 
d="M557 492l-133 -680c-1 -7 -5 -10 -12 -10h-82c-7 0 -8 4 -8 10l44 228c-51 -38 -98 -50 -152 -50c-114 0 -191 73 -191 216c0 156 105 306 274 306c71 0 119 -26 150 -57l8 37c2 7 5 10 12 10h81c7 0 9 -4 9 -10zM245 84c101 0 175 83 175 199c0 89 -48 135 -117 135
c-103 0 -172 -91 -172 -198c0 -85 41 -136 114 -136z" />
    <glyph glyph-name="r" unicode="r" horiz-adv-x="442" 
d="M448 478l-16 -79c-1 -6 -4 -11 -10 -11c-1 0 -2 0 -6 2c-38 20 -59 28 -95 28c-69 0 -130 -54 -148 -147l-50 -261c-1 -7 -5 -10 -12 -10h-82c-7 0 -8 4 -8 10l93 482c1 7 5 10 12 10h82c7 0 8 -4 8 -10l-6 -36c38 34 85 56 142 56c35 0 62 -6 87 -16c7 -3 10 -5 10 -11
c0 -1 0 -2 -1 -7z" />
    <glyph glyph-name="s" unicode="s" horiz-adv-x="506" 
d="M434 166c0 -113 -97 -176 -227 -176c-134 0 -195 66 -195 169c0 6 5 10 12 10h82c7 0 8 -3 8 -10c3 -56 35 -75 99 -75c52 0 113 17 113 71c0 30 -33 43 -119 61c-99 21 -149 61 -149 138c0 101 100 158 214 158c118 0 185 -64 185 -150c0 -6 -5 -10 -12 -10h-85
c-6 0 -7 3 -8 10c-7 37 -39 56 -95 56c-39 0 -97 -14 -97 -60c0 -31 30 -50 118 -66c89 -16 156 -52 156 -126z" />
    <glyph glyph-name="t" unicode="t" horiz-adv-x="413" 
d="M235 502h157c7 0 8 -4 8 -10l-14 -74c-1 -7 -5 -10 -12 -10h-157l-45 -230c-2 -11 -2 -22 -2 -30c0 -40 15 -64 60 -64c27 0 55 3 91 17c2 1 4 1 6 1c5 0 7 -3 7 -9l-14 -71c-2 -9 -3 -14 -11 -17c-29 -10 -70 -15 -106 -15c-91 0 -139 49 -139 126c0 12 0 22 3 40
l48 252h-86c-7 0 -8 4 -8 10l14 74c1 7 5 10 12 10h86l28 144c1 7 5 10 12 10h81c7 0 9 -4 9 -10z" />
    <glyph glyph-name="u" unicode="u" horiz-adv-x="589" 
d="M541 492l-93 -482c-1 -7 -5 -10 -12 -10h-82c-7 0 -8 4 -8 10l8 45c-47 -40 -99 -65 -172 -65c-93 0 -143 52 -143 130c0 14 2 29 5 45l63 327c1 7 5 10 12 10h82c7 0 8 -4 8 -10l-58 -298c-3 -13 -4 -24 -4 -35c0 -45 28 -75 81 -75c71 0 143 57 165 171l46 237
c1 7 5 10 12 10h82c7 0 8 -3 8 -10z" />
    <glyph glyph-name="v" unicode="v" horiz-adv-x="469" 
d="M490 486l-272 -476c-5 -7 -9 -10 -14 -10h-90c-5 0 -9 3 -10 10l-90 476c0 2 0 4 1 7c1 6 4 9 10 9h85c7 0 12 -3 12 -10l60 -361l199 361c4 7 9 10 16 10h88c6 0 8 -3 8 -8c0 -2 -1 -4 -3 -8z" />
    <glyph glyph-name="w" unicode="w" horiz-adv-x="762" 
d="M762 487l-232 -477c-4 -8 -9 -10 -15 -10h-90c-7 0 -11 3 -11 10l-40 334l-158 -334c-3 -7 -8 -10 -15 -10h-88c-6 0 -11 2 -11 10l-60 480c0 8 3 12 10 12h84c10 0 11 -3 12 -10l31 -358l158 334c3 7 6 10 14 10h90c7 0 9 -3 10 -10l40 -334l166 358c3 7 6 10 16 10h85
c4 0 7 -2 7 -7c0 -2 -1 -4 -3 -8z" />
    <glyph glyph-name="x" unicode="x" horiz-adv-x="500" 
d="M175 495l78 -149l131 149c5 6 9 7 15 7h98c4 0 6 -2 6 -6c0 -2 -1 -5 -3 -7l-202 -229l129 -247c1 -2 2 -5 2 -8s-3 -5 -7 -5h-95c-6 0 -8 3 -12 10l-89 168l-144 -168c-6 -8 -10 -10 -16 -10h-107c-4 0 -5 2 -5 5c0 2 0 3 4 8l222 253l-117 221c-2 4 -2 6 -2 8
c0 4 3 7 8 7h93c6 0 10 -1 13 -7z" />
    <glyph glyph-name="y" unicode="y" horiz-adv-x="525" 
d="M147 502c8 0 10 -3 11 -10l67 -347l178 347c3 7 6 10 15 10h91c5 0 7 -2 7 -7c0 -1 0 -3 -2 -7l-284 -537c-67 -127 -131 -159 -201 -159c-43 0 -67 7 -88 16c-7 3 -8 7 -8 11c0 1 0 2 1 7l14 72c1 7 6 10 10 10c14 0 30 -22 71 -22c47 0 82 31 122 118l-104 481
c-1 5 -1 6 -1 9c0 5 5 8 10 8h91z" />
    <glyph glyph-name="z" unicode="z" horiz-adv-x="488" 
d="M72 418l14 74c1 7 5 10 12 10h362c7 0 8 -4 8 -10l-14 -74c-1 -6 -2 -12 -12 -21l-318 -303h276c7 0 8 -4 8 -10l-14 -74c-2 -7 -5 -10 -12 -10h-393c-7 0 -8 4 -8 10l14 74c1 7 5 11 8 15l324 309h-247c-7 0 -8 4 -8 10z" />
    <glyph glyph-name="braceleft" unicode="{" horiz-adv-x="398" 
d="M208 164l-35 -178c-3 -16 -4 -24 -4 -34c0 -35 16 -50 55 -50h33c7 0 8 -4 8 -10l-16 -80c-1 -7 -5 -10 -12 -10h-41c-87 0 -135 46 -135 132c0 18 0 32 5 59l28 141c2 9 3 17 3 24c0 31 -19 43 -51 43h-28c-7 0 -8 4 -8 10l15 80c1 7 5 10 12 10h28c37 0 63 14 74 67
l28 141c29 145 76 191 198 191h47c7 0 8 -4 8 -10l-16 -80c-1 -7 -5 -10 -12 -10h-33c-46 0 -71 -24 -83 -84l-35 -178c-11 -54 -30 -74 -79 -87c31 -10 47 -31 47 -66c0 -7 1 -13 -1 -21z" />
    <glyph glyph-name="bar" unicode="|" horiz-adv-x="286" 
d="M12 -90l150 780c1 7 5 10 12 10h86c7 0 8 -4 8 -10l-151 -780c-1 -7 -5 -10 -12 -10h-86c-6 0 -7 4 -7 10z" />
    <glyph glyph-name="braceright" unicode="}" horiz-adv-x="398" 
d="M168 338l35 178c3 16 4 24 4 34c0 35 -16 50 -55 50h-33c-7 0 -8 4 -8 10l16 80c1 7 5 10 12 10h41c87 0 135 -46 135 -132c0 -18 0 -32 -5 -59l-28 -141c-2 -9 -3 -17 -3 -24c0 -31 19 -43 51 -43h28c7 0 8 -4 8 -10l-15 -80c-1 -7 -5 -10 -12 -10h-28
c-37 0 -63 -14 -74 -67l-28 -141c-29 -145 -76 -191 -198 -191h-47c-7 0 -8 4 -8 10l16 80c1 7 5 10 12 10h33c46 0 71 24 83 84l35 178c11 54 30 74 79 87c-31 10 -47 31 -47 66c0 7 -1 13 1 21z" />
    <glyph glyph-name="asciitilde" unicode="~" horiz-adv-x="516" 
d="M33 374c35 22 98 36 130 36c92 0 116 -41 185 -41c30 0 52 8 81 25c3 1 5 2 8 2c4 0 6 -3 8 -8l29 -64c2 -4 2 -6 2 -9c0 -6 -3 -9 -11 -14c-35 -22 -98 -36 -130 -36c-92 0 -116 41 -185 41c-30 0 -52 -8 -81 -25c-3 -1 -5 -2 -8 -2c-4 0 -6 3 -8 8l-29 64
c-2 5 -2 6 -2 9c0 6 3 9 11 14z" />
    <glyph glyph-name="exclamdown" unicode="&#xa1;" horiz-adv-x="351" 
d="M117 -198h-84c-7 0 -8 4 -8 10l95 487c1 7 5 10 12 10h84c7 0 8 -4 8 -10l-95 -487c-1 -7 -5 -10 -12 -10zM238 382h-100c-7 0 -8 4 -8 10l20 100c1 7 5 10 12 10h100c7 0 8 -4 8 -10l-20 -100c-1 -7 -5 -10 -12 -10z" />
    <glyph glyph-name="cent" unicode="&#xa2;" horiz-adv-x="571" 
d="M177 10l17 86c-98 23 -156 100 -156 218c0 157 102 276 256 294l16 82c1 7 5 10 12 10h78c7 0 8 -4 8 -10l-17 -84c96 -19 153 -89 153 -168c0 -4 -1 -8 -1 -10c-1 -4 -5 -6 -9 -6h-81c-7 0 -11 1 -12 9c-8 43 -32 68 -68 79l-64 -322c40 11 75 39 99 81c4 8 9 9 16 9h85
c4 0 6 -2 6 -6c0 -2 -1 -5 -3 -10c-44 -105 -120 -162 -222 -172l-15 -80c-2 -7 -5 -10 -12 -10h-78c-7 0 -8 4 -8 10zM146 322c0 -72 25 -111 67 -130l62 318c-76 -22 -129 -97 -129 -188z" />
    <glyph glyph-name="sterling" unicode="&#xa3;" horiz-adv-x="593" 
d="M27 111c53 53 94 115 98 186h-82c-7 0 -8 4 -8 10l15 78c1 7 5 10 12 10h53c-5 33 -5 47 -5 70c0 149 109 245 254 245c123 0 198 -75 198 -172c0 -9 -1 -17 -3 -32c-1 -7 -5 -10 -12 -10h-83c-7 0 -8 3 -8 10v10c0 53 -32 94 -108 94c-81 0 -130 -65 -130 -144
c0 -27 5 -47 9 -71h200c7 0 8 -4 8 -10l-15 -78c-1 -7 -5 -10 -12 -10h-177c-6 -74 -37 -136 -97 -197h355c7 0 8 -4 8 -10l-16 -80c-1 -7 -5 -10 -12 -10h-462c-6 0 -7 4 -7 10l15 81c1 7 5 12 12 20z" />
    <glyph glyph-name="fraction" unicode="&#x2044;" horiz-adv-x="670" 
d="M-40 50l673 647c2 2 4 3 7 3s5 -1 7 -3l30 -33c3 -3 4 -5 4 -7s0 -3 -4 -7l-673 -647c-2 -2 -4 -3 -7 -3s-5 1 -7 3l-30 33c-3 3 -4 5 -4 7s0 3 4 7z" />
    <glyph glyph-name="yen" unicode="&#xa5;" horiz-adv-x="557" 
d="M56 201h146l9 47h-166c-7 0 -8 4 -8 10l15 78c1 7 5 10 12 10h120l-102 344c0 6 4 10 8 10h98c7 0 8 -3 9 -8l90 -321l216 321c3 5 6 8 13 8h102c4 0 6 -1 6 -4c0 -2 0 -3 -2 -6l-237 -344h129c7 0 8 -4 8 -10l-15 -78c-1 -7 -5 -10 -12 -10h-176l-9 -47h156
c7 0 8 -4 8 -10l-16 -78c-1 -7 -5 -10 -12 -10h-155l-18 -93c-1 -7 -5 -10 -12 -10h-88c-7 0 -8 4 -8 10l18 93h-147c-7 0 -8 4 -8 10l16 78c1 7 5 10 12 10z" />
    <glyph glyph-name="florin" unicode="&#x192;" horiz-adv-x="505" 
d="M42 -31l145 439h-75c-7 0 -7 5 -7 10l14 74c1 7 6 10 13 10h86l16 47c40 119 114 161 199 161c49 0 76 -6 104 -18c5 -2 8 -5 8 -11c0 -1 0 -2 -1 -7l-14 -72c-2 -8 -4 -10 -9 -10c-2 0 -4 0 -8 2c-28 16 -59 22 -83 22c-42 0 -76 -19 -95 -77l-12 -37h144
c7 0 8 -4 8 -10l-14 -74c-1 -7 -5 -10 -12 -10h-156l-159 -472c-34 -101 -94 -144 -177 -144c-37 0 -78 7 -101 19c-4 3 -6 5 -6 9c0 2 0 3 1 8l14 72c1 7 5 10 10 10c2 0 3 0 7 -2c28 -16 54 -22 75 -22c41 0 64 19 85 83z" />
    <glyph glyph-name="section" unicode="&#xa7;" horiz-adv-x="510" 
d="M442 219c0 -49 -25 -92 -69 -124c21 -29 32 -55 32 -99c0 -122 -101 -204 -234 -204c-127 0 -186 88 -186 166v28c1 7 5 10 12 10h86c7 0 8 -3 8 -10v-14c0 -56 33 -80 94 -80c66 0 114 39 114 100c0 47 -37 77 -103 117c-101 62 -146 98 -146 179c0 48 21 82 69 119
c-21 29 -32 55 -32 94c0 127 101 209 231 209c120 0 192 -73 192 -159c0 -12 -1 -23 -3 -35c-1 -7 -5 -10 -12 -10h-86c-7 0 -8 3 -8 10c1 8 1 9 1 14c0 49 -29 80 -95 80c-58 0 -114 -33 -114 -98c0 -48 37 -78 103 -118c101 -62 146 -99 146 -175zM207 332l-15 10
c-18 -10 -36 -27 -36 -54c0 -28 25 -52 129 -118l19 -12c19 12 32 30 32 52c0 33 -27 54 -129 122z" />
    <glyph glyph-name="currency" unicode="&#xa4;" horiz-adv-x="567" 
d="M15 107l65 53c-10 21 -15 45 -15 73c0 56 19 105 51 143l-37 46c-2 3 -2 4 -2 6c0 3 1 4 5 8l55 47c4 3 6 4 8 4s3 -1 6 -4l40 -50c31 15 67 24 104 24c42 0 77 -10 106 -28l67 57c4 3 6 4 8 4s4 -1 6 -4l44 -52c2 -3 2 -4 2 -6c0 -3 -1 -5 -5 -8l-65 -54
c10 -22 15 -46 15 -73c0 -52 -20 -103 -53 -142l38 -47c2 -3 2 -4 2 -6c0 -3 -1 -5 -5 -8l-54 -46c-3 -3 -6 -4 -8 -4s-3 1 -6 4l-41 49c-31 -15 -66 -24 -103 -24c-41 0 -77 10 -107 28l-66 -56c-3 -3 -6 -4 -8 -4s-3 1 -6 4l-44 52c-2 3 -2 4 -2 6c0 3 1 5 5 8zM285 369
c-65 0 -125 -54 -125 -125c0 -55 34 -87 88 -87c66 0 129 52 129 123c0 57 -33 89 -92 89z" />
    <glyph glyph-name="quotesingle" unicode="'" horiz-adv-x="192" 
d="M62 474l41 216c1 7 5 10 12 10h80c7 0 8 -4 8 -10l-41 -216c-1 -7 -5 -10 -12 -10h-80c-7 0 -8 4 -8 10z" />
    <glyph glyph-name="quotedblleft" unicode="&#x201c;" horiz-adv-x="395" 
d="M219 650c-42 0 -61 -17 -66 -50l-2 -12h47c7 0 9 -4 9 -10l-18 -92c-1 -7 -5 -10 -12 -10h-98c-7 0 -8 4 -8 10l23 121c12 62 45 93 107 93h27c7 0 8 -4 8 -10l-6 -30c-1 -7 -4 -10 -11 -10zM369 650c-42 0 -61 -17 -66 -50l-2 -12h47c7 0 9 -4 9 -10l-18 -92
c-1 -7 -5 -10 -12 -10h-98c-7 0 -8 4 -8 10l23 121c12 62 45 93 107 93h27c7 0 8 -4 8 -10l-6 -30c-1 -7 -4 -10 -11 -10z" />
    <glyph glyph-name="guillemotleft" unicode="&#xab;" horiz-adv-x="571" 
d="M323 521l-22 -111c-1 -7 -3 -11 -10 -16l-171 -125l122 -133c3 -3 5 -6 5 -10c0 -1 0 -2 -1 -6l-19 -93c-1 -4 -3 -7 -7 -7c-2 0 -4 1 -6 3l-183 201c-5 6 -7 11 -6 18l13 68c1 7 5 11 14 18l260 197c3 2 5 3 7 3c3 0 4 -3 4 -7zM536 521l-22 -111c-1 -7 -3 -11 -10 -16
l-171 -125l122 -133c3 -3 5 -6 5 -10c0 -1 0 -2 -1 -6l-19 -93c-1 -4 -3 -7 -7 -7c-2 0 -4 1 -6 3l-183 201c-5 6 -7 11 -6 18l13 68c1 7 5 11 14 18l260 197c3 2 5 3 7 3c3 0 4 -3 4 -7z" />
    <glyph glyph-name="guilsinglleft" unicode="&#x2039;" horiz-adv-x="358" 
d="M323 521l-22 -111c-1 -7 -3 -11 -10 -16l-171 -125l122 -133c3 -3 5 -6 5 -10c0 -1 0 -2 -1 -6l-19 -93c-1 -4 -3 -7 -7 -7c-2 0 -4 1 -6 3l-183 201c-5 6 -7 11 -6 18l13 68c1 7 5 11 14 18l260 197c3 2 5 3 7 3c3 0 4 -3 4 -7z" />
    <glyph glyph-name="guilsinglright" unicode="&#x203a;" horiz-adv-x="358" 
d="M16 27l22 111c1 7 3 11 10 16l171 125l-122 133c-3 3 -5 6 -5 10c0 1 0 2 1 6l19 93c1 4 3 7 7 7c2 0 4 -1 6 -3l183 -201c5 -6 7 -11 6 -18l-13 -68c-1 -7 -5 -11 -14 -18l-260 -197c-3 -2 -5 -3 -7 -3c-3 0 -4 3 -4 7z" />
    <glyph glyph-name="fi" unicode="&#xfb01;" horiz-adv-x="646" 
d="M360 408h-144l-78 -398c-1 -7 -5 -10 -12 -10h-82c-7 0 -9 3 -8 10l78 398h-80c-7 0 -8 4 -8 10l14 74c1 7 5 10 12 10h80l10 53c19 100 87 155 176 155c47 0 78 -10 104 -22c5 -3 6 -5 6 -9c0 -2 0 -3 -1 -8l-14 -69c-1 -6 -4 -10 -9 -10c-3 0 -5 1 -7 2
c-30 16 -52 22 -76 22c-49 0 -71 -27 -80 -77l-7 -37h144c7 0 8 -4 8 -10l-14 -74c-2 -7 -5 -10 -12 -10zM387 10l93 482c1 7 5 10 12 10h82c7 0 8 -4 8 -10l-94 -482c-1 -7 -5 -10 -12 -10h-81c-7 0 -8 4 -8 10zM488 590l20 100c1 7 5 10 12 10h104c7 0 8 -4 8 -10
l-20 -100c-1 -7 -5 -10 -12 -10h-104c-7 0 -8 4 -8 10z" />
    <glyph glyph-name="fl" unicode="&#xfb02;" horiz-adv-x="635" 
d="M360 408h-144l-78 -398c-1 -7 -5 -10 -12 -10h-82c-7 0 -9 3 -8 10l78 398h-80c-7 0 -8 4 -8 10l14 74c1 7 5 10 12 10h80l10 53c19 100 87 155 176 155c47 0 78 -10 104 -22c5 -3 6 -5 6 -9c0 -2 0 -3 -1 -8l-14 -69c-1 -6 -4 -10 -9 -10c-3 0 -5 1 -7 2
c-30 16 -52 22 -76 22c-49 0 -71 -27 -80 -77l-7 -37h144c7 0 8 -4 8 -10l-14 -74c-2 -7 -5 -10 -12 -10zM387 10l133 680c1 7 5 10 12 10h82c7 0 8 -4 8 -10l-133 -680c-1 -7 -5 -10 -12 -10h-82c-7 0 -8 4 -8 10z" />
    <glyph glyph-name="endash" unicode="&#x2013;" horiz-adv-x="583" 
d="M84 391h434c7 0 8 -4 8 -10l-15 -78c-1 -7 -5 -10 -12 -10h-434c-7 0 -8 4 -8 10l15 78c1 7 5 10 12 10z" />
    <glyph glyph-name="dagger" unicode="&#x2020;" horiz-adv-x="483" 
d="M69 502h149l37 188c1 7 5 10 12 10h88c7 0 8 -4 8 -10l-37 -188h149c7 0 8 -4 8 -10l-15 -78c-1 -7 -5 -10 -12 -10h-149l-115 -592c-1 -7 -5 -10 -12 -10h-88c-7 0 -8 4 -8 10l115 592h-149c-7 0 -8 4 -8 10l15 78c1 7 5 10 12 10z" />
    <glyph glyph-name="daggerdbl" unicode="&#x2021;" horiz-adv-x="483" 
d="M378 0h-149l-37 -188c-1 -7 -5 -10 -12 -10h-88c-7 0 -8 4 -8 10l37 188h-148c-7 0 -8 4 -8 10l15 78c1 7 5 10 11 10h149l59 306h-149c-7 0 -8 4 -8 10l15 78c1 7 5 10 12 10h149l37 188c1 7 5 10 12 10h88c7 0 8 -4 8 -10l-37 -188h149c7 0 8 -4 8 -10l-15 -78
c-1 -7 -5 -10 -12 -10h-149l-59 -306h149c7 0 8 -4 8 -10l-15 -78c-1 -7 -5 -10 -12 -10z" />
    <glyph glyph-name="periodcentered" unicode="&#xb7;" horiz-adv-x="273" 
d="M101 414h92c7 0 8 -4 8 -10l-17 -92c-1 -7 -5 -10 -12 -10h-92c-7 0 -8 4 -8 10l17 92c1 7 5 10 12 10z" />
    <glyph glyph-name="paragraph" unicode="&#xb6;" horiz-adv-x="631" 
d="M300 700h363c7 0 8 -4 8 -10l-15 -80c-1 -7 -5 -10 -12 -10h-60l-134 -690c-1 -7 -5 -10 -12 -10h-88c-7 0 -8 4 -8 10l134 690h-71l-134 -690c-1 -7 -5 -10 -12 -10h-88c-7 0 -8 4 -8 10l79 410h-18c-111 0 -180 57 -180 165c0 141 114 215 256 215z" />
    <glyph glyph-name="bullet" unicode="&#x2022;" horiz-adv-x="381" 
d="M78 326c0 63 51 114 114 114s114 -51 114 -114s-51 -114 -114 -114s-114 51 -114 114z" />
    <glyph glyph-name="quotesinglbase" unicode="&#x201a;" horiz-adv-x="245" 
d="M0 -62c42 0 61 17 66 50l2 12h-47c-7 0 -9 4 -9 10l18 92c1 7 5 10 12 10h98c7 0 8 -4 8 -10l-23 -121c-12 -62 -45 -93 -107 -93h-27c-7 0 -8 4 -8 10l6 30c1 7 4 10 11 10z" />
    <glyph glyph-name="quotedblbase" unicode="&#x201e;" horiz-adv-x="395" 
d="M150 -62c42 0 61 17 66 50l2 12h-47c-7 0 -9 4 -9 10l18 92c1 7 5 10 12 10h98c7 0 8 -4 8 -10l-23 -121c-12 -62 -45 -93 -107 -93h-27c-7 0 -8 4 -8 10l6 30c1 7 4 10 11 10zM0 -62c42 0 61 17 66 50l2 12h-47c-7 0 -9 4 -9 10l18 92c1 7 5 10 12 10h98c7 0 8 -4 8 -10
l-23 -121c-12 -62 -45 -93 -107 -93h-27c-7 0 -8 4 -8 10l6 30c1 7 4 10 11 10z" />
    <glyph glyph-name="quotedblright" unicode="&#x201d;" horiz-adv-x="395" 
d="M250 526c42 0 61 17 66 50l2 12h-47c-7 0 -9 4 -9 10l18 92c1 7 5 10 12 10h98c7 0 8 -4 8 -10l-23 -121c-12 -62 -45 -93 -107 -93h-27c-7 0 -8 4 -8 10l6 30c1 7 4 10 11 10zM100 526c42 0 61 17 66 50l2 12h-47c-7 0 -9 4 -9 10l18 92c1 7 5 10 12 10h98
c7 0 8 -4 8 -10l-23 -121c-12 -62 -45 -93 -107 -93h-27c-7 0 -8 4 -8 10l6 30c1 7 4 10 11 10z" />
    <glyph glyph-name="guillemotright" unicode="&#xbb;" horiz-adv-x="571" 
d="M227 27l22 111c1 7 3 11 10 16l171 125l-122 133c-3 3 -5 6 -5 10c0 1 0 2 1 6l19 93c1 4 3 7 7 7c2 0 4 -1 6 -3l183 -201c5 -6 7 -11 6 -18l-13 -68c-1 -7 -5 -11 -14 -18l-260 -197c-3 -2 -5 -3 -7 -3c-3 0 -4 3 -4 7zM14 27l22 111c1 7 3 11 10 16l171 125l-122 133
c-3 3 -5 6 -5 10c0 1 0 2 1 6l19 93c1 4 3 7 7 7c2 0 4 -1 6 -3l183 -201c5 -6 7 -11 6 -18l-13 -68c-1 -7 -5 -11 -14 -18l-260 -197c-3 -2 -5 -3 -7 -3c-3 0 -4 3 -4 7z" />
    <glyph glyph-name="ellipsis" unicode="&#x2026;" horiz-adv-x="731" 
d="M47 112h92c7 0 8 -4 8 -10l-17 -92c-1 -7 -5 -10 -12 -10h-92c-7 0 -8 4 -8 10l17 92c1 7 5 10 12 10zM276 112h92c7 0 8 -4 8 -10l-17 -92c-1 -7 -5 -10 -12 -10h-92c-7 0 -8 4 -8 10l17 92c1 7 5 10 12 10zM505 112h92c7 0 8 -4 8 -10l-17 -92c-1 -7 -5 -10 -12 -10
h-92c-7 0 -8 4 -8 10l17 92c1 7 5 10 12 10z" />
    <glyph glyph-name="perthousand" unicode="&#x2030;" horiz-adv-x="1316" 
d="M424 552c0 -122 -90 -210 -205 -210c-92 0 -155 64 -155 148c0 122 90 210 205 210c92 0 155 -64 155 -148zM226 419c70 0 116 56 116 125c0 47 -38 79 -80 79c-70 0 -116 -56 -116 -125c0 -47 38 -79 80 -79zM784 210c0 -122 -90 -210 -205 -210c-92 0 -155 64 -155 148
c0 122 90 210 205 210c92 0 155 -64 155 -148zM586 77c70 0 116 56 116 125c0 47 -38 79 -80 79c-70 0 -116 -56 -116 -125c0 -47 38 -79 80 -79zM67 50l673 647c2 2 4 3 7 3s5 -1 7 -3l30 -33c3 -3 4 -5 4 -7s0 -3 -4 -7l-673 -647c-2 -2 -4 -3 -7 -3s-5 1 -7 3l-30 33
c-3 3 -4 5 -4 7s0 3 4 7zM1186 210c0 -122 -90 -210 -205 -210c-92 0 -155 64 -155 148c0 122 90 210 205 210c92 0 155 -64 155 -148zM988 77c70 0 116 56 116 125c0 47 -38 79 -80 79c-70 0 -116 -56 -116 -125c0 -47 38 -79 80 -79z" />
    <glyph glyph-name="questiondown" unicode="&#xbf;" horiz-adv-x="547" 
d="M439 -4c-20 -119 -117 -204 -252 -204c-128 0 -197 67 -197 163c0 171 200 177 228 319l5 25c1 7 5 10 12 10h84c7 0 7 -4 7 -10l-4 -25c-30 -187 -224 -186 -224 -306c0 -45 36 -76 97 -76c58 0 120 32 142 104c3 7 5 10 12 10h82c7 0 8 -4 8 -10zM341 382h-100
c-7 0 -8 4 -8 10l20 100c1 7 5 10 12 10h100c7 0 8 -4 8 -10l-20 -100c-1 -7 -5 -10 -12 -10z" />
    <glyph glyph-name="grave" unicode="`" horiz-adv-x="297" 
d="M217 690l44 -126c2 -5 -1 -10 -7 -10h-72c-9 0 -12 3 -16 9l-78 127c-3 5 0 10 7 10h109c7 0 10 -3 13 -10z" />
    <glyph glyph-name="acute" unicode="&#xb4;" horiz-adv-x="297" 
d="M75 564l93 126c5 7 10 10 17 10h112c6 0 8 -5 3 -10l-128 -127c-6 -6 -11 -9 -20 -9h-74c-5 0 -7 5 -3 10z" />
    <glyph glyph-name="circumflex" unicode="&#x2c6;" horiz-adv-x="373" 
d="M289 692l80 -134c3 -5 -1 -10 -7 -10h-74c-8 0 -12 3 -17 9l-42 53l-67 -53c-7 -6 -11 -9 -19 -9h-81c-6 0 -8 5 -3 10l132 134c6 6 9 8 16 8h68c7 0 10 -2 14 -8z" />
    <glyph glyph-name="tilde" unicode="&#x2dc;" horiz-adv-x="395" 
d="M66 664c39 28 84 46 120 46c75 0 72 -41 126 -41c21 0 37 5 66 24c3 2 5 2 8 2s5 -2 8 -8l27 -50c2 -4 2 -6 2 -8c0 -3 -1 -5 -5 -8c-39 -28 -84 -46 -120 -46c-75 0 -72 41 -126 41c-21 0 -37 -5 -66 -24c-3 -2 -5 -2 -8 -2s-5 2 -8 8l-27 50c-2 4 -2 6 -2 8
c0 3 1 5 5 8z" />
    <glyph glyph-name="macron" unicode="&#xaf;" horiz-adv-x="281" 
d="M76 596l13 70c1 7 5 10 12 10h200c7 0 8 -4 8 -10l-13 -70c-1 -7 -5 -10 -12 -10h-200c-7 0 -8 4 -8 10z" />
    <glyph glyph-name="breve" unicode="&#x2d8;" horiz-adv-x="324" 
d="M87 692h61c7 0 7 -4 7 -10v-11c0 -27 14 -42 42 -42c29 0 49 18 56 53c1 7 5 10 12 10h62c7 0 8 -3 8 -10c-15 -88 -68 -129 -148 -129c-68 0 -114 43 -114 107c0 7 1 15 2 22s5 10 12 10z" />
    <glyph glyph-name="dotaccent" unicode="&#x2d9;" horiz-adv-x="268" 
d="M122 590l20 100c1 7 5 10 12 10h104c7 0 8 -4 8 -10l-20 -100c-1 -7 -5 -10 -12 -10h-104c-7 0 -8 4 -8 10z" />
    <glyph glyph-name="dieresis" unicode="&#xa8;" horiz-adv-x="351" 
d="M76 596l19 94c1 7 5 10 12 10h94c7 0 8 -4 8 -10l-19 -94c-1 -7 -5 -10 -12 -10h-94c-7 0 -8 4 -8 10zM248 596l19 94c1 7 5 10 12 10h94c7 0 8 -4 8 -10l-19 -94c-1 -7 -5 -10 -12 -10h-94c-7 0 -8 4 -8 10z" />
    <glyph glyph-name="ring" unicode="&#x2da;" horiz-adv-x="281" 
d="M75 614c0 64 50 106 110 106c48 0 84 -29 84 -78c0 -64 -50 -106 -110 -106c-48 0 -84 29 -84 78zM177 666c-24 0 -43 -18 -43 -42c0 -21 11 -34 33 -34c24 0 43 18 43 42c0 21 -11 34 -33 34z" />
    <glyph glyph-name="cedilla" unicode="&#xb8;" horiz-adv-x="260" 
d="M-2 -111l-16 19c-2 2 -3 4 -3 6s1 4 2 6l53 108c4 7 6 10 12 10h56c7 0 10 -3 6 -10l-55 -85c15 4 37 7 53 7c48 0 77 -22 77 -66c0 -63 -58 -92 -128 -92c-49 0 -79 4 -102 10c-7 2 -9 4 -9 10l8 39c2 8 6 10 12 10c14 0 32 -13 88 -13c27 0 49 6 49 27
c0 14 -11 21 -32 21c-18 0 -39 -5 -56 -9c-4 -1 -5 -1 -7 -1c-4 0 -6 1 -8 3z" />
    <glyph glyph-name="hungarumlaut" unicode="&#x2dd;" horiz-adv-x="417" 
d="M67 564l93 126c5 7 10 10 17 10h112c7 0 8 -5 3 -10l-128 -127c-6 -6 -11 -9 -20 -9h-74c-6 0 -7 5 -3 10zM257 564l93 126c5 7 10 10 17 10h112c7 0 8 -5 3 -10l-128 -127c-6 -6 -11 -9 -20 -9h-74c-6 0 -7 5 -3 10z" />
    <glyph glyph-name="ogonek" unicode="&#x2db;" horiz-adv-x="206" 
d="M78 16l43 -9c3 -1 3 -2 3 -4s-3 -3 -3 -3c-32 -9 -63 -31 -63 -68c0 -25 17 -37 47 -37h16c7 0 9 -3 9 -10l-10 -50c-1 -7 -6 -10 -12 -10h-44c-61 0 -105 24 -105 85c0 48 46 88 98 105c4 1 8 2 10 2s5 0 11 -1z" />
    <glyph glyph-name="caron" unicode="&#x2c7;" horiz-adv-x="373" 
d="M170 556l-80 134c-3 5 1 10 7 10h74c8 0 12 -3 17 -9l42 -53l67 53c7 6 11 9 19 9h81c6 0 8 -5 3 -10l-132 -134c-6 -6 -9 -8 -16 -8h-68c-7 0 -10 2 -14 8z" />
    <glyph glyph-name="emdash" unicode="&#x2014;" horiz-adv-x="805" 
d="M84 391h656c7 0 8 -4 8 -10l-15 -78c-1 -7 -5 -10 -12 -10h-656c-7 0 -8 4 -8 10l15 78c1 7 5 10 12 10z" />
    <glyph glyph-name="AE" unicode="&#xc6;" horiz-adv-x="846" 
d="M462 318l-42 -218h332c7 0 8 -4 8 -10l-16 -80c-1 -7 -5 -10 -12 -10h-430c-7 0 -8 4 -8 10l36 183h-183l-109 -183c-4 -7 -6 -10 -14 -10h-88c-7 0 -9 2 -9 7c0 3 1 5 3 9l402 674c4 7 8 10 16 10h506c7 0 8 -4 8 -10l-16 -80c-1 -7 -5 -10 -12 -10h-317l-35 -182h287
c7 0 8 -4 8 -10l-16 -80c-1 -7 -5 -10 -12 -10h-287zM388 600l-182 -307h143l60 307h-21z" />
    <glyph glyph-name="ordfeminine" unicode="&#xaa;" horiz-adv-x="466" 
d="M456 693l-69 -359c-1 -5 -3 -7 -9 -7h-61c-5 0 -6 3 -6 7l4 21c-30 -24 -62 -35 -110 -35c-80 0 -147 53 -147 165c0 126 83 223 214 223c50 0 83 -18 105 -37l4 22c0 5 3 7 8 7h61c6 0 6 -3 6 -7zM226 389c74 0 129 66 129 152c0 59 -32 97 -89 97
c-77 0 -128 -69 -128 -151c0 -62 35 -98 88 -98z" />
    <glyph glyph-name="Lslash" unicode="&#x141;" horiz-adv-x="567" 
d="M52 10l43 221l-54 -26c-6 -3 -9 -1 -12 5l-29 61c-3 6 0 11 6 14l110 53l69 352c1 7 5 10 12 10h88c7 0 8 -4 8 -10l-57 -294l139 68c6 3 10 2 13 -5l30 -61c3 -6 0 -11 -6 -14l-197 -96l-37 -188h338c7 0 8 -4 8 -10l-16 -80c-1 -7 -5 -10 -12 -10h-436c-7 0 -8 4 -8 10
z" />
    <glyph glyph-name="Oslash" unicode="&#xd8;" horiz-adv-x="751" 
d="M314 -10c-56 0 -109 13 -153 39l-57 -72c-4 -5 -6 -6 -9 -6c-2 0 -3 0 -6 2l-32 25c-3 2 -4 4 -4 7c0 2 1 5 3 7l57 73c-52 50 -86 125 -86 222c0 221 155 423 409 423c56 0 109 -13 153 -39l57 72c4 5 6 6 9 6c2 0 3 0 6 -2l32 -25c3 -2 4 -4 4 -7c0 -2 -1 -4 -3 -7
l-57 -73c52 -50 86 -125 86 -222c0 -221 -155 -423 -409 -423zM327 90c172 0 284 157 284 308c0 65 -16 114 -44 149l-339 -432c28 -16 62 -25 99 -25zM139 302c0 -65 16 -114 44 -149l339 432c-28 16 -62 25 -99 25c-172 0 -284 -157 -284 -308z" />
    <glyph glyph-name="OE" unicode="&#x152;" horiz-adv-x="1095" 
d="M713 318l-42 -218h331c7 0 8 -4 8 -10l-16 -80c-1 -7 -5 -10 -12 -10h-429c-7 0 -8 4 -8 10l11 56c-65 -48 -146 -76 -242 -76c-159 0 -287 104 -287 297c0 221 155 423 409 423c92 0 174 -36 226 -103l16 83c1 7 5 10 12 10h414c7 0 8 -4 8 -10l-16 -80
c-1 -7 -5 -10 -12 -10h-316l-35 -182h286c7 0 8 -4 8 -10l-16 -80c-1 -7 -5 -10 -12 -10h-286zM327 90c172 0 284 157 284 308c0 144 -79 212 -188 212c-172 0 -284 -157 -284 -308c0 -144 79 -212 188 -212z" />
    <glyph glyph-name="ordmasculine" unicode="&#xba;" horiz-adv-x="467" 
d="M57 484c0 130 96 224 228 224c104 0 170 -71 170 -166c0 -130 -95 -223 -228 -223c-103 0 -170 70 -170 165zM278 637c-78 0 -140 -59 -140 -146c0 -65 36 -102 97 -102c78 0 140 59 140 146c0 65 -36 102 -97 102z" />
    <glyph glyph-name="ae" unicode="&#xe6;" horiz-adv-x="943" 
d="M609 84c65 0 107 22 143 75c5 8 8 9 15 9h87c5 0 6 -3 6 -7c0 -2 0 -3 -3 -10c-50 -112 -137 -161 -255 -161c-82 0 -151 34 -189 98c-48 -63 -122 -98 -216 -98c-95 0 -176 45 -176 151c0 115 105 181 225 181c66 0 100 -8 141 -21l4 18c2 9 3 18 3 26
c0 43 -27 77 -97 77c-45 0 -85 -22 -110 -64c-4 -8 -9 -9 -15 -9h-79c-9 0 -11 7 -9 13c30 91 110 150 226 150c82 0 136 -31 162 -80c53 49 124 80 208 80c144 0 212 -97 212 -214c0 -12 0 -28 -5 -50l-4 -19c-1 -7 -5 -10 -12 -10h-381c-1 -7 -1 -9 -1 -12
c0 -77 43 -123 120 -123zM370 211c-44 14 -72 21 -124 21c-56 0 -119 -24 -119 -84c0 -44 26 -64 76 -64c77 0 151 45 167 127zM669 418c-62 0 -130 -33 -165 -109h282c-3 72 -43 109 -117 109z" />
    <glyph glyph-name="dotlessi" unicode="&#x131;" horiz-adv-x="268" 
d="M21 10l93 482c1 7 5 10 12 10h82c7 0 8 -4 8 -10l-94 -482c-1 -7 -5 -10 -12 -10h-81c-7 0 -8 4 -8 10z" />
    <glyph glyph-name="lslash" unicode="&#x142;" horiz-adv-x="354" 
d="M56 10l48 248l-67 -32c-2 -1 -4 -1 -5 -1c-3 0 -5 2 -7 6l-31 60c-1 2 -1 4 -1 5c0 4 3 7 7 9l125 60l64 325c1 7 5 10 12 10h82c7 0 8 -4 8 -10l-53 -270l70 34c2 1 4 2 6 2c3 0 5 -2 7 -7l30 -61c1 -3 1 -4 1 -5c0 -4 -3 -7 -7 -9l-128 -62l-59 -302
c-1 -7 -5 -10 -12 -10h-82c-7 0 -8 4 -8 10z" />
    <glyph glyph-name="oslash" unicode="&#xf8;" horiz-adv-x="608" 
d="M22 212c0 174 128 300 306 300c41 0 78 -9 109 -24l45 58c4 5 6 6 9 6c2 0 4 -1 6 -2l32 -21c3 -2 4 -4 4 -7c0 -2 -1 -4 -3 -7l-45 -58c45 -40 71 -99 71 -167c0 -174 -128 -300 -306 -300c-41 0 -78 9 -109 24l-45 -58c-4 -5 -6 -6 -9 -6c-2 0 -4 1 -6 2l-32 21
c-3 2 -4 4 -4 7c0 2 1 4 3 7l45 58c-45 40 -71 99 -71 167zM448 281c0 39 -8 71 -27 94l-218 -281c17 -6 36 -10 57 -10c105 0 188 80 188 197zM318 418c-105 0 -188 -80 -188 -197c0 -39 8 -71 27 -94l218 281c-17 6 -36 10 -57 10z" />
    <glyph glyph-name="oe" unicode="&#x153;" horiz-adv-x="1011" 
d="M677 84c65 0 107 22 143 75c5 8 8 9 15 9h87c5 0 6 -3 6 -7c0 -2 0 -3 -3 -10c-50 -112 -137 -161 -255 -161c-82 0 -150 34 -188 98c-55 -61 -136 -98 -232 -98c-139 0 -228 95 -228 222c0 174 128 300 306 300c88 0 156 -39 194 -99c53 60 132 99 226 99
c144 0 212 -97 212 -214c0 -12 0 -28 -5 -50l-4 -19c-1 -7 -5 -10 -12 -10h-381c-1 -7 -1 -9 -1 -12c0 -77 43 -123 120 -123zM318 418c-105 0 -188 -80 -188 -197c0 -87 48 -137 130 -137c105 0 189 80 189 197c0 87 -49 137 -131 137zM737 418c-62 0 -130 -33 -165 -109
h282c-3 72 -43 109 -117 109z" />
    <glyph glyph-name="germandbls" unicode="&#xdf;" horiz-adv-x="607" 
d="M337 -10c-100 0 -161 65 -161 147c0 6 0 13 1 19c1 7 5 10 12 10h73c6 0 8 -3 8 -10c2 -46 29 -72 75 -72c57 0 92 34 92 92c0 83 -138 87 -138 191c0 87 125 105 125 181c0 41 -34 68 -82 68c-69 0 -110 -40 -126 -124l-94 -482c-1 -7 -5 -10 -12 -10h-82
c-7 0 -8 4 -8 10l78 398h-71c-7 0 -8 4 -8 10l14 74c1 7 5 10 12 10h71l5 23c26 121 111 185 230 185c103 0 172 -56 172 -146c0 -128 -118 -145 -118 -191c0 -49 140 -62 140 -194c0 -116 -88 -189 -208 -189z" />
    <glyph glyph-name="onesuperior" unicode="&#xb9;" horiz-adv-x="275" 
d="M117 336l53 273l-68 -34c-5 -2 -7 -3 -10 -3c-4 0 -6 3 -6 8l11 57c1 5 3 7 9 10l94 49c4 2 10 4 16 4h32c7 0 8 -4 8 -10l-69 -354c-1 -7 -5 -10 -12 -10h-50c-7 0 -8 4 -8 10z" />
    <glyph glyph-name="logicalnot" unicode="&#xac;" horiz-adv-x="545" 
d="M365 312h-316c-7 0 -8 4 -8 10l14 74c1 7 5 10 12 10h408c7 0 8 -4 8 -10l-41 -210c-1 -7 -5 -10 -12 -10h-82c-7 0 -8 4 -8 10z" />
    <glyph glyph-name="mu" unicode="&#xb5;" horiz-adv-x="589" 
d="M541 492l-93 -482c-1 -7 -5 -10 -12 -10h-82c-7 0 -8 4 -8 10l8 45c-47 -40 -99 -65 -172 -65c-27 0 -50 4 -69 12l-37 -190c-1 -7 -5 -10 -12 -10h-82c-7 0 -8 4 -8 10l133 680c1 7 5 10 12 10h82c7 0 8 -4 8 -10l-58 -298c-3 -13 -4 -24 -4 -35c0 -45 28 -75 81 -75
c71 0 143 57 165 171l46 237c1 7 5 10 12 10h82c7 0 8 -3 8 -10z" />
    <glyph glyph-name="trademark" unicode="&#x2122;" horiz-adv-x="703" 
d="M54 642l9 48c1 7 5 10 12 10h258c7 0 8 -4 8 -10l-9 -48c-1 -7 -5 -10 -12 -10h-94l-58 -296c-1 -7 -5 -10 -12 -10h-50c-7 0 -8 4 -8 10l58 296h-94c-7 0 -8 4 -8 10zM720 690l-69 -354c-1 -7 -5 -10 -12 -10h-50c-7 0 -8 4 -8 10l50 255l-112 -198c-3 -4 -5 -6 -12 -6
h-39c-4 0 -6 2 -7 6l-42 198l-50 -255c-1 -7 -5 -10 -12 -10h-50c-7 0 -8 4 -8 10l69 354c1 7 5 10 12 10h70c6 0 9 -2 10 -8l41 -211l120 211c3 6 8 8 14 8h77c7 0 8 -4 8 -10z" />
    <glyph glyph-name="Eth" unicode="&#xd0;" horiz-adv-x="690" 
d="M40 10l57 291h-75c-7 0 -8 4 -8 10l15 78c1 7 5 10 12 10h75l57 291c1 7 5 10 12 10h197c161 0 275 -91 275 -272c0 -239 -145 -428 -407 -428h-202c-7 0 -8 4 -8 10zM360 600h-97l-39 -201h141c7 0 8 -4 8 -10l-15 -78c-1 -7 -5 -10 -12 -10h-141l-39 -201h89
c190 0 290 140 290 302c0 143 -71 198 -185 198z" />
    <glyph glyph-name="onehalf" unicode="&#xbd;" horiz-adv-x="890" 
d="M54 50l673 647c2 2 4 3 7 3s5 -1 7 -3l30 -33c3 -3 4 -5 4 -7s0 -3 -4 -7l-673 -647c-2 -2 -4 -3 -7 -3s-5 1 -7 3l-30 33c-3 3 -4 5 -4 7s0 3 4 7zM116 336l53 273l-68 -34c-5 -2 -7 -3 -10 -3c-4 0 -6 3 -6 8l11 57c1 5 3 7 9 10l94 49c4 2 10 4 16 4h32
c7 0 8 -4 8 -10l-69 -354c-1 -7 -5 -10 -12 -10h-50c-7 0 -8 4 -8 10zM504 10l7 38c1 7 3 10 9 14l179 130c29 21 47 44 47 74c0 28 -18 46 -52 46c-33 0 -60 -24 -71 -55c-3 -7 -5 -10 -12 -10h-50c-7 0 -8 3 -8 10c11 68 67 123 146 123c76 0 119 -47 119 -102
s-27 -93 -78 -131l-106 -79h142c7 0 8 -3 8 -10l-9 -48c-1 -7 -5 -10 -12 -10h-251c-7 0 -8 4 -8 10z" />
    <glyph glyph-name="plusminus" unicode="&#xb1;" horiz-adv-x="592" 
d="M32 98h434c7 0 8 -4 8 -10l-15 -78c-1 -7 -5 -10 -12 -10h-434c-7 0 -8 4 -8 10l15 78c1 7 5 10 12 10zM392 582l-33 -168h166c7 0 8 -4 8 -10l-15 -78c-1 -7 -5 -10 -12 -10h-166l-33 -168c-1 -7 -5 -10 -12 -10h-82c-7 0 -8 4 -8 10l33 168h-166c-7 0 -8 4 -8 10l15 78
c1 7 5 10 12 10h166l33 168c1 7 5 10 12 10h82c7 0 8 -4 8 -10z" />
    <glyph glyph-name="Thorn" unicode="&#xde;" horiz-adv-x="631" 
d="M20 10l133 680c1 7 5 10 12 10h88c7 0 8 -4 8 -10l-28 -142h154c121 0 200 -65 200 -170c0 -146 -108 -226 -273 -226h-158l-28 -142c-1 -7 -5 -10 -12 -10h-88c-7 0 -9 3 -8 10zM213 448l-38 -196h161c84 0 139 39 139 106c0 64 -39 90 -101 90h-161z" />
    <glyph glyph-name="onequarter" unicode="&#xbc;" horiz-adv-x="846" 
d="M572 10l10 53h-161c-7 0 -8 4 -8 10l9 42c1 5 3 9 6 12l212 240c4 4 8 7 13 7h50c7 0 8 -4 8 -10l-45 -233h47c7 0 8 -4 8 -10l-10 -48c-1 -7 -5 -10 -12 -10h-47l-10 -53c-1 -7 -5 -10 -12 -10h-50c-7 0 -8 4 -8 10zM618 246l-101 -115h79zM116 336l53 273l-68 -34
c-5 -2 -7 -3 -10 -3c-4 0 -6 3 -6 8l11 57c1 5 3 7 9 10l94 49c4 2 10 4 16 4h32c7 0 8 -4 8 -10l-69 -354c-1 -7 -5 -10 -12 -10h-50c-7 0 -8 4 -8 10zM54 50l673 647c2 2 4 3 7 3s5 -1 7 -3l30 -33c3 -3 4 -5 4 -7s0 -3 -4 -7l-673 -647c-2 -2 -4 -3 -7 -3s-5 1 -7 3
l-30 33c-3 3 -4 5 -4 7s0 3 4 7z" />
    <glyph glyph-name="divide" unicode="&#xf7;" horiz-adv-x="583" 
d="M81 300h434c7 0 8 -4 8 -10l-15 -78c-1 -7 -5 -10 -12 -10h-434c-7 0 -8 4 -8 10l15 78c1 7 5 10 12 10zM210 116h96c7 0 8 -4 8 -10l-18 -96c-1 -7 -5 -10 -12 -10h-96c-7 0 -8 4 -8 10l18 96c1 7 5 10 12 10zM285 502h96c7 0 8 -4 8 -10l-18 -96c-1 -7 -5 -10 -12 -10
h-96c-7 0 -8 4 -8 10l18 96c1 7 5 10 12 10z" />
    <glyph glyph-name="brokenbar" unicode="&#xa6;" horiz-adv-x="306" 
d="M106 317l73 373c1 7 5 10 12 10h88c7 0 8 -4 8 -10l-73 -373c-1 -7 -5 -10 -12 -10h-88c-7 0 -8 4 -8 10zM9 -188l72 373c1 7 5 10 12 10h88c7 0 8 -4 8 -10l-73 -373c-1 -7 -5 -10 -12 -10h-87c-7 0 -8 4 -8 10z" />
    <glyph glyph-name="degree" unicode="&#xb0;" horiz-adv-x="428" 
d="M64 511c0 113 87 199 207 199c94 0 163 -60 163 -153c0 -113 -87 -199 -207 -199c-94 0 -163 60 -163 153zM263 628c-65 0 -107 -52 -107 -110c0 -48 30 -78 79 -78c65 0 107 52 107 110c0 48 -30 78 -79 78z" />
    <glyph glyph-name="thorn" unicode="&#xfe;" horiz-adv-x="619" 
d="M-14 -188l170 878c1 7 5 10 12 10h82c7 0 8 -4 8 -10l-44 -228c44 33 98 50 163 50c103 0 180 -73 180 -216c0 -156 -105 -306 -274 -306c-71 0 -119 26 -150 57l-45 -235c-1 -7 -5 -10 -12 -10h-82c-7 0 -8 4 -8 10zM335 418c-101 0 -175 -83 -175 -199
c0 -89 48 -135 117 -135c103 0 172 91 172 198c0 85 -41 136 -114 136z" />
    <glyph glyph-name="threequarters" unicode="&#xbe;" horiz-adv-x="879" 
d="M160 498l9 48c1 7 5 10 12 10h22c35 0 67 15 67 49c0 22 -16 37 -44 37c-24 0 -47 -12 -59 -41c-3 -6 -5 -8 -12 -8h-50c-6 0 -8 3 -8 9c15 65 70 104 136 104c70 0 108 -39 108 -93c0 -41 -24 -70 -58 -87c22 -12 42 -36 42 -78c0 -77 -55 -128 -143 -128
c-75 0 -123 49 -123 106c0 4 0 5 1 11c1 7 5 10 12 10h50c7 0 8 -3 8 -10c0 -33 25 -49 58 -49c37 0 63 21 63 56c0 29 -19 44 -51 44h-32c-7 0 -8 4 -8 10zM605 10l10 53h-161c-7 0 -8 4 -8 10l9 42c1 5 3 9 6 12l212 240c4 4 8 7 13 7h50c7 0 8 -4 8 -10l-45 -233h47
c7 0 8 -4 8 -10l-10 -48c-1 -7 -5 -10 -12 -10h-47l-10 -53c-1 -7 -5 -10 -12 -10h-50c-7 0 -8 4 -8 10zM651 246l-101 -115h79zM87 50l673 647c2 2 4 3 7 3s5 -1 7 -3l30 -33c3 -3 4 -5 4 -7s0 -3 -4 -7l-673 -647c-2 -2 -4 -3 -7 -3s-5 1 -7 3l-30 33c-3 3 -4 5 -4 7
s0 3 4 7z" />
    <glyph glyph-name="twosuperior" unicode="&#xb2;" horiz-adv-x="384" 
d="M53 336l7 38c1 7 3 10 9 14l179 130c29 21 47 44 47 74c0 28 -18 46 -52 46c-33 0 -60 -24 -71 -55c-3 -7 -5 -10 -12 -10h-50c-7 0 -8 3 -8 10c11 68 67 123 146 123c76 0 119 -47 119 -102s-27 -93 -78 -131l-106 -79h142c7 0 8 -3 8 -10l-9 -48c-1 -7 -5 -10 -12 -10
h-251c-7 0 -8 4 -8 10z" />
    <glyph glyph-name="registered" unicode="&#xae;" horiz-adv-x="800" 
d="M400 -10c-170 0 -348 129 -348 360s178 360 348 360s348 -129 348 -360s-178 -360 -348 -360zM400 32c148 0 300 106 300 318s-152 318 -300 318s-300 -106 -300 -318s152 -318 300 -318zM262 133v436c0 8 3 11 11 11h136c97 0 145 -53 145 -127c0 -63 -37 -107 -92 -123
l98 -197c2 -4 2 -5 2 -7c0 -3 -3 -4 -6 -4h-28c-8 0 -13 3 -16 9l-98 193h-104v-191c0 -8 -3 -11 -11 -11h-26c-8 0 -11 3 -11 11zM310 538v-172h106c65 0 90 33 90 87c0 53 -25 85 -90 85h-106z" />
    <glyph glyph-name="minus" unicode="&#x2212;" horiz-adv-x="583" 
d="M84 391h434c7 0 8 -4 8 -10l-15 -78c-1 -7 -5 -10 -12 -10h-434c-7 0 -8 4 -8 10l15 78c1 7 5 10 12 10z" />
    <glyph glyph-name="eth" unicode="&#xf0;" horiz-adv-x="597" 
d="M565 624l-79 -29c39 -52 59 -128 59 -223c0 -209 -109 -382 -304 -382c-124 0 -217 81 -217 222c0 173 119 300 273 300c68 0 110 -19 147 -45c-13 38 -31 69 -60 93l-109 -38c-8 -3 -10 -1 -12 5l-20 55c-2 7 2 11 9 13l38 13c-19 6 -40 10 -63 13c-6 1 -7 6 -5 14
l15 63c2 7 9 7 15 7c65 -7 122 -23 167 -51l121 44c7 3 10 1 12 -5l21 -56c3 -7 -2 -11 -8 -13zM297 418c-99 0 -165 -102 -165 -197c0 -90 41 -137 116 -137c98 0 178 95 178 196c0 88 -47 138 -129 138z" />
    <glyph glyph-name="multiply" unicode="&#xd7;" horiz-adv-x="493" 
d="M464 461l-142 -119l95 -119c2 -3 2 -5 2 -7s-1 -4 -4 -7l-61 -51c-3 -3 -5 -4 -7 -4s-4 1 -7 4l-97 120l-142 -124c-3 -3 -5 -4 -7 -4s-4 1 -7 4l-52 59c-3 3 -3 4 -3 6s1 5 5 8l148 126l-93 112c-2 3 -3 4 -3 6s2 5 5 8l62 51c4 3 6 4 8 4s4 -1 6 -4l92 -115l142 119
c3 3 6 4 8 4s3 -1 6 -4l48 -59c2 -2 3 -4 3 -6s-1 -5 -5 -8z" />
    <glyph glyph-name="threesuperior" unicode="&#xb3;" horiz-adv-x="376" 
d="M160 498l9 48c1 7 5 10 12 10h22c35 0 67 15 67 49c0 22 -16 37 -44 37c-24 0 -47 -12 -59 -41c-3 -6 -5 -8 -12 -8h-50c-6 0 -8 3 -8 9c15 65 70 104 136 104c70 0 108 -39 108 -93c0 -41 -24 -70 -58 -87c22 -12 42 -36 42 -78c0 -77 -55 -128 -143 -128
c-75 0 -123 49 -123 106c0 4 0 5 1 11c1 7 5 10 12 10h50c7 0 8 -3 8 -10c0 -33 25 -49 58 -49c37 0 63 21 63 56c0 29 -19 44 -51 44h-32c-7 0 -8 4 -8 10z" />
    <glyph glyph-name="copyright" unicode="&#xa9;" horiz-adv-x="800" 
d="M400 -10c-170 0 -348 129 -348 360s178 360 348 360s348 -129 348 -360s-178 -360 -348 -360zM400 32c148 0 300 106 300 318s-152 318 -300 318s-300 -106 -300 -318s152 -318 300 -318zM563 276h24c8 0 11 -3 11 -10c-17 -91 -96 -149 -198 -149
c-104 0 -210 77 -210 233s106 233 210 233c102 0 181 -58 198 -149c0 -7 -3 -10 -11 -10h-24c-8 0 -12 3 -14 10c-15 62 -68 107 -149 107c-83 0 -162 -67 -162 -191s79 -191 162 -191c81 0 134 45 149 107c2 7 6 10 14 10z" />
    <glyph glyph-name="Aacute" unicode="&#xc1;" horiz-adv-x="613" 
d="M443 10l-30 183h-269l-101 -183c-4 -7 -6 -10 -14 -10h-92c-7 0 -9 4 -9 8c0 3 1 5 3 8l376 674c4 7 6 10 13 10h102c7 0 10 -3 11 -10l115 -674c0 -11 -4 -16 -14 -16h-81c-6 0 -9 3 -10 10zM352 567l-152 -274h197zM339 762l93 126c5 7 10 10 17 10h112c6 0 8 -5 3 -10
l-128 -127c-6 -6 -11 -9 -20 -9h-74c-5 0 -7 5 -3 10z" />
    <glyph glyph-name="Acircumflex" unicode="&#xc2;" horiz-adv-x="613" 
d="M443 10l-30 183h-269l-101 -183c-4 -7 -6 -10 -14 -10h-92c-7 0 -9 4 -9 8c0 3 1 5 3 8l376 674c4 7 6 10 13 10h102c7 0 10 -3 11 -10l115 -674c0 -11 -4 -16 -14 -16h-81c-6 0 -9 3 -10 10zM352 567l-152 -274h197zM455 890l80 -134c3 -5 -1 -10 -7 -10h-74
c-8 0 -12 3 -17 9l-42 53l-67 -53c-7 -6 -11 -9 -19 -9h-81c-6 0 -8 5 -3 10l132 134c6 6 9 8 16 8h68c7 0 10 -2 14 -8z" />
    <glyph glyph-name="Adieresis" unicode="&#xc4;" horiz-adv-x="613" 
d="M443 10l-30 183h-269l-101 -183c-4 -7 -6 -10 -14 -10h-92c-7 0 -9 4 -9 8c0 3 1 5 3 8l376 674c4 7 6 10 13 10h102c7 0 10 -3 11 -10l115 -674c0 -11 -4 -16 -14 -16h-81c-6 0 -9 3 -10 10zM352 567l-152 -274h197zM246 794l19 94c1 7 5 10 12 10h94c7 0 8 -4 8 -10
l-19 -94c-1 -7 -5 -10 -12 -10h-94c-7 0 -8 4 -8 10zM418 794l19 94c1 7 5 10 12 10h94c7 0 8 -4 8 -10l-19 -94c-1 -7 -5 -10 -12 -10h-94c-7 0 -8 4 -8 10z" />
    <glyph glyph-name="Agrave" unicode="&#xc0;" horiz-adv-x="613" 
d="M443 10l-30 183h-269l-101 -183c-4 -7 -6 -10 -14 -10h-92c-7 0 -9 4 -9 8c0 3 1 5 3 8l376 674c4 7 6 10 13 10h102c7 0 10 -3 11 -10l115 -674c0 -11 -4 -16 -14 -16h-81c-6 0 -9 3 -10 10zM352 567l-152 -274h197zM375 888l44 -126c2 -5 -1 -10 -7 -10h-72
c-9 0 -12 3 -16 9l-78 127c-3 5 0 10 7 10h109c7 0 10 -3 13 -10z" />
    <glyph glyph-name="Aring" unicode="&#xc5;" horiz-adv-x="613" 
d="M443 10l-30 183h-269l-101 -183c-4 -7 -6 -10 -14 -10h-92c-7 0 -9 4 -9 8c0 3 1 5 3 8l376 674c4 7 6 10 13 10h102c7 0 10 -3 11 -10l115 -674c0 -11 -4 -16 -14 -16h-81c-6 0 -9 3 -10 10zM352 567l-152 -274h197zM309 812c0 64 50 106 110 106c48 0 84 -29 84 -78
c0 -64 -50 -106 -110 -106c-48 0 -84 29 -84 78zM411 864c-24 0 -43 -18 -43 -42c0 -21 11 -34 33 -34c24 0 43 18 43 42c0 21 -11 34 -33 34z" />
    <glyph glyph-name="Atilde" unicode="&#xc3;" horiz-adv-x="613" 
d="M443 10l-30 183h-269l-101 -183c-4 -7 -6 -10 -14 -10h-92c-7 0 -9 4 -9 8c0 3 1 5 3 8l376 674c4 7 6 10 13 10h102c7 0 10 -3 11 -10l115 -674c0 -11 -4 -16 -14 -16h-81c-6 0 -9 3 -10 10zM352 567l-152 -274h197zM217 862c39 28 84 46 120 46c75 0 72 -41 126 -41
c21 0 37 5 66 24c3 2 5 2 8 2s5 -2 8 -8l27 -50c2 -4 2 -6 2 -8c0 -3 -1 -5 -5 -8c-39 -28 -84 -46 -120 -46c-75 0 -72 41 -126 41c-21 0 -37 -5 -66 -24c-3 -2 -5 -2 -8 -2s-5 2 -8 8l-27 50c-2 4 -2 6 -2 8c0 3 1 5 5 8z" />
    <glyph glyph-name="Ccedilla" unicode="&#xc7;" horiz-adv-x="690" 
d="M236 -111l-16 19c-2 2 -3 4 -3 6s1 4 2 6l36 74c-130 19 -225 121 -225 289c0 219 146 427 394 427c156 0 263 -89 263 -247c0 -8 -4 -10 -12 -10h-84c-6 0 -10 3 -11 10c-13 95 -71 147 -172 147c-159 0 -266 -157 -266 -316c0 -140 72 -204 177 -204
c97 0 166 46 214 147c3 7 7 10 13 10h86c8 0 10 -3 10 -10c-43 -152 -165 -240 -321 -247l-30 -47c15 4 37 7 53 7c48 0 77 -22 77 -66c0 -63 -58 -92 -128 -92c-49 0 -79 4 -102 10c-7 2 -9 4 -9 10l8 39c2 8 6 10 12 10c14 0 32 -13 88 -13c27 0 49 6 49 27
c0 14 -11 21 -32 21c-18 0 -39 -5 -56 -9c-4 -1 -5 -1 -7 -1c-4 0 -6 1 -8 3z" />
    <glyph glyph-name="Eacute" unicode="&#xc9;" horiz-adv-x="569" 
d="M188 318l-42 -218h330c7 0 9 -4 9 -10l-16 -80c-1 -7 -5 -10 -12 -10h-429c-7 0 -8 4 -8 10l133 680c1 7 5 10 12 10h413c7 0 9 -4 9 -10l-16 -80c-1 -7 -5 -10 -12 -10h-316l-35 -182h285c7 0 9 -4 9 -10l-16 -80c-1 -7 -5 -10 -12 -10h-286zM291 762l93 126
c5 7 10 10 17 10h112c6 0 8 -5 3 -10l-128 -127c-6 -6 -11 -9 -20 -9h-74c-5 0 -7 5 -3 10z" />
    <glyph glyph-name="Ecircumflex" unicode="&#xca;" horiz-adv-x="569" 
d="M188 318l-42 -218h330c7 0 9 -4 9 -10l-16 -80c-1 -7 -5 -10 -12 -10h-429c-7 0 -8 4 -8 10l133 680c1 7 5 10 12 10h413c7 0 9 -4 9 -10l-16 -80c-1 -7 -5 -10 -12 -10h-316l-35 -182h285c7 0 9 -4 9 -10l-16 -80c-1 -7 -5 -10 -12 -10h-286zM455 890l80 -134
c3 -5 -1 -10 -7 -10h-74c-8 0 -12 3 -17 9l-42 53l-67 -53c-7 -6 -11 -9 -19 -9h-81c-6 0 -8 5 -3 10l132 134c6 6 9 8 16 8h68c7 0 10 -2 14 -8z" />
    <glyph glyph-name="Edieresis" unicode="&#xcb;" horiz-adv-x="569" 
d="M188 318l-42 -218h330c7 0 9 -4 9 -10l-16 -80c-1 -7 -5 -10 -12 -10h-429c-7 0 -8 4 -8 10l133 680c1 7 5 10 12 10h413c7 0 9 -4 9 -10l-16 -80c-1 -7 -5 -10 -12 -10h-316l-35 -182h285c7 0 9 -4 9 -10l-16 -80c-1 -7 -5 -10 -12 -10h-286zM237 794l19 94
c1 7 5 10 12 10h94c7 0 8 -4 8 -10l-19 -94c-1 -7 -5 -10 -12 -10h-94c-7 0 -8 4 -8 10zM409 794l19 94c1 7 5 10 12 10h94c7 0 8 -4 8 -10l-19 -94c-1 -7 -5 -10 -12 -10h-94c-7 0 -8 4 -8 10z" />
    <glyph glyph-name="Egrave" unicode="&#xc8;" horiz-adv-x="569" 
d="M188 318l-42 -218h330c7 0 9 -4 9 -10l-16 -80c-1 -7 -5 -10 -12 -10h-429c-7 0 -8 4 -8 10l133 680c1 7 5 10 12 10h413c7 0 9 -4 9 -10l-16 -80c-1 -7 -5 -10 -12 -10h-316l-35 -182h285c7 0 9 -4 9 -10l-16 -80c-1 -7 -5 -10 -12 -10h-286zM402 888l44 -126
c2 -5 -1 -10 -7 -10h-72c-9 0 -12 3 -16 9l-78 127c-3 5 0 10 7 10h109c7 0 10 -3 13 -10z" />
    <glyph glyph-name="Iacute" unicode="&#xcd;" horiz-adv-x="277" 
d="M18 10l133 680c1 7 5 10 12 10h88c7 0 8 -4 8 -10l-133 -680c-1 -7 -5 -10 -12 -10h-88c-7 0 -8 4 -8 10zM167 762l93 126c5 7 10 10 17 10h112c6 0 8 -5 3 -10l-128 -127c-6 -6 -11 -9 -20 -9h-74c-5 0 -7 5 -3 10z" />
    <glyph glyph-name="Icircumflex" unicode="&#xce;" horiz-adv-x="277" 
d="M18 10l133 680c1 7 5 10 12 10h88c7 0 8 -4 8 -10l-133 -680c-1 -7 -5 -10 -12 -10h-88c-7 0 -8 4 -8 10zM291 890l80 -134c3 -5 -1 -10 -7 -10h-74c-8 0 -12 3 -17 9l-42 53l-67 -53c-7 -6 -11 -9 -19 -9h-81c-6 0 -8 5 -3 10l132 134c6 6 9 8 16 8h68c7 0 10 -2 14 -8z
" />
    <glyph glyph-name="Idieresis" unicode="&#xcf;" horiz-adv-x="277" 
d="M18 10l133 680c1 7 5 10 12 10h88c7 0 8 -4 8 -10l-133 -680c-1 -7 -5 -10 -12 -10h-88c-7 0 -8 4 -8 10zM79 794l19 94c1 7 5 10 12 10h94c7 0 8 -4 8 -10l-19 -94c-1 -7 -5 -10 -12 -10h-94c-7 0 -8 4 -8 10zM251 794l19 94c1 7 5 10 12 10h94c7 0 8 -4 8 -10l-19 -94
c-1 -7 -5 -10 -12 -10h-94c-7 0 -8 4 -8 10z" />
    <glyph glyph-name="Igrave" unicode="&#xcc;" horiz-adv-x="277" 
d="M18 10l133 680c1 7 5 10 12 10h88c7 0 8 -4 8 -10l-133 -680c-1 -7 -5 -10 -12 -10h-88c-7 0 -8 4 -8 10zM224 888l44 -126c2 -5 -1 -10 -7 -10h-72c-9 0 -12 3 -16 9l-78 127c-3 5 0 10 7 10h109c7 0 10 -3 13 -10z" />
    <glyph glyph-name="Ntilde" unicode="&#xd1;" horiz-adv-x="717" 
d="M552 0h-91c-7 0 -11 1 -14 8l-218 514l-101 -512c-1 -7 -5 -10 -12 -10h-88c-7 0 -8 4 -8 10l133 680c2 8 5 10 12 10h91c7 0 11 -1 14 -8l218 -514l101 512c1 7 5 10 12 10h88c7 0 8 -4 8 -10l-133 -680c-1 -7 -5 -10 -12 -10zM266 862c39 28 84 46 120 46
c75 0 72 -41 126 -41c21 0 37 5 66 24c3 2 5 2 8 2s5 -2 8 -8l27 -50c2 -4 2 -6 2 -8c0 -3 -1 -5 -5 -8c-39 -28 -84 -46 -120 -46c-75 0 -72 41 -126 41c-21 0 -37 -5 -66 -24c-3 -2 -5 -2 -8 -2s-5 2 -8 8l-27 50c-2 4 -2 6 -2 8c0 3 1 5 5 8z" />
    <glyph glyph-name="Oacute" unicode="&#xd3;" horiz-adv-x="751" 
d="M314 -10c-159 0 -287 104 -287 297c0 221 155 423 409 423c159 0 287 -104 287 -297c0 -221 -155 -423 -409 -423zM327 90c172 0 284 157 284 308c0 144 -79 212 -188 212c-172 0 -284 -157 -284 -308c0 -144 79 -212 188 -212zM370 762l93 126c5 7 10 10 17 10h112
c6 0 8 -5 3 -10l-128 -127c-6 -6 -11 -9 -20 -9h-74c-5 0 -7 5 -3 10z" />
    <glyph glyph-name="Ocircumflex" unicode="&#xd4;" horiz-adv-x="751" 
d="M314 -10c-159 0 -287 104 -287 297c0 221 155 423 409 423c159 0 287 -104 287 -297c0 -221 -155 -423 -409 -423zM327 90c172 0 284 157 284 308c0 144 -79 212 -188 212c-172 0 -284 -157 -284 -308c0 -144 79 -212 188 -212zM512 890l80 -134c3 -5 -1 -10 -7 -10h-74
c-8 0 -12 3 -17 9l-42 53l-67 -53c-7 -6 -11 -9 -19 -9h-81c-6 0 -8 5 -3 10l132 134c6 6 9 8 16 8h68c7 0 10 -2 14 -8z" />
    <glyph glyph-name="Odieresis" unicode="&#xd6;" horiz-adv-x="751" 
d="M314 -10c-159 0 -287 104 -287 297c0 221 155 423 409 423c159 0 287 -104 287 -297c0 -221 -155 -423 -409 -423zM327 90c172 0 284 157 284 308c0 144 -79 212 -188 212c-172 0 -284 -157 -284 -308c0 -144 79 -212 188 -212zM313 794l19 94c1 7 5 10 12 10h94
c7 0 8 -4 8 -10l-19 -94c-1 -7 -5 -10 -12 -10h-94c-7 0 -8 4 -8 10zM485 794l19 94c1 7 5 10 12 10h94c7 0 8 -4 8 -10l-19 -94c-1 -7 -5 -10 -12 -10h-94c-7 0 -8 4 -8 10z" />
    <glyph glyph-name="Ograve" unicode="&#xd2;" horiz-adv-x="751" 
d="M314 -10c-159 0 -287 104 -287 297c0 221 155 423 409 423c159 0 287 -104 287 -297c0 -221 -155 -423 -409 -423zM327 90c172 0 284 157 284 308c0 144 -79 212 -188 212c-172 0 -284 -157 -284 -308c0 -144 79 -212 188 -212zM461 888l44 -126c2 -5 -1 -10 -7 -10h-72
c-9 0 -12 3 -16 9l-78 127c-3 5 0 10 7 10h109c7 0 10 -3 13 -10z" />
    <glyph glyph-name="Otilde" unicode="&#xd5;" horiz-adv-x="751" 
d="M314 -10c-159 0 -287 104 -287 297c0 221 155 423 409 423c159 0 287 -104 287 -297c0 -221 -155 -423 -409 -423zM327 90c172 0 284 157 284 308c0 144 -79 212 -188 212c-172 0 -284 -157 -284 -308c0 -144 79 -212 188 -212zM297 862c39 28 84 46 120 46
c75 0 72 -41 126 -41c21 0 37 5 66 24c3 2 5 2 8 2s5 -2 8 -8l27 -50c2 -4 2 -6 2 -8c0 -3 -1 -5 -5 -8c-39 -28 -84 -46 -120 -46c-75 0 -72 41 -126 41c-21 0 -37 -5 -66 -24c-3 -2 -5 -2 -8 -2s-5 2 -8 8l-27 50c-2 4 -2 6 -2 8c0 3 1 5 5 8z" />
    <glyph glyph-name="Scaron" unicode="&#x160;" horiz-adv-x="589" 
d="M76 502c0 136 126 208 265 208c144 0 224 -82 224 -189v-12c-1 -7 -5 -10 -12 -10h-86c-7 0 -8 3 -8 10c0 62 -53 101 -133 101c-63 0 -144 -27 -144 -97c0 -63 68 -86 155 -112c100 -30 196 -73 196 -175c0 -157 -120 -236 -282 -236c-149 0 -243 86 -243 201
c0 9 1 18 2 27c1 7 5 10 12 10h86c7 0 8 -3 8 -10c0 -78 36 -128 142 -128c83 0 167 34 167 117c0 52 -56 81 -150 107c-128 35 -199 84 -199 188zM312 754l-80 134c-3 5 1 10 7 10h74c8 0 12 -3 17 -9l42 -53l67 53c7 6 11 9 19 9h81c6 0 8 -5 3 -10l-132 -134
c-6 -6 -9 -8 -16 -8h-68c-7 0 -10 2 -14 8z" />
    <glyph glyph-name="Uacute" unicode="&#xda;" horiz-adv-x="659" 
d="M57 267l82 423c1 7 5 10 12 10h88c7 0 8 -4 8 -10l-84 -428c-4 -18 -5 -36 -5 -51c0 -81 47 -121 124 -121c94 0 161 63 182 172l84 428c1 7 5 10 12 10h88c7 0 8 -4 8 -10l-85 -434c-36 -182 -144 -266 -298 -266c-134 0 -221 77 -221 225c0 17 2 34 5 52zM331 762
l93 126c5 7 10 10 17 10h112c6 0 8 -5 3 -10l-128 -127c-6 -6 -11 -9 -20 -9h-74c-5 0 -7 5 -3 10z" />
    <glyph glyph-name="Ucircumflex" unicode="&#xdb;" horiz-adv-x="659" 
d="M57 267l82 423c1 7 5 10 12 10h88c7 0 8 -4 8 -10l-84 -428c-4 -18 -5 -36 -5 -51c0 -81 47 -121 124 -121c94 0 161 63 182 172l84 428c1 7 5 10 12 10h88c7 0 8 -4 8 -10l-85 -434c-36 -182 -144 -266 -298 -266c-134 0 -221 77 -221 225c0 17 2 34 5 52zM483 890
l80 -134c3 -5 -1 -10 -7 -10h-74c-8 0 -12 3 -17 9l-42 53l-67 -53c-7 -6 -11 -9 -19 -9h-81c-6 0 -8 5 -3 10l132 134c6 6 9 8 16 8h68c7 0 10 -2 14 -8z" />
    <glyph glyph-name="Udieresis" unicode="&#xdc;" horiz-adv-x="659" 
d="M57 267l82 423c1 7 5 10 12 10h88c7 0 8 -4 8 -10l-84 -428c-4 -18 -5 -36 -5 -51c0 -81 47 -121 124 -121c94 0 161 63 182 172l84 428c1 7 5 10 12 10h88c7 0 8 -4 8 -10l-85 -434c-36 -182 -144 -266 -298 -266c-134 0 -221 77 -221 225c0 17 2 34 5 52zM270 794
l19 94c1 7 5 10 12 10h94c7 0 8 -4 8 -10l-19 -94c-1 -7 -5 -10 -12 -10h-94c-7 0 -8 4 -8 10zM442 794l19 94c1 7 5 10 12 10h94c7 0 8 -4 8 -10l-19 -94c-1 -7 -5 -10 -12 -10h-94c-7 0 -8 4 -8 10z" />
    <glyph glyph-name="Ugrave" unicode="&#xd9;" horiz-adv-x="659" 
d="M57 267l82 423c1 7 5 10 12 10h88c7 0 8 -4 8 -10l-84 -428c-4 -18 -5 -36 -5 -51c0 -81 47 -121 124 -121c94 0 161 63 182 172l84 428c1 7 5 10 12 10h88c7 0 8 -4 8 -10l-85 -434c-36 -182 -144 -266 -298 -266c-134 0 -221 77 -221 225c0 17 2 34 5 52zM424 888
l44 -126c2 -5 -1 -10 -7 -10h-72c-9 0 -12 3 -16 9l-78 127c-3 5 0 10 7 10h109c7 0 10 -3 13 -10z" />
    <glyph glyph-name="Yacute" unicode="&#xdd;" horiz-adv-x="528" 
d="M592 690l-300 -438l-47 -242c-1 -7 -5 -10 -12 -10h-88c-7 0 -8 4 -8 10l47 242l-131 438c0 7 4 10 9 10h95c7 0 10 -3 11 -8l89 -320l216 320c3 5 6 8 13 8h102c5 0 8 -4 4 -10zM250 762l93 126c5 7 10 10 17 10h112c6 0 8 -5 3 -10l-128 -127c-6 -6 -11 -9 -20 -9h-74
c-5 0 -7 5 -3 10z" />
    <glyph glyph-name="Ydieresis" unicode="&#x178;" horiz-adv-x="528" 
d="M592 690l-300 -438l-47 -242c-1 -7 -5 -10 -12 -10h-88c-7 0 -8 4 -8 10l47 242l-131 438c0 7 4 10 9 10h95c7 0 10 -3 11 -8l89 -320l216 320c3 5 6 8 13 8h102c5 0 8 -4 4 -10zM188 794l19 94c1 7 5 10 12 10h94c7 0 8 -4 8 -10l-19 -94c-1 -7 -5 -10 -12 -10h-94
c-7 0 -8 4 -8 10zM360 794l19 94c1 7 5 10 12 10h94c7 0 8 -4 8 -10l-19 -94c-1 -7 -5 -10 -12 -10h-94c-7 0 -8 4 -8 10z" />
    <glyph glyph-name="Zcaron" unicode="&#x17d;" horiz-adv-x="601" 
d="M107 610l16 80c1 7 5 10 12 10h461c7 0 8 -4 8 -10l-16 -80c-1 -7 -4 -11 -9 -17l-457 -493h381c7 0 8 -4 8 -10l-16 -80c-1 -7 -5 -10 -12 -10h-501c-7 0 -8 4 -8 10l16 80c1 7 4 11 9 17l460 493h-344c-7 0 -8 4 -8 10zM311 754l-80 134c-3 5 1 10 7 10h74
c8 0 12 -3 17 -9l42 -53l67 53c7 6 11 9 19 9h81c6 0 8 -5 3 -10l-132 -134c-6 -6 -9 -8 -16 -8h-68c-7 0 -10 2 -14 8z" />
    <glyph glyph-name="aacute" unicode="&#xe1;" horiz-adv-x="605" 
d="M556 492l-93 -482c-1 -7 -5 -10 -12 -10h-82c-7 0 -8 4 -8 10l5 27c-41 -32 -84 -47 -148 -47c-108 0 -198 72 -198 223c0 169 112 299 288 299c67 0 112 -23 141 -49l5 29c1 7 5 10 12 10h82c7 0 8 -4 8 -10zM246 84c100 0 174 88 174 204c0 79 -43 130 -120 130
c-104 0 -172 -92 -172 -203c0 -83 47 -131 118 -131zM231 564l93 126c5 7 10 10 17 10h112c6 0 8 -5 3 -10l-128 -127c-6 -6 -11 -9 -20 -9h-74c-5 0 -7 5 -3 10z" />
    <glyph glyph-name="acircumflex" unicode="&#xe2;" horiz-adv-x="605" 
d="M556 492l-93 -482c-1 -7 -5 -10 -12 -10h-82c-7 0 -8 4 -8 10l5 27c-41 -32 -84 -47 -148 -47c-108 0 -198 72 -198 223c0 169 112 299 288 299c67 0 112 -23 141 -49l5 29c1 7 5 10 12 10h82c7 0 8 -4 8 -10zM246 84c100 0 174 88 174 204c0 79 -43 130 -120 130
c-104 0 -172 -92 -172 -203c0 -83 47 -131 118 -131zM404 692l80 -134c3 -5 -1 -10 -7 -10h-74c-8 0 -12 3 -17 9l-42 53l-67 -53c-7 -6 -11 -9 -19 -9h-81c-6 0 -8 5 -3 10l132 134c6 6 9 8 16 8h68c7 0 10 -2 14 -8z" />
    <glyph glyph-name="adieresis" unicode="&#xe4;" horiz-adv-x="605" 
d="M556 492l-93 -482c-1 -7 -5 -10 -12 -10h-82c-7 0 -8 4 -8 10l5 27c-41 -32 -84 -47 -148 -47c-108 0 -198 72 -198 223c0 169 112 299 288 299c67 0 112 -23 141 -49l5 29c1 7 5 10 12 10h82c7 0 8 -4 8 -10zM246 84c100 0 174 88 174 204c0 79 -43 130 -120 130
c-104 0 -172 -92 -172 -203c0 -83 47 -131 118 -131zM200 596l19 94c1 7 5 10 12 10h94c7 0 8 -4 8 -10l-19 -94c-1 -7 -5 -10 -12 -10h-94c-7 0 -8 4 -8 10zM372 596l19 94c1 7 5 10 12 10h94c7 0 8 -4 8 -10l-19 -94c-1 -7 -5 -10 -12 -10h-94c-7 0 -8 4 -8 10z" />
    <glyph glyph-name="agrave" unicode="&#xe0;" horiz-adv-x="605" 
d="M556 492l-93 -482c-1 -7 -5 -10 -12 -10h-82c-7 0 -8 4 -8 10l5 27c-41 -32 -84 -47 -148 -47c-108 0 -198 72 -198 223c0 169 112 299 288 299c67 0 112 -23 141 -49l5 29c1 7 5 10 12 10h82c7 0 8 -4 8 -10zM246 84c100 0 174 88 174 204c0 79 -43 130 -120 130
c-104 0 -172 -92 -172 -203c0 -83 47 -131 118 -131zM353 690l44 -126c2 -5 -1 -10 -7 -10h-72c-9 0 -12 3 -16 9l-78 127c-3 5 0 10 7 10h109c7 0 10 -3 13 -10z" />
    <glyph glyph-name="aring" unicode="&#xe5;" horiz-adv-x="605" 
d="M556 492l-93 -482c-1 -7 -5 -10 -12 -10h-82c-7 0 -8 4 -8 10l5 27c-41 -32 -84 -47 -148 -47c-108 0 -198 72 -198 223c0 169 112 299 288 299c67 0 112 -23 141 -49l5 29c1 7 5 10 12 10h82c7 0 8 -4 8 -10zM246 84c100 0 174 88 174 204c0 79 -43 130 -120 130
c-104 0 -172 -92 -172 -203c0 -83 47 -131 118 -131zM252 614c0 64 50 106 110 106c48 0 84 -29 84 -78c0 -64 -50 -106 -110 -106c-48 0 -84 29 -84 78zM354 666c-24 0 -43 -18 -43 -42c0 -21 11 -34 33 -34c24 0 43 18 43 42c0 21 -11 34 -33 34z" />
    <glyph glyph-name="atilde" unicode="&#xe3;" horiz-adv-x="605" 
d="M556 492l-93 -482c-1 -7 -5 -10 -12 -10h-82c-7 0 -8 4 -8 10l5 27c-41 -32 -84 -47 -148 -47c-108 0 -198 72 -198 223c0 169 112 299 288 299c67 0 112 -23 141 -49l5 29c1 7 5 10 12 10h82c7 0 8 -4 8 -10zM246 84c100 0 174 88 174 204c0 79 -43 130 -120 130
c-104 0 -172 -92 -172 -203c0 -83 47 -131 118 -131zM168 664c39 28 84 46 120 46c75 0 72 -41 126 -41c21 0 37 5 66 24c3 2 5 2 8 2s5 -2 8 -8l27 -50c2 -4 2 -6 2 -8c0 -3 -1 -5 -5 -8c-39 -28 -84 -46 -120 -46c-75 0 -72 41 -126 41c-21 0 -37 -5 -66 -24
c-3 -2 -5 -2 -8 -2s-5 2 -8 8l-27 50c-2 4 -2 6 -2 8c0 3 1 5 5 8z" />
    <glyph glyph-name="ccedilla" unicode="&#xe7;" horiz-adv-x="561" 
d="M158 -111l-16 19c-2 2 -3 4 -3 6s1 4 2 6l37 77c-96 22 -156 101 -156 218c0 170 121 297 298 297c128 0 208 -80 208 -173c0 -4 -1 -8 -1 -10c-1 -4 -5 -6 -9 -6h-81c-7 0 -11 1 -12 9c-11 61 -54 86 -118 86c-101 0 -177 -86 -177 -195c0 -99 48 -139 122 -139
c58 0 108 30 140 86c4 8 9 9 16 9h85c4 0 6 -2 6 -6c0 -2 -1 -5 -3 -10c-48 -115 -136 -172 -253 -173l-30 -47c15 4 37 7 53 7c48 0 77 -22 77 -66c0 -63 -58 -92 -128 -92c-49 0 -79 4 -102 10c-7 2 -9 4 -9 10l8 39c2 8 6 10 12 10c14 0 32 -13 88 -13c27 0 49 6 49 27
c0 14 -11 21 -32 21c-18 0 -39 -5 -56 -9c-4 -1 -5 -1 -7 -1c-4 0 -6 1 -8 3z" />
    <glyph glyph-name="eacute" unicode="&#xe9;" horiz-adv-x="584" 
d="M250 84c65 0 107 22 143 75c5 8 8 9 15 9h87c5 0 6 -3 6 -7c0 -2 0 -3 -3 -10c-50 -112 -137 -161 -255 -161c-127 0 -221 82 -221 229c0 157 124 293 299 293c144 0 212 -97 212 -214c0 -12 0 -28 -5 -50l-4 -19c-1 -7 -5 -10 -12 -10h-382v-12c0 -77 43 -123 120 -123z
M310 418c-62 0 -130 -33 -165 -109h282c-3 72 -43 109 -117 109zM261 564l93 126c5 7 10 10 17 10h112c6 0 8 -5 3 -10l-128 -127c-6 -6 -11 -9 -20 -9h-74c-5 0 -7 5 -3 10z" />
    <glyph glyph-name="ecircumflex" unicode="&#xea;" horiz-adv-x="584" 
d="M250 84c65 0 107 22 143 75c5 8 8 9 15 9h87c5 0 6 -3 6 -7c0 -2 0 -3 -3 -10c-50 -112 -137 -161 -255 -161c-127 0 -221 82 -221 229c0 157 124 293 299 293c144 0 212 -97 212 -214c0 -12 0 -28 -5 -50l-4 -19c-1 -7 -5 -10 -12 -10h-382v-12c0 -77 43 -123 120 -123z
M310 418c-62 0 -130 -33 -165 -109h282c-3 72 -43 109 -117 109zM416 692l80 -134c3 -5 -1 -10 -7 -10h-74c-8 0 -12 3 -17 9l-42 53l-67 -53c-7 -6 -11 -9 -19 -9h-81c-6 0 -8 5 -3 10l132 134c6 6 9 8 16 8h68c7 0 10 -2 14 -8z" />
    <glyph glyph-name="edieresis" unicode="&#xeb;" horiz-adv-x="584" 
d="M250 84c65 0 107 22 143 75c5 8 8 9 15 9h87c5 0 6 -3 6 -7c0 -2 0 -3 -3 -10c-50 -112 -137 -161 -255 -161c-127 0 -221 82 -221 229c0 157 124 293 299 293c144 0 212 -97 212 -214c0 -12 0 -28 -5 -50l-4 -19c-1 -7 -5 -10 -12 -10h-382v-12c0 -77 43 -123 120 -123z
M310 418c-62 0 -130 -33 -165 -109h282c-3 72 -43 109 -117 109zM204 596l19 94c1 7 5 10 12 10h94c7 0 8 -4 8 -10l-19 -94c-1 -7 -5 -10 -12 -10h-94c-7 0 -8 4 -8 10zM376 596l19 94c1 7 5 10 12 10h94c7 0 8 -4 8 -10l-19 -94c-1 -7 -5 -10 -12 -10h-94c-7 0 -8 4 -8 10
z" />
    <glyph glyph-name="egrave" unicode="&#xe8;" horiz-adv-x="584" 
d="M250 84c65 0 107 22 143 75c5 8 8 9 15 9h87c5 0 6 -3 6 -7c0 -2 0 -3 -3 -10c-50 -112 -137 -161 -255 -161c-127 0 -221 82 -221 229c0 157 124 293 299 293c144 0 212 -97 212 -214c0 -12 0 -28 -5 -50l-4 -19c-1 -7 -5 -10 -12 -10h-382v-12c0 -77 43 -123 120 -123z
M310 418c-62 0 -130 -33 -165 -109h282c-3 72 -43 109 -117 109zM345 690l44 -126c2 -5 -1 -10 -7 -10h-72c-9 0 -12 3 -16 9l-78 127c-3 5 0 10 7 10h109c7 0 10 -3 13 -10z" />
    <glyph glyph-name="iacute" unicode="&#xed;" horiz-adv-x="268" 
d="M21 10l93 482c1 7 5 10 12 10h82c7 0 8 -4 8 -10l-94 -482c-1 -7 -5 -10 -12 -10h-81c-7 0 -8 4 -8 10zM129 564l93 126c5 7 10 10 17 10h112c6 0 8 -5 3 -10l-128 -127c-6 -6 -11 -9 -20 -9h-74c-5 0 -7 5 -3 10z" />
    <glyph glyph-name="icircumflex" unicode="&#xee;" horiz-adv-x="268" 
d="M22 10l93 482c1 7 5 10 12 10h82c7 0 8 -4 8 -10l-94 -482c-1 -7 -5 -10 -12 -10h-81c-7 0 -8 4 -8 10zM254 692l80 -134c3 -5 -1 -10 -7 -10h-74c-8 0 -12 3 -17 9l-42 53l-67 -53c-7 -6 -11 -9 -19 -9h-81c-6 0 -8 5 -3 10l132 134c6 6 9 8 16 8h68c7 0 10 -2 14 -8z
" />
    <glyph glyph-name="idieresis" unicode="&#xef;" horiz-adv-x="268" 
d="M21 10l93 482c1 7 5 10 12 10h82c7 0 8 -4 8 -10l-94 -482c-1 -7 -5 -10 -12 -10h-81c-7 0 -8 4 -8 10zM40 596l19 94c1 7 5 10 12 10h94c7 0 8 -4 8 -10l-19 -94c-1 -7 -5 -10 -12 -10h-94c-7 0 -8 4 -8 10zM212 596l19 94c1 7 5 10 12 10h94c7 0 8 -4 8 -10l-19 -94
c-1 -7 -5 -10 -12 -10h-94c-7 0 -8 4 -8 10z" />
    <glyph glyph-name="igrave" unicode="&#xec;" horiz-adv-x="268" 
d="M21 10l93 482c1 7 5 10 12 10h82c7 0 8 -4 8 -10l-94 -482c-1 -7 -5 -10 -12 -10h-81c-7 0 -8 4 -8 10zM174 690l44 -126c2 -5 -1 -10 -7 -10h-72c-9 0 -12 3 -16 9l-78 127c-3 5 0 10 7 10h109c7 0 10 -3 13 -10z" />
    <glyph glyph-name="ntilde" unicode="&#xf1;" horiz-adv-x="595" 
d="M20 10l93 482c1 7 5 10 12 10h82c7 0 8 -4 8 -10l-8 -45c47 40 99 65 172 65c93 0 143 -52 143 -130c0 -14 -2 -29 -5 -45l-63 -327c-1 -7 -5 -10 -12 -10h-82c-7 0 -8 4 -8 10l58 298c3 13 4 24 4 35c0 45 -28 75 -81 75c-71 0 -143 -57 -165 -171l-46 -237
c-1 -7 -5 -10 -12 -10h-82c-7 0 -8 3 -8 10zM185 664c39 28 84 46 120 46c75 0 72 -41 126 -41c21 0 37 5 66 24c3 2 5 2 8 2s5 -2 8 -8l27 -50c2 -4 2 -6 2 -8c0 -3 -1 -5 -5 -8c-39 -28 -84 -46 -120 -46c-75 0 -72 41 -126 41c-21 0 -37 -5 -66 -24c-3 -2 -5 -2 -8 -2
s-5 2 -8 8l-27 50c-2 4 -2 6 -2 8c0 3 1 5 5 8z" />
    <glyph glyph-name="oacute" unicode="&#xf3;" horiz-adv-x="608" 
d="M22 212c0 174 128 300 306 300c139 0 228 -95 228 -222c0 -174 -128 -300 -306 -300c-139 0 -228 95 -228 222zM318 418c-105 0 -188 -80 -188 -197c0 -87 48 -137 130 -137c105 0 188 80 188 197c0 87 -48 137 -130 137zM255 564l93 126c5 7 10 10 17 10h112
c6 0 8 -5 3 -10l-128 -127c-6 -6 -11 -9 -20 -9h-74c-5 0 -7 5 -3 10z" />
    <glyph glyph-name="ocircumflex" unicode="&#xf4;" horiz-adv-x="608" 
d="M22 212c0 174 128 300 306 300c139 0 228 -95 228 -222c0 -174 -128 -300 -306 -300c-139 0 -228 95 -228 222zM318 418c-105 0 -188 -80 -188 -197c0 -87 48 -137 130 -137c105 0 188 80 188 197c0 87 -48 137 -130 137zM425 692l80 -134c3 -5 -1 -10 -7 -10h-74
c-8 0 -12 3 -17 9l-42 53l-67 -53c-7 -6 -11 -9 -19 -9h-81c-6 0 -8 5 -3 10l132 134c6 6 9 8 16 8h68c7 0 10 -2 14 -8z" />
    <glyph glyph-name="odieresis" unicode="&#xf6;" horiz-adv-x="608" 
d="M22 212c0 174 128 300 306 300c139 0 228 -95 228 -222c0 -174 -128 -300 -306 -300c-139 0 -228 95 -228 222zM318 418c-105 0 -188 -80 -188 -197c0 -87 48 -137 130 -137c105 0 188 80 188 197c0 87 -48 137 -130 137zM210 596l19 94c1 7 5 10 12 10h94
c7 0 8 -4 8 -10l-19 -94c-1 -7 -5 -10 -12 -10h-94c-7 0 -8 4 -8 10zM382 596l19 94c1 7 5 10 12 10h94c7 0 8 -4 8 -10l-19 -94c-1 -7 -5 -10 -12 -10h-94c-7 0 -8 4 -8 10z" />
    <glyph glyph-name="ograve" unicode="&#xf2;" horiz-adv-x="608" 
d="M22 212c0 174 128 300 306 300c139 0 228 -95 228 -222c0 -174 -128 -300 -306 -300c-139 0 -228 95 -228 222zM318 418c-105 0 -188 -80 -188 -197c0 -87 48 -137 130 -137c105 0 188 80 188 197c0 87 -48 137 -130 137zM363 690l44 -126c2 -5 -1 -10 -7 -10h-72
c-9 0 -12 3 -16 9l-78 127c-3 5 0 10 7 10h109c7 0 10 -3 13 -10z" />
    <glyph glyph-name="otilde" unicode="&#xf5;" horiz-adv-x="608" 
d="M22 212c0 174 128 300 306 300c139 0 228 -95 228 -222c0 -174 -128 -300 -306 -300c-139 0 -228 95 -228 222zM318 418c-105 0 -188 -80 -188 -197c0 -87 48 -137 130 -137c105 0 188 80 188 197c0 87 -48 137 -130 137zM197 664c39 28 84 46 120 46
c75 0 72 -41 126 -41c21 0 37 5 66 24c3 2 5 2 8 2s5 -2 8 -8l27 -50c2 -4 2 -6 2 -8c0 -3 -1 -5 -5 -8c-39 -28 -84 -46 -120 -46c-75 0 -72 41 -126 41c-21 0 -37 -5 -66 -24c-3 -2 -5 -2 -8 -2s-5 2 -8 8l-27 50c-2 4 -2 6 -2 8c0 3 1 5 5 8z" />
    <glyph glyph-name="scaron" unicode="&#x161;" horiz-adv-x="506" 
d="M434 166c0 -113 -97 -176 -227 -176c-134 0 -195 66 -195 169c0 6 5 10 12 10h82c7 0 8 -3 8 -10c3 -56 35 -75 99 -75c52 0 113 17 113 71c0 30 -33 43 -119 61c-99 21 -149 61 -149 138c0 101 100 158 214 158c118 0 185 -64 185 -150c0 -6 -5 -10 -12 -10h-85
c-6 0 -7 3 -8 10c-7 37 -39 56 -95 56c-39 0 -97 -14 -97 -60c0 -31 30 -50 118 -66c89 -16 156 -52 156 -126zM240 556l-80 134c-3 5 1 10 7 10h74c8 0 12 -3 17 -9l42 -53l67 53c7 6 11 9 19 9h81c6 0 8 -5 3 -10l-132 -134c-6 -6 -9 -8 -16 -8h-68c-7 0 -10 2 -14 8z" />
    <glyph glyph-name="uacute" unicode="&#xfa;" horiz-adv-x="589" 
d="M541 492l-93 -482c-1 -7 -5 -10 -12 -10h-82c-7 0 -8 4 -8 10l8 45c-47 -40 -99 -65 -172 -65c-93 0 -143 52 -143 130c0 14 2 29 5 45l63 327c1 7 5 10 12 10h82c7 0 8 -4 8 -10l-58 -298c-3 -13 -4 -24 -4 -35c0 -45 28 -75 81 -75c71 0 143 57 165 171l46 237
c1 7 5 10 12 10h82c7 0 8 -3 8 -10zM251 564l93 126c5 7 10 10 17 10h112c6 0 8 -5 3 -10l-128 -127c-6 -6 -11 -9 -20 -9h-74c-5 0 -7 5 -3 10z" />
    <glyph glyph-name="ucircumflex" unicode="&#xfb;" horiz-adv-x="589" 
d="M541 492l-93 -482c-1 -7 -5 -10 -12 -10h-82c-7 0 -8 4 -8 10l8 45c-47 -40 -99 -65 -172 -65c-93 0 -143 52 -143 130c0 14 2 29 5 45l63 327c1 7 5 10 12 10h82c7 0 8 -4 8 -10l-58 -298c-3 -13 -4 -24 -4 -35c0 -45 28 -75 81 -75c71 0 143 57 165 171l46 237
c1 7 5 10 12 10h82c7 0 8 -3 8 -10zM408 692l80 -134c3 -5 -1 -10 -7 -10h-74c-8 0 -12 3 -17 9l-42 53l-67 -53c-7 -6 -11 -9 -19 -9h-81c-6 0 -8 5 -3 10l132 134c6 6 9 8 16 8h68c7 0 10 -2 14 -8z" />
    <glyph glyph-name="udieresis" unicode="&#xfc;" horiz-adv-x="589" 
d="M541 492l-93 -482c-1 -7 -5 -10 -12 -10h-82c-7 0 -8 4 -8 10l8 45c-47 -40 -99 -65 -172 -65c-93 0 -143 52 -143 130c0 14 2 29 5 45l63 327c1 7 5 10 12 10h82c7 0 8 -4 8 -10l-58 -298c-3 -13 -4 -24 -4 -35c0 -45 28 -75 81 -75c71 0 143 57 165 171l46 237
c1 7 5 10 12 10h82c7 0 8 -3 8 -10zM195 596l19 94c1 7 5 10 12 10h94c7 0 8 -4 8 -10l-19 -94c-1 -7 -5 -10 -12 -10h-94c-7 0 -8 4 -8 10zM367 596l19 94c1 7 5 10 12 10h94c7 0 8 -4 8 -10l-19 -94c-1 -7 -5 -10 -12 -10h-94c-7 0 -8 4 -8 10z" />
    <glyph glyph-name="ugrave" unicode="&#xf9;" horiz-adv-x="589" 
d="M541 492l-93 -482c-1 -7 -5 -10 -12 -10h-82c-7 0 -8 4 -8 10l8 45c-47 -40 -99 -65 -172 -65c-93 0 -143 52 -143 130c0 14 2 29 5 45l63 327c1 7 5 10 12 10h82c7 0 8 -4 8 -10l-58 -298c-3 -13 -4 -24 -4 -35c0 -45 28 -75 81 -75c71 0 143 57 165 171l46 237
c1 7 5 10 12 10h82c7 0 8 -3 8 -10zM363 690l44 -126c2 -5 -1 -10 -7 -10h-72c-9 0 -12 3 -16 9l-78 127c-3 5 0 10 7 10h109c7 0 10 -3 13 -10z" />
    <glyph glyph-name="yacute" unicode="&#xfd;" horiz-adv-x="525" 
d="M147 502c8 0 10 -3 11 -10l67 -347l178 347c3 7 6 10 15 10h91c5 0 7 -2 7 -7c0 -1 0 -3 -2 -7l-284 -537c-67 -127 -131 -159 -201 -159c-43 0 -67 7 -88 16c-7 3 -8 7 -8 11c0 1 0 2 1 7l14 72c1 7 6 10 10 10c14 0 30 -22 71 -22c47 0 82 31 122 118l-104 481
c-1 5 -1 6 -1 9c0 5 5 8 10 8h91zM227 564l93 126c5 7 10 10 17 10h112c6 0 8 -5 3 -10l-128 -127c-6 -6 -11 -9 -20 -9h-74c-5 0 -7 5 -3 10z" />
    <glyph glyph-name="ydieresis" unicode="&#xff;" horiz-adv-x="525" 
d="M147 502c8 0 10 -3 11 -10l67 -347l178 347c3 7 6 10 15 10h91c5 0 7 -2 7 -7c0 -1 0 -3 -2 -7l-284 -537c-67 -127 -131 -159 -201 -159c-43 0 -67 7 -88 16c-7 3 -8 7 -8 11c0 1 0 2 1 7l14 72c1 7 6 10 10 10c14 0 30 -22 71 -22c47 0 82 31 122 118l-104 481
c-1 5 -1 6 -1 9c0 5 5 8 10 8h91zM157 596l19 94c1 7 5 10 12 10h94c7 0 8 -4 8 -10l-19 -94c-1 -7 -5 -10 -12 -10h-94c-7 0 -8 4 -8 10zM329 596l19 94c1 7 5 10 12 10h94c7 0 8 -4 8 -10l-19 -94c-1 -7 -5 -10 -12 -10h-94c-7 0 -8 4 -8 10z" />
    <glyph glyph-name="zcaron" unicode="&#x17e;" horiz-adv-x="488" 
d="M72 418l14 74c1 7 5 10 12 10h362c7 0 8 -4 8 -10l-14 -74c-1 -6 -2 -12 -12 -21l-318 -303h276c7 0 8 -4 8 -10l-14 -74c-2 -7 -5 -10 -12 -10h-393c-7 0 -8 4 -8 10l14 74c1 7 5 11 8 15l324 309h-247c-7 0 -8 4 -8 10zM231 556l-80 134c-3 5 1 10 7 10h74
c8 0 12 -3 17 -9l42 -53l67 53c7 6 11 9 19 9h81c6 0 8 -5 3 -10l-132 -134c-6 -6 -9 -8 -16 -8h-68c-7 0 -10 2 -14 8z" />
    <glyph glyph-name="oneeighth" unicode="&#x215b;" horiz-adv-x="889" 
d="M556 266c0 68 60 114 133 114c68 0 108 -36 108 -91c0 -36 -20 -71 -59 -91c21 -14 39 -37 39 -74c0 -79 -62 -130 -145 -130c-70 0 -122 39 -122 102c0 49 26 81 74 104c-17 17 -28 34 -28 66zM653 160c-36 0 -61 -24 -61 -57c0 -27 17 -41 44 -41c32 0 62 21 62 54
c0 25 -17 44 -45 44zM682 320c-35 0 -58 -24 -58 -51c0 -30 20 -43 46 -43c29 0 56 22 56 54c0 24 -18 40 -44 40zM54 50l673 647c2 2 4 3 7 3s5 -1 7 -3l30 -33c3 -3 4 -5 4 -7s0 -3 -4 -7l-673 -647c-2 -2 -4 -3 -7 -3s-5 1 -7 3l-30 33c-3 3 -4 5 -4 7s0 3 4 7zM116 336
l53 273l-68 -34c-5 -2 -7 -3 -10 -3c-4 0 -6 3 -6 8l11 57c1 5 3 7 9 10l94 49c4 2 10 4 16 4h32c7 0 8 -4 8 -10l-69 -354c-1 -7 -5 -10 -12 -10h-50c-7 0 -8 4 -8 10z" />
    <glyph glyph-name="threeeighths" unicode="&#x215c;" horiz-adv-x="911" 
d="M160 498l9 48c1 7 5 10 12 10h22c35 0 67 15 67 49c0 22 -16 37 -44 37c-24 0 -47 -12 -59 -41c-3 -6 -5 -8 -12 -8h-50c-6 0 -8 3 -8 9c15 65 70 104 136 104c70 0 108 -39 108 -93c0 -41 -24 -70 -58 -87c22 -12 42 -36 42 -78c0 -77 -55 -128 -143 -128
c-75 0 -123 49 -123 106c0 4 0 5 1 11c1 7 5 10 12 10h50c7 0 8 -3 8 -10c0 -33 25 -49 58 -49c37 0 63 21 63 56c0 29 -19 44 -51 44h-32c-7 0 -8 4 -8 10zM76 50l673 647c2 2 4 3 7 3s5 -1 7 -3l30 -33c3 -3 4 -5 4 -7s0 -3 -4 -7l-673 -647c-2 -2 -4 -3 -7 -3s-5 1 -7 3
l-30 33c-3 3 -4 5 -4 7s0 3 4 7zM578 266c0 68 60 114 133 114c68 0 108 -36 108 -91c0 -36 -20 -71 -59 -91c21 -14 39 -37 39 -74c0 -79 -62 -130 -145 -130c-70 0 -122 39 -122 102c0 49 26 81 74 104c-17 17 -28 34 -28 66zM675 160c-36 0 -61 -24 -61 -57
c0 -27 17 -41 44 -41c32 0 62 21 62 54c0 25 -17 44 -45 44zM704 320c-35 0 -58 -24 -58 -51c0 -30 20 -43 46 -43c29 0 56 22 56 54c0 24 -18 40 -44 40z" />
    <glyph glyph-name="fiveeighths" unicode="&#x215d;" horiz-adv-x="919" 
d="M69 503l61 189c2 6 5 8 11 8h200c7 0 8 -4 8 -10l-9 -48c-1 -7 -5 -10 -12 -10h-150l-25 -76c21 12 49 18 76 18c57 0 97 -37 97 -99c0 -97 -58 -155 -152 -155c-66 0 -116 43 -116 104v9c1 7 4 10 11 10h49c7 0 8 -3 9 -10c3 -33 24 -45 56 -45c43 0 69 27 69 69
c0 31 -12 52 -50 52c-28 0 -49 -7 -73 -22c-3 -2 -7 -5 -13 -3l-43 11c-4 1 -4 4 -4 8zM84 50l673 647c2 2 4 3 7 3s5 -1 7 -3l30 -33c3 -3 4 -5 4 -7s0 -3 -4 -7l-673 -647c-2 -2 -4 -3 -7 -3s-5 1 -7 3l-30 33c-3 3 -4 5 -4 7s0 3 4 7zM586 266c0 68 60 114 133 114
c68 0 108 -36 108 -91c0 -36 -20 -71 -59 -91c21 -14 39 -37 39 -74c0 -79 -62 -130 -145 -130c-70 0 -122 39 -122 102c0 49 26 81 74 104c-17 17 -28 34 -28 66zM683 160c-36 0 -61 -24 -61 -57c0 -27 17 -41 44 -41c32 0 62 21 62 54c0 25 -17 44 -45 44zM712 320
c-35 0 -58 -24 -58 -51c0 -30 20 -43 46 -43c29 0 56 22 56 54c0 24 -18 40 -44 40z" />
    <glyph glyph-name="seveneighths" unicode="&#x215e;" horiz-adv-x="897" 
d="M121 642l9 48c1 7 5 10 12 10h234c7 0 8 -4 8 -10l-6 -29c-1 -5 -3 -9 -7 -17l-160 -309c-3 -6 -7 -9 -14 -9h-61c-4 0 -6 2 -6 5c0 2 1 5 3 8l156 293h-160c-7 0 -8 4 -8 10zM62 50l673 647c2 2 4 3 7 3s5 -1 7 -3l30 -33c3 -3 4 -5 4 -7s0 -3 -4 -7l-673 -647
c-2 -2 -4 -3 -7 -3s-5 1 -7 3l-30 33c-3 3 -4 5 -4 7s0 3 4 7zM564 266c0 68 60 114 133 114c68 0 108 -36 108 -91c0 -36 -20 -71 -59 -91c21 -14 39 -37 39 -74c0 -79 -62 -130 -145 -130c-70 0 -122 39 -122 102c0 49 26 81 74 104c-17 17 -28 34 -28 66zM661 160
c-36 0 -61 -24 -61 -57c0 -27 17 -41 44 -41c32 0 62 21 62 54c0 25 -17 44 -45 44zM690 320c-35 0 -58 -24 -58 -51c0 -30 20 -43 46 -43c29 0 56 22 56 54c0 24 -18 40 -44 40z" />
    <glyph glyph-name="onethird" unicode="&#x2153;" horiz-adv-x="890" 
d="M625 172l9 48c1 7 5 10 12 10h22c35 0 67 15 67 49c0 22 -16 37 -44 37c-24 0 -47 -12 -59 -41c-3 -6 -5 -8 -12 -8h-50c-6 0 -8 3 -8 9c15 65 70 104 136 104c70 0 108 -39 108 -93c0 -41 -24 -70 -58 -87c22 -12 42 -36 42 -78c0 -77 -55 -128 -143 -128
c-75 0 -123 49 -123 106c0 4 0 5 1 11c1 7 5 10 12 10h50c7 0 8 -3 8 -10c0 -33 25 -49 58 -49c37 0 63 21 63 56c0 29 -19 44 -51 44h-32c-7 0 -8 4 -8 10zM59 50l673 647c2 2 4 3 7 3s5 -1 7 -3l30 -33c3 -3 4 -5 4 -7s0 -3 -4 -7l-673 -647c-2 -2 -4 -3 -7 -3s-5 1 -7 3
l-30 33c-3 3 -4 5 -4 7s0 3 4 7zM121 336l53 273l-68 -34c-5 -2 -7 -3 -10 -3c-4 0 -6 3 -6 8l11 57c1 5 3 7 9 10l94 49c4 2 10 4 16 4h32c7 0 8 -4 8 -10l-69 -354c-1 -7 -5 -10 -12 -10h-50c-7 0 -8 4 -8 10z" />
    <glyph glyph-name="twothirds" unicode="&#x2154;" horiz-adv-x="970" 
d="M705 172l9 48c1 7 5 10 12 10h22c35 0 67 15 67 49c0 22 -16 37 -44 37c-24 0 -47 -12 -59 -41c-3 -6 -5 -8 -12 -8h-50c-6 0 -8 3 -8 9c15 65 70 104 136 104c70 0 108 -39 108 -93c0 -41 -24 -70 -58 -87c22 -12 42 -36 42 -78c0 -77 -55 -128 -143 -128
c-75 0 -123 49 -123 106c0 4 0 5 1 11c1 7 5 10 12 10h50c7 0 8 -3 8 -10c0 -33 25 -49 58 -49c37 0 63 21 63 56c0 29 -19 44 -51 44h-32c-7 0 -8 4 -8 10zM149 50l673 647c2 2 4 3 7 3s5 -1 7 -3l30 -33c3 -3 4 -5 4 -7s0 -3 -4 -7l-673 -647c-2 -2 -4 -3 -7 -3s-5 1 -7 3
l-30 33c-3 3 -4 5 -4 7s0 3 4 7zM56 336l7 38c1 7 3 10 9 14l179 130c29 21 47 44 47 74c0 28 -18 46 -52 46c-33 0 -60 -24 -71 -55c-3 -7 -5 -10 -12 -10h-50c-7 0 -8 3 -8 10c11 68 67 123 146 123c76 0 119 -47 119 -102s-27 -93 -78 -131l-106 -79h142c7 0 8 -3 8 -10
l-9 -48c-1 -7 -5 -10 -12 -10h-251c-7 0 -8 4 -8 10z" />
    <glyph glyph-name="zerosuperior" unicode="&#x2070;" horiz-adv-x="373" 
d="M51 471c0 124 67 235 190 235c75 0 129 -52 129 -151c0 -124 -67 -235 -190 -235c-75 0 -129 52 -129 151zM231 638c-72 0 -106 -79 -106 -158c0 -68 29 -92 65 -92c72 0 106 79 106 158c0 68 -29 92 -65 92z" />
    <glyph glyph-name="foursuperior" unicode="&#x2074;" horiz-adv-x="363" 
d="M203 336l10 53h-161c-7 0 -8 4 -8 10l9 42c1 5 3 9 6 12l212 240c4 4 8 7 13 7h50c7 0 8 -4 8 -10l-45 -233h47c7 0 8 -4 8 -10l-10 -48c-1 -7 -5 -10 -12 -10h-47l-10 -53c-1 -7 -5 -10 -12 -10h-50c-7 0 -8 4 -8 10zM249 572l-101 -115h79z" />
    <glyph glyph-name="fivesuperior" unicode="&#x2075;" horiz-adv-x="342" 
d="M66 503l61 189c2 6 5 8 11 8h200c7 0 8 -4 8 -10l-9 -48c-1 -7 -5 -10 -12 -10h-150l-25 -76c21 12 49 18 76 18c57 0 97 -37 97 -99c0 -97 -58 -155 -152 -155c-66 0 -116 43 -116 104v9c1 7 4 10 11 10h49c7 0 8 -3 9 -10c3 -33 24 -45 56 -45c43 0 69 27 69 69
c0 31 -12 52 -50 52c-28 0 -49 -7 -73 -22c-3 -2 -7 -5 -13 -3l-43 11c-4 1 -4 4 -4 8z" />
    <glyph glyph-name="sixsuperior" unicode="&#x2076;" horiz-adv-x="371" 
d="M60 464c0 105 59 242 179 242c66 0 110 -41 110 -100c-1 -4 -4 -5 -7 -5h-56c-3 0 -3 2 -4 5c-6 21 -22 32 -50 32c-32 0 -66 -24 -84 -91c25 14 52 20 78 20c61 0 103 -35 103 -100c0 -90 -62 -147 -144 -147c-69 0 -125 41 -125 144zM202 502c-36 0 -71 -24 -71 -67
c0 -31 22 -50 52 -50c40 0 74 24 74 66c0 29 -17 51 -55 51z" />
    <glyph glyph-name="sevensuperior" unicode="&#x2077;" horiz-adv-x="276" 
d="M60 642l9 48c1 7 5 10 12 10h234c7 0 8 -4 8 -10l-6 -29c-1 -5 -3 -9 -7 -17l-160 -309c-3 -6 -7 -9 -14 -9h-61c-4 0 -6 2 -6 5c0 2 1 5 3 8l156 293h-160c-7 0 -8 4 -8 10z" />
    <glyph glyph-name="eightsuperior" unicode="&#x2078;" horiz-adv-x="340" 
d="M94 592c0 68 60 114 133 114c68 0 108 -36 108 -91c0 -36 -20 -71 -59 -91c21 -14 39 -37 39 -74c0 -79 -62 -130 -145 -130c-70 0 -122 39 -122 102c0 49 26 81 74 104c-17 17 -28 34 -28 66zM191 486c-36 0 -61 -24 -61 -57c0 -27 17 -41 44 -41c32 0 62 21 62 54
c0 25 -17 44 -45 44zM220 646c-35 0 -58 -24 -58 -51c0 -30 20 -43 46 -43c29 0 56 22 56 54c0 24 -18 40 -44 40z" />
    <glyph glyph-name="ninesuperior" unicode="&#x2079;" horiz-adv-x="371" 
d="M356 562c0 -105 -59 -242 -179 -242c-66 0 -110 41 -110 100c1 4 4 5 7 5h56c3 0 3 -2 4 -5c6 -21 22 -32 50 -32c32 0 66 24 84 91c-25 -14 -52 -20 -78 -20c-61 0 -103 35 -103 100c0 90 62 147 144 147c69 0 125 -41 125 -144zM214 524c36 0 71 24 71 67
c0 31 -22 50 -52 50c-40 0 -74 -24 -74 -66c0 -29 17 -51 55 -51z" />
    <glyph glyph-name="zeroinferior" unicode="&#x2080;" horiz-adv-x="373" 
d="M-29 -53c0 124 67 235 190 235c75 0 129 -52 129 -151c0 -124 -67 -235 -190 -235c-75 0 -129 52 -129 151zM151 114c-72 0 -106 -79 -106 -158c0 -68 29 -92 65 -92c72 0 106 79 106 158c0 68 -29 92 -65 92z" />
    <glyph glyph-name="oneinferior" unicode="&#x2081;" horiz-adv-x="275" 
d="M44 -188l53 273l-68 -34c-5 -2 -7 -3 -10 -3c-4 0 -6 3 -6 8l11 57c1 5 3 7 9 10l94 49c4 2 10 4 16 4h32c7 0 8 -4 8 -10l-69 -354c-1 -7 -5 -10 -12 -10h-50c-7 0 -8 4 -8 10z" />
    <glyph glyph-name="twoinferior" unicode="&#x2082;" horiz-adv-x="384" 
d="M-21 -188l7 38c1 7 3 10 9 14l179 130c29 21 47 44 47 74c0 28 -18 46 -52 46c-33 0 -60 -24 -71 -55c-3 -7 -5 -10 -12 -10h-50c-7 0 -8 3 -8 10c11 68 67 123 146 123c76 0 119 -47 119 -102s-27 -93 -78 -131l-106 -79h142c7 0 8 -3 8 -10l-9 -48
c-1 -7 -5 -10 -12 -10h-251c-7 0 -8 4 -8 10z" />
    <glyph glyph-name="threeinferior" unicode="&#x2083;" horiz-adv-x="376" 
d="M89 -27l9 48c1 7 5 10 12 10h22c35 0 67 15 67 49c0 22 -16 37 -44 37c-24 0 -47 -12 -59 -41c-3 -6 -5 -8 -12 -8h-50c-6 0 -8 3 -8 9c15 65 70 104 136 104c70 0 108 -39 108 -93c0 -41 -24 -70 -58 -87c22 -12 42 -36 42 -78c0 -77 -55 -128 -143 -128
c-75 0 -123 49 -123 106c0 4 0 5 1 11c1 7 5 10 12 10h50c7 0 8 -3 8 -10c0 -33 25 -49 58 -49c37 0 63 21 63 56c0 29 -19 44 -51 44h-32c-7 0 -8 4 -8 10z" />
    <glyph glyph-name="fourinferior" unicode="&#x2084;" horiz-adv-x="363" 
d="M120 -188l10 53h-161c-7 0 -8 4 -8 10l9 42c1 5 3 9 6 12l212 240c4 4 8 7 13 7h50c7 0 8 -4 8 -10l-45 -233h47c7 0 8 -4 8 -10l-10 -48c-1 -7 -5 -10 -12 -10h-47l-10 -53c-1 -7 -5 -10 -12 -10h-50c-7 0 -8 4 -8 10zM166 48l-101 -115h79z" />
    <glyph glyph-name="fiveinferior" unicode="&#x2085;" horiz-adv-x="342" 
d="M-4 -21l61 189c2 6 5 8 11 8h200c7 0 8 -4 8 -10l-9 -48c-1 -7 -5 -10 -12 -10h-150l-25 -76c21 12 49 18 76 18c57 0 97 -37 97 -99c0 -97 -58 -155 -152 -155c-66 0 -116 43 -116 104v9c1 7 4 10 11 10h49c7 0 8 -3 9 -10c3 -33 24 -45 56 -45c43 0 69 27 69 69
c0 31 -12 52 -50 52c-28 0 -49 -7 -73 -22c-3 -2 -7 -5 -13 -3l-43 11c-4 1 -4 4 -4 8z" />
    <glyph glyph-name="sixinferior" unicode="&#x2086;" horiz-adv-x="371" 
d="M10 -60c0 105 59 242 179 242c66 0 110 -41 110 -100c-1 -4 -4 -5 -7 -5h-56c-3 0 -3 2 -4 5c-6 21 -22 32 -50 32c-32 0 -66 -24 -84 -91c25 14 52 20 78 20c61 0 103 -35 103 -100c0 -90 -62 -147 -144 -147c-69 0 -125 41 -125 144zM152 -22c-36 0 -71 -24 -71 -67
c0 -31 22 -50 52 -50c40 0 74 24 74 66c0 29 -17 51 -55 51z" />
    <glyph glyph-name="seveninferior" unicode="&#x2087;" horiz-adv-x="276" 
d="M-32 118l9 48c1 7 5 10 12 10h234c7 0 8 -4 8 -10l-6 -29c-1 -5 -3 -9 -7 -17l-160 -309c-3 -6 -7 -9 -14 -9h-61c-4 0 -6 2 -6 5c0 2 1 5 3 8l156 293h-160c-7 0 -8 4 -8 10z" />
    <glyph glyph-name="eightinferior" unicode="&#x2088;" horiz-adv-x="340" 
d="M13 68c0 68 60 114 133 114c68 0 108 -36 108 -91c0 -36 -20 -71 -59 -91c21 -14 39 -37 39 -74c0 -79 -62 -130 -145 -130c-70 0 -122 39 -122 102c0 49 26 81 74 104c-17 17 -28 34 -28 66zM110 -38c-36 0 -61 -24 -61 -57c0 -27 17 -41 44 -41c32 0 62 21 62 54
c0 25 -17 44 -45 44zM139 122c-35 0 -58 -24 -58 -51c0 -30 20 -43 46 -43c29 0 56 22 56 54c0 24 -18 40 -44 40z" />
    <glyph glyph-name="nineinferior" unicode="&#x2089;" horiz-adv-x="371" 
d="M279 38c0 -105 -59 -242 -179 -242c-66 0 -110 41 -110 100c1 4 4 5 7 5h56c3 0 3 -2 4 -5c6 -21 22 -32 50 -32c32 0 66 24 84 91c-25 -14 -52 -20 -78 -20c-61 0 -103 35 -103 100c0 90 62 147 144 147c69 0 125 -41 125 -144zM137 0c36 0 71 24 71 67
c0 31 -22 50 -52 50c-40 0 -74 -24 -74 -66c0 -29 17 -51 55 -51z" />
    <glyph glyph-name="Euro" unicode="&#x20ac;" horiz-adv-x="676" 
d="M50 491h85c62 140 171 219 299 219c154 0 233 -94 233 -231c-2 -7 -5 -10 -12 -10h-81c-6 0 -7 3 -8 10c-7 96 -56 133 -140 133c-67 0 -137 -32 -185 -121h200c7 0 8 -4 8 -10l-15 -78c-1 -7 -5 -10 -12 -10h-217c-7 -26 -12 -54 -17 -86h217c7 0 8 -4 8 -10l-15 -78
c-1 -7 -5 -10 -12 -10h-199c12 -85 63 -121 138 -121c80 0 149 38 190 133c3 7 5 10 12 10h81c7 0 8 -4 8 -10c-42 -142 -157 -231 -300 -231c-135 0 -218 85 -235 219h-85c-7 0 -8 4 -8 10l14 78c1 7 5 10 12 10h68c5 30 10 58 17 86h-68c-7 0 -8 4 -8 10l15 78
c1 7 5 10 12 10z" />
    <glyph glyph-name=".null" horiz-adv-x="0" 
 />
    <glyph glyph-name="CR" horiz-adv-x="0" 
 />
    <glyph glyph-name="Delta" unicode="&#x2206;" horiz-adv-x="653" 
d="M449 690l124 -584c1 -5 1 -7 1 -10c0 -5 -1 -10 -2 -16l-14 -70c-1 -7 -5 -10 -12 -10h-581c-7 0 -8 4 -8 10l14 70c2 9 4 17 9 26l341 584c4 7 8 10 15 10h102c7 0 9 -3 11 -10zM468 100l-95 500l-285 -500h380z" />
    <glyph glyph-name="Omega" unicode="&#x2126;" horiz-adv-x="735" 
d="M406 610c-155 0 -249 -108 -249 -259c0 -101 37 -166 99 -235c4 -4 5 -8 5 -12c0 -2 0 -3 -1 -8l-17 -86c-1 -7 -5 -10 -12 -10h-222c-7 0 -8 4 -8 10l16 80c1 7 5 10 12 10h126c-57 61 -104 137 -104 260c0 203 154 350 368 350c180 0 284 -110 284 -264
c0 -137 -82 -252 -218 -346h122c7 0 8 -4 8 -10l-16 -80c-1 -7 -5 -10 -12 -10h-222c-7 0 -8 4 -8 10l17 86c1 7 3 14 12 20c107 75 209 185 209 319c0 115 -74 175 -189 175z" />
    <glyph glyph-name="partialdiff" unicode="&#x2202;" horiz-adv-x="596" 
d="M435 468c-35 108 -118 141 -232 141c-6 0 -7 3 -7 11l13 70c1 7 6 10 14 10c203 0 318 -102 318 -312c0 -189 -81 -398 -307 -398c-131 0 -215 79 -215 215c0 162 109 307 281 307c70 0 101 -14 135 -44zM295 418c-100 0 -170 -96 -170 -207c0 -74 41 -127 115 -127
c105 0 181 98 181 209c0 72 -46 125 -126 125z" />
    <glyph glyph-name="product" unicode="&#x220f;" horiz-adv-x="677" 
d="M272 600l-153 -788c-1 -7 -5 -10 -12 -10h-88c-6 0 -7 4 -7 10l170 878c1 7 5 10 12 10h452c7 0 8 -4 8 -10l-171 -878c-1 -7 -5 -10 -12 -10h-88c-7 0 -8 4 -8 10l153 788h-256z" />
    <glyph glyph-name="summation" unicode="&#x2211;" horiz-adv-x="582" 
d="M-83 -188l16 84c2 8 5 13 12 20l297 321c8 8 15 16 15 23c0 8 -2 13 -6 21l-176 305c-3 5 -5 9 -5 13c0 2 0 3 1 8l16 83c1 7 5 10 12 10h506c7 0 8 -4 8 -10l-16 -80c-1 -7 -5 -10 -12 -10h-385l172 -319c3 -6 5 -13 5 -22c0 -15 -4 -27 -18 -42l-294 -315h401
c7 0 8 -4 8 -10l-16 -80c-1 -7 -5 -10 -12 -10h-521c-7 0 -8 4 -8 10z" />
    <glyph glyph-name="radical" unicode="&#x221a;" horiz-adv-x="613" 
d="M110 302h-76c-7 0 -8 4 -8 10l14 74c1 7 5 10 12 10h140c7 0 11 -3 12 -10l39 -255l292 559c4 7 9 10 16 10h85c6 0 9 -4 6 -10l-355 -680c-4 -7 -8 -10 -15 -10h-95c-6 0 -10 3 -11 10z" />
    <glyph glyph-name="infinity" unicode="&#x221e;" horiz-adv-x="879" 
d="M45 300c0 120 91 197 202 197c105 0 165 -61 189 -122c48 68 129 122 219 122c98 0 154 -61 154 -155c0 -117 -86 -201 -212 -201c-93 0 -153 56 -181 124c-57 -82 -131 -124 -219 -124c-93 0 -152 60 -152 159zM464 319c25 -78 71 -117 142 -117c75 0 133 59 133 140
c0 60 -33 94 -96 94s-121 -40 -179 -117zM247 436c-76 0 -132 -70 -132 -131s32 -103 95 -103c65 0 127 46 180 117c-26 78 -72 117 -143 117z" />
    <glyph glyph-name="integral" unicode="&#x222b;" horiz-adv-x="505" 
d="M42 -31l192 580c37 113 111 161 199 161c48 0 75 -7 106 -19c4 -2 6 -4 6 -9c0 -2 0 -3 -1 -8l-14 -72c-1 -7 -4 -11 -9 -11c-2 0 -5 1 -8 3c-28 16 -57 22 -80 22c-43 0 -79 -19 -98 -77l-201 -603c-35 -105 -92 -144 -175 -144c-37 0 -78 6 -103 19c-5 3 -6 5 -6 10
c0 2 0 3 1 8l14 71c1 7 5 10 10 10c2 0 5 -1 9 -3c29 -14 50 -21 72 -21c39 0 63 14 86 83z" />
    <glyph glyph-name="approxequal" unicode="&#x2248;" horiz-adv-x="560" 
d="M65 434c35 22 98 36 130 36c92 0 116 -41 185 -41c30 0 52 8 81 25c3 1 5 2 8 2c4 0 6 -3 8 -8l29 -64c2 -4 2 -6 2 -9c0 -6 -3 -9 -11 -14c-35 -22 -98 -36 -130 -36c-92 0 -116 41 -185 41c-30 0 -52 -8 -81 -25c-3 -1 -5 -2 -8 -2c-4 0 -6 3 -8 8l-29 64
c-2 5 -2 6 -2 9c0 6 3 9 11 14zM28 236c35 22 98 36 130 36c92 0 116 -41 185 -41c30 0 52 8 81 25c3 1 5 2 8 2c4 0 6 -3 8 -8l29 -64c2 -4 2 -6 2 -9c0 -6 -3 -9 -11 -14c-35 -22 -98 -36 -130 -36c-92 0 -116 41 -185 41c-30 0 -52 -8 -81 -25c-3 -1 -5 -2 -8 -2
c-4 0 -6 3 -8 8l-29 64c-2 5 -2 6 -2 9c0 6 3 9 11 14z" />
    <glyph glyph-name="notequal" unicode="&#x2260;" horiz-adv-x="619" 
d="M77 248h130l82 105h-191c-7 0 -8 4 -8 10l15 78c1 7 5 10 12 10h247l118 151c3 4 5 6 8 6c2 0 3 0 6 -2l57 -43c3 -2 4 -4 4 -7c0 -2 -1 -4 -3 -7l-78 -98h75c7 0 8 -4 8 -10l-15 -78c-1 -7 -5 -10 -12 -10h-132l-81 -105h192c7 0 8 -4 8 -10l-15 -78
c-1 -7 -5 -10 -12 -10h-249l-116 -150c-3 -4 -6 -6 -9 -6c-1 0 -2 0 -5 2l-57 43c-3 2 -4 4 -4 7c0 2 1 4 3 7l76 97h-73c-7 0 -8 4 -8 10l15 78c1 7 5 10 12 10z" />
    <glyph glyph-name="pi" unicode="&#x3c0;" horiz-adv-x="641" 
d="M605 412h-97l-51 -263c-1 -7 -2 -14 -2 -20c0 -25 14 -35 41 -35h11c7 0 8 -4 8 -10l-14 -74c-1 -7 -7 -10 -14 -10h-49c-53 0 -91 32 -91 91c0 9 0 19 2 31l57 290h-165l-78 -402c-1 -7 -5 -10 -12 -10h-82c-7 0 -8 4 -8 10l78 402h-95c-7 0 -8 4 -8 10l13 70
c1 7 5 10 12 10h561c7 0 8 -4 8 -10l-13 -70c-1 -7 -5 -10 -12 -10z" />
    <glyph glyph-name="lessequal" unicode="&#x2264;" horiz-adv-x="514" 
d="M-24 88h434c7 0 8 -4 8 -10l-15 -78c-1 -7 -5 -10 -12 -10h-434c-7 0 -8 4 -8 10l15 78c1 7 5 10 12 10zM419 219l-16 -82c-1 -5 -3 -7 -6 -7c-1 0 -3 0 -5 1l-334 201c-6 4 -8 6 -8 13l17 82c1 7 4 9 12 13l412 197c2 1 3 1 4 1c4 0 5 -3 5 -7l-19 -95
c-1 -7 -5 -10 -13 -14l-307 -142l251 -147c6 -3 7 -7 7 -14z" />
    <glyph glyph-name="greaterequal" unicode="&#x2265;" horiz-adv-x="514" 
d="M-12 88h434c7 0 8 -4 8 -10l-15 -78c-1 -7 -5 -10 -12 -10h-434c-7 0 -8 4 -8 10l15 78c1 7 5 10 12 10zM98 538l16 82c1 5 3 7 6 7c1 0 3 0 5 -1l334 -201c6 -4 8 -6 8 -13l-17 -82c-1 -7 -4 -9 -12 -13l-412 -197c-2 -1 -3 -1 -4 -1c-4 0 -5 3 -5 7l19 95
c1 7 5 10 13 14l307 142l-251 147c-6 3 -7 7 -7 14z" />
    <glyph glyph-name="lozenge" unicode="&#x25ca;" horiz-adv-x="538" 
d="M396 690l131 -330c2 -5 2 -6 2 -8c0 -5 -2 -8 -5 -12l-259 -330c-5 -6 -9 -10 -16 -10h-94c-7 0 -9 3 -12 10l-131 330c-2 5 -2 6 -2 10c0 3 2 6 5 10l259 330c5 6 9 10 16 10h94c7 0 9 -3 12 -10zM324 606l-210 -264l99 -248l212 266z" />
    <glyph glyph-name="apple" horiz-adv-x="760" 
d="M676 617v-595c0 -11 -9 -22 -22 -22c-2 0 -3 0 -7 1l-267 77l-267 -77c-4 -1 -5 -1 -7 -1c-13 0 -22 11 -22 22v595c0 10 7 19 16 22l270 78c3 1 8 2 10 2s7 -1 10 -2l270 -78c9 -3 16 -12 16 -22zM358 366v303l-230 -67c8 -125 106 -225 230 -236zM402 669v-303
c124 11 222 111 230 236zM127 463v-412l231 67v204c-98 8 -183 62 -231 141zM633 51v412c-49 -79 -133 -133 -231 -141v-204z" />
    <glyph glyph-name="sterling.tosn" 
d="M88 97c37 29 75 62 80 105h-73c-7 0 -8 4 -8 10l12 62c1 7 5 10 12 10h45c-5 12 -7 24 -7 40c0 111 94 188 209 188c126 0 176 -69 176 -162c0 -7 -5 -10 -12 -10h-82c-7 0 -8 3 -8 10c0 47 -31 68 -83 68c-56 0 -98 -40 -98 -100c0 -13 1 -24 3 -34h173c7 0 8 -4 8 -10
l-12 -62c-1 -7 -5 -10 -12 -10h-144c-4 -36 -28 -77 -70 -108h282c7 0 8 -4 8 -10l-14 -74c-1 -7 -5 -10 -12 -10h-390c-7 0 -8 4 -8 10l13 67c1 7 3 13 12 20z" />
    <glyph glyph-name="dollar.tosn" 
d="M502 167c0 -106 -85 -168 -201 -176l-16 -81c-1 -7 -5 -10 -12 -10h-68c-7 0 -8 4 -8 10l16 86c-91 17 -133 77 -133 163c0 6 5 10 12 10h82c7 0 8 -3 8 -10c2 -40 18 -61 50 -70l25 131c-88 23 -131 62 -131 132c0 97 86 151 188 159l16 79c1 7 5 10 12 10h68
c7 0 8 -4 8 -10l-17 -84c81 -18 124 -74 124 -144c0 -6 -5 -10 -12 -10h-85c-6 0 -7 3 -8 10c-4 21 -17 37 -38 46l-23 -119c82 -17 143 -53 143 -122zM394 155c0 20 -16 33 -52 44l-22 -112c39 7 74 27 74 68zM228 358c0 -21 13 -36 47 -49l21 106c-34 -5 -68 -22 -68 -57z
" />
    <glyph glyph-name="yen.tosn" 
d="M135 306h80l-75 186c0 7 4 10 8 10h92c7 0 10 -3 12 -8l63 -162l123 162c4 5 7 8 14 8h96c4 0 6 -2 6 -4s0 -3 -2 -6l-147 -186h80c7 0 8 -4 8 -10l-12 -64c-1 -7 -5 -10 -12 -10h-124l-11 -57h104c7 0 8 -4 8 -10l-13 -64c-1 -7 -5 -10 -12 -10h-103l-14 -71
c-1 -7 -5 -10 -12 -10h-82c-7 0 -8 4 -8 10l14 71h-105c-7 0 -8 4 -8 10l13 64c1 7 5 10 12 10h104l11 57h-124c-7 0 -8 4 -8 10l12 64c1 7 5 10 12 10z" />
    <glyph glyph-name="cent.tosn" 
d="M195 -89l17 86c-98 23 -156 100 -156 218c0 157 102 276 256 294l16 82c1 7 5 10 12 10h78c7 0 8 -4 8 -10l-17 -84c96 -19 153 -89 153 -168c0 -4 -1 -8 -1 -10c-1 -4 -5 -6 -9 -6h-81c-7 0 -11 1 -12 9c-8 43 -32 68 -68 79l-64 -322c40 11 75 39 99 81c4 8 9 9 16 9
h85c4 0 6 -2 6 -6c0 -2 -1 -5 -3 -10c-44 -105 -120 -162 -222 -172l-15 -80c-2 -7 -5 -10 -12 -10h-78c-7 0 -8 4 -8 10zM164 223c0 -72 25 -111 67 -130l62 318c-76 -22 -129 -97 -129 -188z" />
    <glyph glyph-name="multiply.tosn" 
d="M515 371l-142 -119l95 -119c2 -3 2 -5 2 -7s-1 -4 -4 -7l-61 -51c-3 -3 -5 -4 -7 -4s-4 1 -7 4l-97 120l-142 -124c-3 -3 -5 -4 -7 -4s-4 1 -7 4l-52 59c-3 3 -3 4 -3 6s1 5 5 8l148 126l-93 112c-2 3 -3 4 -3 6s2 5 5 8l62 51c4 3 6 4 8 4s4 -1 6 -4l92 -115l142 119
c3 3 6 4 8 4s3 -1 6 -4l48 -59c2 -2 3 -4 3 -6s-1 -5 -5 -8z" />
    <glyph glyph-name="plus.tosn" 
d="M386 469l-33 -168h166c7 0 8 -4 8 -10l-15 -78c-1 -7 -5 -10 -12 -10h-166l-33 -168c-1 -7 -5 -10 -12 -10h-82c-7 0 -8 4 -8 10l33 168h-166c-7 0 -8 4 -8 10l15 78c1 7 5 10 12 10h166l33 168c1 7 5 10 12 10h82c7 0 8 -4 8 -10z" />
    <glyph glyph-name="minus.tosn" 
d="M83 301h434c7 0 8 -4 8 -10l-15 -78c-1 -7 -5 -10 -12 -10h-434c-7 0 -8 4 -8 10l15 78c1 7 5 10 12 10z" />
    <glyph glyph-name="divide.tosn" 
d="M85 272h434c7 0 8 -4 8 -10l-15 -78c-1 -7 -5 -10 -12 -10h-434c-7 0 -8 4 -8 10l15 78c1 7 5 10 12 10zM224 116h96c7 0 8 -4 8 -10l-19 -96c-1 -7 -5 -10 -12 -10h-96c-7 0 -8 4 -8 10l19 96c1 7 5 10 12 10zM288 446h96c7 0 8 -4 8 -10l-19 -96c-1 -7 -5 -10 -12 -10
h-96c-7 0 -8 4 -8 10l19 96c1 7 5 10 12 10z" />
    <glyph glyph-name="Euro.tosn" 
d="M44 224h53c1 18 4 36 8 54h-50c-7 0 -8 4 -8 10l12 64c1 7 5 10 12 10h67c46 85 132 150 244 150c125 0 196 -73 196 -176c0 -7 -5 -10 -12 -10h-79c-6 0 -7 3 -8 10c-5 48 -39 82 -108 82c-49 0 -88 -23 -117 -56h106c7 0 8 -4 8 -10l-12 -64c-1 -7 -6 -10 -13 -10h-132
c-5 -18 -7 -36 -8 -54h130c7 0 8 -4 8 -10l-12 -64c-1 -7 -5 -10 -12 -10h-103c16 -40 49 -56 96 -56c65 0 113 34 136 82c3 7 6 10 12 10h78c7 0 9 -3 9 -10c-42 -117 -128 -176 -242 -176c-99 0 -178 51 -201 150h-74c-7 0 -8 4 -8 10l12 64c1 7 5 10 12 10z" />
    <glyph glyph-name="equal.tosn" 
d="M112 393h434c7 0 8 -4 8 -10l-15 -78c-1 -7 -5 -10 -12 -10h-434c-7 0 -8 4 -8 10l15 78c1 7 5 10 12 10zM72 190h434c7 0 8 -4 8 -10l-15 -78c-1 -7 -5 -10 -12 -10h-434c-7 0 -8 3 -8 10l15 78c1 7 5 10 12 10z" />
    <glyph glyph-name="zero.tosn" 
d="M32 215c0 177 132 297 309 297c146 0 237 -92 237 -225c0 -177 -132 -297 -309 -297c-146 0 -237 92 -237 225zM329 418c-106 0 -191 -88 -191 -194c0 -86 45 -140 143 -140c106 0 191 88 191 194c0 86 -45 140 -143 140z" />
    <glyph glyph-name="one.tosn" 
d="M79 90h153l55 284l-137 -68c-4 -2 -9 -3 -12 -3c-4 0 -5 3 -5 9l17 85c1 7 7 12 14 15l166 85c6 3 10 5 16 5h58c7 0 8 -4 8 -10l-78 -402h161c7 0 8 -4 8 -10l-13 -70c-1 -7 -5 -10 -12 -10h-416c-7 0 -8 4 -8 10l13 70c1 7 5 10 12 10z" />
    <glyph glyph-name="two.tosn" 
d="M59 10l11 58c2 10 7 17 15 23l234 160c41 28 76 61 76 108c0 38 -27 59 -71 59c-46 0 -83 -30 -98 -78c-4 -12 -7 -15 -16 -15h-73c-7 0 -9 4 -9 15c25 117 110 172 206 172c110 0 160 -63 160 -133c0 -78 -35 -133 -102 -180l-150 -105h207c7 0 8 -4 8 -10l-14 -74
c-1 -7 -5 -10 -12 -10h-364c-7 0 -8 3 -8 10z" />
    <glyph glyph-name="three.tosn" 
d="M237 171l15 74c2 8 6 10 12 10h55c51 0 111 32 111 91c0 48 -32 72 -85 72c-47 0 -95 -25 -115 -85c-3 -10 -7 -11 -14 -11h-69c-8 0 -12 5 -12 15c26 109 110 175 220 175c114 0 173 -59 173 -145c0 -72 -35 -120 -101 -153c35 -20 70 -63 70 -129
c0 -143 -100 -223 -245 -223c-104 0 -193 66 -193 175c0 6 0 12 1 19c2 11 8 15 15 15h75c7 0 11 -2 11 -12v-9c0 -68 42 -94 102 -94c70 0 132 42 132 119c0 59 -30 86 -94 86h-56c-6 0 -8 4 -8 10z" />
    <glyph glyph-name="four.tosn" 
d="M272 -128l25 128h-259c-7 0 -8 4 -8 10l10 49c2 10 6 16 12 23l353 412c4 5 9 8 15 8h67c7 0 8 -4 8 -10l-78 -398h83c7 0 8 -4 8 -10l-14 -74c-1 -7 -5 -10 -12 -10h-83l-25 -128c-1 -7 -5 -10 -13 -10h-81c-7 0 -8 4 -8 10zM354 293l-170 -199h131z" />
    <glyph glyph-name="five.tosn" 
d="M76 152l103 340c2 7 5 10 12 10h341c7 0 8 -4 8 -10l-15 -74c-1 -7 -5 -10 -12 -10h-261l-51 -152c40 25 85 35 133 35c107 0 166 -77 166 -174c0 -161 -101 -255 -254 -255c-108 0 -194 75 -194 180v10c1 11 8 15 15 15h69c8 0 12 -3 13 -15c3 -66 42 -96 112 -96
c77 0 137 53 137 142c0 63 -37 99 -101 99c-45 0 -79 -13 -125 -46c-5 -4 -11 -9 -20 -9h-68c-7 0 -8 4 -8 10z" />
    <glyph glyph-name="six.tosn" 
d="M68 212c0 195 98 428 300 428c98 0 172 -62 172 -155c0 -6 0 -13 -1 -20c-2 -9 -7 -10 -13 -10h-71c-7 0 -9 3 -10 10c-6 55 -30 81 -88 81c-64 0 -119 -46 -152 -166c47 31 91 40 137 40c101 0 171 -63 171 -177c0 -153 -101 -253 -251 -253c-112 0 -194 67 -194 222z
M305 326c-72 0 -131 -58 -131 -144c0 -64 32 -98 97 -98c74 0 134 68 134 141c0 60 -34 101 -100 101z" />
    <glyph glyph-name="seven.tosn" 
d="M117 418l15 74c1 7 5 10 12 10h370c7 0 8 -4 8 -10l-10 -49c-2 -9 -4 -15 -10 -26l-305 -548c-4 -6 -8 -7 -13 -7h-86c-6 0 -8 2 -8 7c0 1 0 2 2 6l298 533h-265c-7 0 -8 4 -8 10z" />
    <glyph glyph-name="eight.tosn" 
d="M145 448c0 113 94 192 217 192c100 0 168 -53 168 -156c0 -63 -38 -119 -95 -150c30 -21 58 -58 58 -126c0 -142 -100 -218 -238 -218c-105 0 -183 60 -183 161c0 86 49 155 122 185c-27 27 -49 60 -49 112zM296 282c-65 0 -118 -52 -118 -113c0 -56 34 -85 92 -85
c64 0 117 45 117 114c0 48 -33 84 -91 84zM349 546c-55 0 -102 -36 -102 -98c0 -45 31 -72 78 -72c57 0 103 38 103 96c0 48 -35 74 -79 74z" />
    <glyph glyph-name="nine.tosn" 
d="M530 290c0 -195 -98 -428 -300 -428c-98 0 -172 62 -172 155c0 6 0 13 1 20c2 9 7 10 13 10h71c7 0 9 -3 10 -10c6 -55 30 -81 88 -81c64 0 119 46 152 166c-47 -31 -91 -40 -137 -40c-101 0 -171 63 -171 177c0 153 101 253 251 253c112 0 194 -67 194 -222zM293 176
c72 0 131 58 131 144c0 64 -32 98 -97 98c-74 0 -134 -68 -134 -141c0 -60 34 -101 100 -101z" />
    <glyph glyph-name="sterling.posn" horiz-adv-x="509" 
d="M10 97c37 29 75 62 80 105h-73c-7 0 -8 4 -8 10l12 62c1 7 5 10 12 10h45c-5 12 -7 24 -7 40c0 111 94 188 209 188c126 0 176 -69 176 -162c0 -7 -5 -10 -12 -10h-82c-7 0 -8 3 -8 10c0 47 -31 68 -83 68c-56 0 -98 -40 -98 -100c0 -13 1 -24 3 -34h173c7 0 8 -4 8 -10
l-12 -62c-1 -7 -5 -10 -12 -10h-144c-4 -36 -28 -77 -70 -108h282c7 0 8 -4 8 -10l-14 -74c-1 -7 -5 -10 -12 -10h-390c-7 0 -8 4 -8 10l13 67c1 7 3 13 12 20z" />
    <glyph glyph-name="dollar.posn" horiz-adv-x="506" 
d="M434 167c0 -106 -85 -168 -201 -176l-16 -81c-1 -7 -5 -10 -12 -10h-68c-7 0 -8 4 -8 10l16 86c-91 17 -133 77 -133 163c0 6 5 10 12 10h82c7 0 8 -3 8 -10c2 -40 18 -61 50 -70l25 131c-88 23 -131 62 -131 132c0 97 86 151 188 159l16 79c1 7 5 10 12 10h68
c7 0 8 -4 8 -10l-17 -84c81 -18 124 -74 124 -144c0 -6 -5 -10 -12 -10h-85c-6 0 -7 3 -8 10c-4 21 -17 37 -38 46l-23 -119c82 -17 143 -53 143 -122zM326 155c0 20 -16 33 -52 44l-22 -112c39 7 74 27 74 68zM160 358c0 -21 13 -36 47 -49l21 106c-34 -5 -68 -22 -68 -57z
" />
    <glyph glyph-name="yen.posn" horiz-adv-x="480" 
d="M57 306h80l-75 186c0 7 4 10 8 10h92c7 0 10 -3 12 -8l63 -162l123 162c4 5 7 8 14 8h96c4 0 6 -2 6 -4s0 -3 -2 -6l-147 -186h80c7 0 8 -4 8 -10l-12 -64c-1 -7 -5 -10 -12 -10h-124l-11 -57h104c7 0 8 -4 8 -10l-13 -64c-1 -7 -5 -10 -12 -10h-103l-14 -71
c-1 -7 -5 -10 -12 -10h-82c-7 0 -8 4 -8 10l14 71h-105c-7 0 -8 4 -8 10l13 64c1 7 5 10 12 10h104l11 57h-124c-7 0 -8 4 -8 10l12 64c1 7 5 10 12 10z" />
    <glyph glyph-name="cent.posn" horiz-adv-x="561" 
d="M154 -88l17 86c-98 23 -156 100 -156 218c0 157 102 276 256 294l16 82c1 7 5 10 12 10h78c7 0 8 -4 8 -10l-17 -84c96 -19 153 -89 153 -168c0 -4 -1 -8 -1 -10c-1 -4 -5 -6 -9 -6h-81c-7 0 -11 1 -12 9c-8 43 -32 68 -68 79l-64 -322c40 11 75 39 99 81c4 8 9 9 16 9
h85c4 0 6 -2 6 -6c0 -2 -1 -5 -3 -10c-44 -105 -120 -162 -222 -172l-15 -80c-2 -7 -5 -10 -12 -10h-78c-7 0 -8 4 -8 10zM123 224c0 -72 25 -111 67 -130l62 318c-76 -22 -129 -97 -129 -188z" />
    <glyph glyph-name="multiply.posn" horiz-adv-x="488" 
d="M435 371l-142 -119l95 -119c2 -3 2 -5 2 -7s-1 -4 -4 -7l-61 -51c-3 -3 -5 -4 -7 -4s-4 1 -7 4l-97 120l-142 -124c-3 -3 -5 -4 -7 -4s-4 1 -7 4l-52 59c-3 3 -3 4 -3 6s1 5 5 8l148 126l-93 112c-2 3 -3 4 -3 6s2 5 5 8l62 51c4 3 6 4 8 4s4 -1 6 -4l92 -115l142 119
c3 3 6 4 8 4s3 -1 6 -4l48 -59c2 -2 3 -4 3 -6s-1 -5 -5 -8z" />
    <glyph glyph-name="plus.posn" horiz-adv-x="556" 
d="M364 469l-33 -168h166c7 0 8 -4 8 -10l-15 -78c-1 -7 -5 -10 -12 -10h-166l-33 -168c-1 -7 -5 -10 -12 -10h-82c-7 0 -8 4 -8 10l33 168h-166c-7 0 -8 4 -8 10l15 78c1 7 5 10 12 10h166l33 168c1 7 5 10 12 10h82c7 0 8 -4 8 -10z" />
    <glyph glyph-name="minus.posn" horiz-adv-x="552" 
d="M61 301h434c7 0 8 -4 8 -10l-15 -78c-1 -7 -5 -10 -12 -10h-434c-7 0 -8 4 -8 10l15 78c1 7 5 10 12 10z" />
    <glyph glyph-name="divide.posn" horiz-adv-x="552" 
d="M51 272h434c7 0 8 -4 8 -10l-15 -78c-1 -7 -5 -10 -12 -10h-434c-7 0 -8 4 -8 10l15 78c1 7 5 10 12 10zM190 116h96c7 0 8 -4 8 -10l-19 -96c-1 -7 -5 -10 -12 -10h-96c-7 0 -8 4 -8 10l19 96c1 7 5 10 12 10zM254 446h96c7 0 8 -4 8 -10l-19 -96c-1 -7 -5 -10 -12 -10
h-96c-7 0 -8 4 -8 10l19 96c1 7 5 10 12 10z" />
    <glyph glyph-name="Euro.posn" horiz-adv-x="604" 
d="M28 224h53c1 18 4 36 8 54h-50c-7 0 -8 4 -8 10l12 64c1 7 5 10 12 10h67c46 85 132 150 244 150c125 0 196 -73 196 -176c0 -7 -5 -10 -12 -10h-79c-6 0 -7 3 -8 10c-5 48 -39 82 -108 82c-49 0 -88 -23 -117 -56h106c7 0 8 -4 8 -10l-12 -64c-1 -7 -6 -10 -13 -10h-132
c-5 -18 -7 -36 -8 -54h130c7 0 8 -4 8 -10l-12 -64c-1 -7 -5 -10 -12 -10h-103c16 -40 49 -56 96 -56c65 0 113 34 136 82c3 7 6 10 12 10h78c7 0 9 -3 9 -10c-42 -117 -128 -176 -242 -176c-99 0 -178 51 -201 150h-74c-7 0 -8 4 -8 10l12 64c1 7 5 10 12 10z" />
    <glyph glyph-name="equal.posn" horiz-adv-x="619" 
d="M109 393h434c7 0 8 -4 8 -10l-15 -78c-1 -7 -5 -10 -12 -10h-434c-7 0 -8 4 -8 10l15 78c1 7 5 10 12 10zM69 190h434c7 0 8 -4 8 -10l-15 -78c-1 -7 -5 -10 -12 -10h-434c-7 0 -8 3 -8 10l15 78c1 7 5 10 12 10z" />
    <glyph glyph-name="zero.posn" horiz-adv-x="621" 
d="M21 215c0 177 132 297 309 297c146 0 237 -92 237 -225c0 -177 -132 -297 -309 -297c-146 0 -237 92 -237 225zM318 418c-106 0 -191 -88 -191 -194c0 -86 45 -140 143 -140c106 0 191 88 191 194c0 86 -45 140 -143 140z" />
    <glyph glyph-name="one.posn" horiz-adv-x="330" 
d="M87 10l70 364l-112 -55c-4 -2 -8 -3 -11 -3c-4 0 -5 4 -5 9l16 85c1 7 8 12 14 15l141 72c6 3 10 5 16 5h58c7 0 8 -4 8 -10l-93 -482c-1 -7 -5 -10 -12 -10h-82c-7 0 -8 4 -8 10z" />
    <glyph glyph-name="two.posn" horiz-adv-x="494" 
d="M-2 10l11 58c2 10 7 17 15 23l234 160c41 28 76 61 76 108c0 38 -27 59 -71 59c-46 0 -83 -30 -98 -78c-4 -12 -7 -15 -16 -15h-73c-7 0 -9 4 -9 15c25 117 110 172 206 172c110 0 160 -63 160 -133c0 -78 -35 -133 -102 -180l-150 -105h207c7 0 8 -4 8 -10l-14 -74
c-1 -7 -5 -10 -12 -10h-364c-7 0 -8 3 -8 10z" />
    <glyph glyph-name="three.posn" horiz-adv-x="538" 
d="M183 171l15 74c2 8 6 10 12 10h55c51 0 111 32 111 91c0 48 -32 72 -85 72c-47 0 -95 -25 -115 -85c-3 -10 -7 -11 -14 -11h-69c-8 0 -12 5 -12 15c26 109 110 175 220 175c114 0 173 -59 173 -145c0 -72 -35 -120 -101 -153c35 -20 70 -63 70 -129
c0 -143 -100 -223 -245 -223c-104 0 -193 66 -193 175c0 6 0 12 1 19c2 11 8 15 15 15h75c7 0 11 -2 11 -12v-9c0 -68 42 -94 102 -94c70 0 132 42 132 119c0 59 -30 86 -94 86h-56c-6 0 -8 4 -8 10z" />
    <glyph glyph-name="four.posn" horiz-adv-x="532" 
d="M216 -128l25 128h-259c-7 0 -8 4 -8 10l10 49c2 10 6 16 12 23l353 412c4 5 9 8 15 8h67c7 0 8 -4 8 -10l-78 -398h83c7 0 8 -4 8 -10l-14 -74c-1 -7 -5 -10 -12 -10h-83l-25 -128c-1 -7 -5 -10 -13 -10h-81c-7 0 -8 4 -8 10zM298 293l-170 -199h131z" />
    <glyph glyph-name="five.posn" horiz-adv-x="535" 
d="M26 152l103 340c2 7 5 10 12 10h341c7 0 8 -4 8 -10l-15 -74c-1 -7 -5 -10 -12 -10h-261l-51 -152c40 25 85 35 133 35c107 0 166 -77 166 -174c0 -161 -101 -255 -254 -255c-108 0 -194 75 -194 180v10c1 11 8 15 15 15h69c8 0 12 -3 13 -15c3 -66 42 -96 112 -96
c77 0 137 53 137 142c0 63 -37 99 -101 99c-45 0 -79 -13 -125 -46c-5 -4 -11 -9 -20 -9h-68c-7 0 -8 4 -8 10z" />
    <glyph glyph-name="six.posn" horiz-adv-x="556" 
d="M30 212c0 195 98 428 300 428c98 0 172 -62 172 -155c0 -6 0 -13 -1 -20c-2 -9 -7 -10 -13 -10h-71c-7 0 -9 3 -10 10c-6 55 -30 81 -88 81c-64 0 -119 -46 -152 -166c47 31 91 40 137 40c101 0 171 -63 171 -177c0 -153 -101 -253 -251 -253c-112 0 -194 67 -194 222z
M267 326c-72 0 -131 -58 -131 -144c0 -64 32 -98 97 -98c74 0 134 68 134 141c0 60 -34 101 -100 101z" />
    <glyph glyph-name="seven.posn" horiz-adv-x="450" 
d="M44 418l15 74c1 7 5 10 12 10h370c7 0 8 -4 8 -10l-10 -49c-2 -9 -4 -15 -10 -26l-305 -548c-4 -6 -8 -7 -13 -7h-86c-6 0 -8 2 -8 7c0 1 0 2 2 6l298 533h-265c-7 0 -8 4 -8 10z" />
    <glyph glyph-name="eight.posn" horiz-adv-x="523" 
d="M96 448c0 113 94 192 217 192c100 0 168 -53 168 -156c0 -63 -38 -119 -95 -150c30 -21 58 -58 58 -126c0 -142 -100 -218 -238 -218c-105 0 -183 60 -183 161c0 86 49 155 122 185c-27 27 -49 60 -49 112zM247 282c-65 0 -118 -52 -118 -113c0 -56 34 -85 92 -85
c64 0 117 45 117 114c0 48 -33 84 -91 84zM300 546c-55 0 -102 -36 -102 -98c0 -45 31 -72 78 -72c57 0 103 38 103 96c0 48 -35 74 -79 74z" />
    <glyph glyph-name="nine.posn" horiz-adv-x="559" 
d="M485 290c0 -195 -98 -428 -300 -428c-98 0 -172 62 -172 155c0 6 0 13 1 20c2 9 7 10 13 10h71c7 0 9 -3 10 -10c6 -55 30 -81 88 -81c64 0 119 46 152 166c-47 -31 -91 -40 -137 -40c-101 0 -171 63 -171 177c0 153 101 253 251 253c112 0 194 -67 194 -222zM248 176
c72 0 131 58 131 144c0 64 -32 98 -97 98c-74 0 -134 -68 -134 -141c0 -60 34 -101 100 -101z" />
    <glyph glyph-name="ampersand.alt" horiz-adv-x="644" 
d="M613 330h-88l-17 -80c-42 -197 -152 -260 -281 -260c-125 0 -208 67 -208 193c0 94 58 169 152 207c-29 27 -57 59 -57 127c0 122 97 193 229 193h102c7 0 9 -4 9 -10l-16 -78c-1 -7 -5 -10 -12 -10h-94c-59 0 -121 -31 -121 -100c0 -57 39 -84 105 -84h122l18 95
c1 7 5 10 12 10h87c7 0 8 -4 8 -10l-19 -95h88c7 0 9 -3 9 -11l-15 -76c-1 -6 -5 -11 -13 -11zM404 253l15 77h-128c-84 0 -164 -53 -164 -145c0 -64 46 -97 112 -97c72 0 143 50 165 165z" />
    <glyph glyph-name="Amacron" unicode="&#x100;" horiz-adv-x="613" 
d="M443 10l-30 183h-269l-101 -183c-4 -7 -6 -10 -14 -10h-92c-7 0 -9 4 -9 8c0 3 1 5 3 8l376 674c4 7 6 10 13 10h102c7 0 10 -3 11 -10l115 -674c0 -11 -4 -16 -14 -16h-81c-6 0 -9 3 -10 10zM352 567l-152 -274h197zM279 794l13 70c1 7 5 10 12 10h200c7 0 8 -4 8 -10
l-13 -70c-1 -7 -5 -10 -12 -10h-200c-7 0 -8 4 -8 10z" />
    <glyph glyph-name="amacron" unicode="&#x101;" horiz-adv-x="605" 
d="M556 492l-93 -482c-1 -7 -5 -10 -12 -10h-82c-7 0 -8 4 -8 10l5 27c-41 -32 -84 -47 -148 -47c-108 0 -198 72 -198 223c0 169 112 299 288 299c67 0 112 -23 141 -49l5 29c1 7 5 10 12 10h82c7 0 8 -4 8 -10zM246 84c100 0 174 88 174 204c0 79 -43 130 -120 130
c-104 0 -172 -92 -172 -203c0 -83 47 -131 118 -131zM224 596l13 70c1 7 5 10 12 10h200c7 0 8 -4 8 -10l-13 -70c-1 -7 -5 -10 -12 -10h-200c-7 0 -8 4 -8 10z" />
    <glyph glyph-name="Abreve" unicode="&#x102;" horiz-adv-x="613" 
d="M443 10l-30 183h-269l-101 -183c-4 -7 -6 -10 -14 -10h-92c-7 0 -9 4 -9 8c0 3 1 5 3 8l376 674c4 7 6 10 13 10h102c7 0 10 -3 11 -10l115 -674c0 -11 -4 -16 -14 -16h-81c-6 0 -9 3 -10 10zM352 567l-152 -274h197zM292 890h61c7 0 7 -4 7 -10v-11c0 -27 14 -42 42 -42
c29 0 49 18 56 53c1 7 5 10 12 10h62c7 0 8 -3 8 -10c-15 -88 -68 -129 -148 -129c-68 0 -114 43 -114 107c0 7 1 15 2 22s5 10 12 10z" />
    <glyph glyph-name="abreve" unicode="&#x103;" horiz-adv-x="605" 
d="M556 492l-93 -482c-1 -7 -5 -10 -12 -10h-82c-7 0 -8 4 -8 10l5 27c-41 -32 -84 -47 -148 -47c-108 0 -198 72 -198 223c0 169 112 299 288 299c67 0 112 -23 141 -49l5 29c1 7 5 10 12 10h82c7 0 8 -4 8 -10zM246 84c100 0 174 88 174 204c0 79 -43 130 -120 130
c-104 0 -172 -92 -172 -203c0 -83 47 -131 118 -131zM235 692h61c7 0 7 -4 7 -10v-11c0 -27 14 -42 42 -42c29 0 49 18 56 53c1 7 5 10 12 10h62c7 0 8 -3 8 -10c-15 -88 -68 -129 -148 -129c-68 0 -114 43 -114 107c0 7 1 15 2 22s5 10 12 10z" />
    <glyph glyph-name="Aogonek" unicode="&#x104;" horiz-adv-x="613" 
d="M444 3l-31 190h-269l-101 -183c-4 -7 -6 -10 -14 -10h-92c-7 0 -9 4 -9 8c0 3 1 5 3 8l376 674c4 7 6 10 13 10h102c7 0 10 -3 11 -10l115 -674c0 -10 -3 -14 -10 -16c-33 -8 -63 -31 -63 -68c0 -25 17 -37 47 -37h16c7 0 9 -3 9 -10l-10 -50c-1 -7 -6 -10 -12 -10h-44
c-61 0 -105 24 -105 85c0 39 29 73 68 93zM352 567l-152 -274h197z" />
    <glyph glyph-name="aogonek" unicode="&#x105;" horiz-adv-x="605" 
d="M556 492l-93 -482c-1 -6 -4 -9 -9 -10c-33 -8 -63 -31 -63 -68c0 -25 17 -37 47 -37h16c7 0 9 -3 9 -10l-10 -50c-1 -7 -6 -10 -12 -10h-44c-61 0 -105 24 -105 85c0 39 28 73 68 93l6 34c-41 -32 -84 -47 -148 -47c-108 0 -198 72 -198 223c0 169 112 299 288 299
c67 0 112 -23 141 -49l5 29c1 7 5 10 12 10h82c7 0 8 -4 8 -10zM246 84c100 0 174 88 174 204c0 81 -43 130 -120 130c-104 0 -172 -93 -172 -203c0 -83 47 -131 118 -131z" />
    <glyph glyph-name="Aringacute" unicode="&#x1fa;" horiz-adv-x="613" 
d="M282 724c0 64 50 106 110 106c48 0 84 -29 84 -78c0 -36 -16 -65 -40 -83l112 -653c0 -11 -4 -16 -14 -16h-81c-6 0 -9 3 -10 10l-30 183h-269l-101 -183c-4 -7 -6 -10 -14 -10h-92c-7 0 -9 4 -9 8c0 3 1 5 3 8l367 658c-10 13 -16 30 -16 50zM352 567l-152 -274h197z
M334 862l93 126c5 7 10 10 17 10h112c6 0 8 -5 3 -10l-128 -127c-6 -6 -11 -9 -20 -9h-74c-5 0 -7 5 -3 10zM384 776c-24 0 -43 -18 -43 -42c0 -21 11 -34 33 -34c24 0 43 18 43 42c0 21 -11 34 -33 34z" />
    <glyph glyph-name="aringacute" unicode="&#x1fb;" horiz-adv-x="605" 
d="M556 492l-93 -482c-1 -7 -5 -10 -12 -10h-82c-7 0 -8 4 -8 10l5 27c-41 -32 -84 -47 -148 -47c-108 0 -198 72 -198 223c0 169 112 299 288 299c67 0 112 -23 141 -49l5 29c1 7 5 10 12 10h82c7 0 8 -4 8 -10zM246 84c100 0 174 88 174 204c0 79 -43 130 -120 130
c-104 0 -172 -92 -172 -203c0 -83 47 -131 118 -131zM244 614c0 64 50 106 110 106c48 0 84 -29 84 -78c0 -64 -50 -106 -110 -106c-48 0 -84 29 -84 78zM346 666c-24 0 -43 -18 -43 -42c0 -21 11 -34 33 -34c24 0 43 18 43 42c0 21 -11 34 -33 34zM297 762l93 126
c5 7 10 10 17 10h112c6 0 8 -5 3 -10l-128 -127c-6 -6 -11 -9 -20 -9h-74c-5 0 -7 5 -3 10z" />
    <glyph glyph-name="AEacute" unicode="&#x1fc;" horiz-adv-x="846" 
d="M462 318l-42 -218h332c7 0 8 -4 8 -10l-16 -80c-1 -7 -5 -10 -12 -10h-430c-7 0 -8 4 -8 10l36 183h-183l-109 -183c-4 -7 -6 -10 -14 -10h-88c-7 0 -9 2 -9 7c0 3 1 5 3 9l402 674c4 7 8 10 16 10h506c7 0 8 -4 8 -10l-16 -80c-1 -7 -5 -10 -12 -10h-317l-35 -182h287
c7 0 8 -4 8 -10l-16 -80c-1 -7 -5 -10 -12 -10h-287zM388 600l-182 -307h143l60 307h-21zM505 762l93 126c5 7 10 10 17 10h112c6 0 8 -5 3 -10l-128 -127c-6 -6 -11 -9 -20 -9h-74c-5 0 -7 5 -3 10z" />
    <glyph glyph-name="aeacute" unicode="&#x1fd;" horiz-adv-x="943" 
d="M609 84c65 0 107 22 143 75c5 8 8 9 15 9h87c5 0 6 -3 6 -7c0 -2 0 -3 -3 -10c-50 -112 -137 -161 -255 -161c-82 0 -151 34 -189 98c-48 -63 -122 -98 -216 -98c-95 0 -176 45 -176 151c0 115 105 181 225 181c66 0 100 -8 141 -21l4 18c2 9 3 18 3 26
c0 43 -27 77 -97 77c-45 0 -85 -22 -110 -64c-4 -8 -9 -9 -15 -9h-79c-9 0 -11 7 -9 13c30 91 110 150 226 150c82 0 136 -31 162 -80c53 49 124 80 208 80c144 0 212 -97 212 -214c0 -12 0 -28 -5 -50l-4 -19c-1 -7 -5 -10 -12 -10h-381c-1 -7 -1 -9 -1 -12
c0 -77 43 -123 120 -123zM370 211c-44 14 -72 21 -124 21c-56 0 -119 -24 -119 -84c0 -44 26 -64 76 -64c77 0 151 45 167 127zM669 418c-62 0 -130 -33 -165 -109h282c-3 72 -43 109 -117 109zM423 564l93 126c5 7 10 10 17 10h112c6 0 8 -5 3 -10l-128 -127
c-6 -6 -11 -9 -20 -9h-74c-5 0 -7 5 -3 10z" />
    <glyph glyph-name="Cacute" unicode="&#x106;" horiz-adv-x="690" 
d="M546 247h86c8 0 10 -3 10 -10c-44 -158 -175 -247 -340 -247c-153 0 -272 106 -272 293c0 219 146 427 394 427c156 0 263 -89 263 -247c0 -8 -4 -10 -12 -10h-84c-6 0 -10 3 -11 10c-13 95 -71 147 -172 147c-159 0 -266 -157 -266 -316c0 -140 72 -204 177 -204
c97 0 166 46 214 147c3 7 7 10 13 10zM362 762l93 126c5 7 10 10 17 10h112c6 0 8 -5 3 -10l-128 -127c-6 -6 -11 -9 -20 -9h-74c-5 0 -7 5 -3 10z" />
    <glyph glyph-name="cacute" unicode="&#x107;" horiz-adv-x="561" 
d="M307 418c-101 0 -177 -86 -177 -195c0 -99 48 -139 122 -139c58 0 108 30 140 86c4 8 9 9 16 9h85c4 0 6 -2 6 -6c0 -2 -1 -5 -3 -10c-48 -116 -137 -173 -255 -173c-135 0 -219 85 -219 225c0 170 121 297 298 297c128 0 208 -80 208 -173c0 -4 -1 -8 -1 -10
c-1 -4 -5 -6 -9 -6h-81c-7 0 -11 1 -12 9c-11 61 -54 86 -118 86zM261 564l93 126c5 7 10 10 17 10h112c6 0 8 -5 3 -10l-128 -127c-6 -6 -11 -9 -20 -9h-74c-5 0 -7 5 -3 10z" />
    <glyph glyph-name="Ccircumflex" unicode="&#x108;" horiz-adv-x="690" 
d="M546 247h86c8 0 10 -3 10 -10c-44 -158 -175 -247 -340 -247c-153 0 -272 106 -272 293c0 219 146 427 394 427c156 0 263 -89 263 -247c0 -8 -4 -10 -12 -10h-84c-6 0 -10 3 -11 10c-13 95 -71 147 -172 147c-159 0 -266 -157 -266 -316c0 -140 72 -204 177 -204
c97 0 166 46 214 147c3 7 7 10 13 10zM521 890l80 -134c3 -5 -1 -10 -7 -10h-74c-8 0 -12 3 -17 9l-42 53l-67 -53c-7 -6 -11 -9 -19 -9h-81c-6 0 -8 5 -3 10l132 134c6 6 9 8 16 8h68c7 0 10 -2 14 -8z" />
    <glyph glyph-name="ccircumflex" unicode="&#x109;" horiz-adv-x="561" 
d="M307 418c-101 0 -177 -86 -177 -195c0 -99 48 -139 122 -139c58 0 108 30 140 86c4 8 9 9 16 9h85c4 0 6 -2 6 -6c0 -2 -1 -5 -3 -10c-48 -116 -137 -173 -255 -173c-135 0 -219 85 -219 225c0 170 121 297 298 297c128 0 208 -80 208 -173c0 -4 -1 -8 -1 -10
c-1 -4 -5 -6 -9 -6h-81c-7 0 -11 1 -12 9c-11 61 -54 86 -118 86zM416 692l80 -134c3 -5 -1 -10 -7 -10h-74c-8 0 -12 3 -17 9l-42 53l-67 -53c-7 -6 -11 -9 -19 -9h-81c-6 0 -8 5 -3 10l132 134c6 6 9 8 16 8h68c7 0 10 -2 14 -8z" />
    <glyph glyph-name="Cdotaccent" unicode="&#x10a;" horiz-adv-x="690" 
d="M546 247h86c8 0 10 -3 10 -10c-44 -158 -175 -247 -340 -247c-153 0 -272 106 -272 293c0 219 146 427 394 427c156 0 263 -89 263 -247c0 -8 -4 -10 -12 -10h-84c-6 0 -10 3 -11 10c-13 95 -71 147 -172 147c-159 0 -266 -157 -266 -316c0 -140 72 -204 177 -204
c97 0 166 46 214 147c3 7 7 10 13 10zM375 788l20 100c1 7 5 10 12 10h104c7 0 8 -4 8 -10l-20 -100c-1 -7 -5 -10 -12 -10h-104c-7 0 -8 4 -8 10z" />
    <glyph glyph-name="cdotaccent" unicode="&#x10b;" horiz-adv-x="561" 
d="M307 418c-101 0 -177 -86 -177 -195c0 -99 48 -139 122 -139c58 0 108 30 140 86c4 8 9 9 16 9h85c4 0 6 -2 6 -6c0 -2 -1 -5 -3 -10c-48 -116 -137 -173 -255 -173c-135 0 -219 85 -219 225c0 170 121 297 298 297c128 0 208 -80 208 -173c0 -4 -1 -8 -1 -10
c-1 -4 -5 -6 -9 -6h-81c-7 0 -11 1 -12 9c-11 61 -54 86 -118 86zM271 590l20 100c1 7 5 10 12 10h104c7 0 8 -4 8 -10l-20 -100c-1 -7 -5 -10 -12 -10h-104c-7 0 -8 4 -8 10z" />
    <glyph glyph-name="Ccaron" unicode="&#x10c;" horiz-adv-x="690" 
d="M546 247h86c8 0 10 -3 10 -10c-44 -158 -175 -247 -340 -247c-153 0 -272 106 -272 293c0 219 146 427 394 427c156 0 263 -89 263 -247c0 -8 -4 -10 -12 -10h-84c-6 0 -10 3 -11 10c-13 95 -71 147 -172 147c-159 0 -266 -157 -266 -316c0 -140 72 -204 177 -204
c97 0 166 46 214 147c3 7 7 10 13 10zM393 754l-80 134c-3 5 1 10 7 10h74c8 0 12 -3 17 -9l42 -53l67 53c7 6 11 9 19 9h81c6 0 8 -5 3 -10l-132 -134c-6 -6 -9 -8 -16 -8h-68c-7 0 -10 2 -14 8z" />
    <glyph glyph-name="ccaron" unicode="&#x10d;" horiz-adv-x="561" 
d="M307 418c-101 0 -177 -86 -177 -195c0 -99 48 -139 122 -139c58 0 108 30 140 86c4 8 9 9 16 9h85c4 0 6 -2 6 -6c0 -2 -1 -5 -3 -10c-48 -116 -137 -173 -255 -173c-135 0 -219 85 -219 225c0 170 121 297 298 297c128 0 208 -80 208 -173c0 -4 -1 -8 -1 -10
c-1 -4 -5 -6 -9 -6h-81c-7 0 -11 1 -12 9c-11 61 -54 86 -118 86zM284 556l-80 134c-3 5 1 10 7 10h74c8 0 12 -3 17 -9l42 -53l67 53c7 6 11 9 19 9h81c6 0 8 -5 3 -10l-132 -134c-6 -6 -9 -8 -16 -8h-68c-7 0 -10 2 -14 8z" />
    <glyph glyph-name="Dcaron" unicode="&#x10e;" horiz-adv-x="672" 
d="M20 10l133 680c1 7 5 10 12 10h197c161 0 275 -100 275 -278c0 -233 -145 -422 -407 -422h-202c-7 0 -8 4 -8 10zM340 600h-97l-97 -500h89c190 0 290 140 290 302c0 143 -71 198 -185 198zM297 754l-80 134c-3 5 1 10 7 10h74c8 0 12 -3 17 -9l42 -53l67 53
c7 6 11 9 19 9h81c6 0 8 -5 3 -10l-132 -134c-6 -6 -9 -8 -16 -8h-68c-7 0 -10 2 -14 8z" />
    <glyph glyph-name="dcaron" unicode="&#x10f;" horiz-adv-x="747" 
d="M595 690l-133 -680c-1 -7 -5 -10 -12 -10h-82c-7 0 -8 4 -8 10l7 32c-45 -38 -94 -52 -146 -52c-115 0 -199 73 -199 221c0 159 109 301 279 301c71 0 114 -25 146 -58l46 236c1 7 5 10 12 10h82c7 0 8 -4 8 -10zM420 286c0 75 -40 132 -119 132
c-106 0 -171 -97 -171 -207c0 -81 44 -127 113 -127c112 0 177 96 177 202zM647 526c42 0 61 17 66 50l2 12h-47c-7 0 -9 4 -9 10l18 92c1 7 5 10 12 10h98c7 0 8 -4 8 -10l-23 -121c-12 -62 -45 -93 -107 -93h-27c-7 0 -8 4 -8 10l6 30c1 7 4 10 11 10z" />
    <glyph glyph-name="Dcroat" unicode="&#x110;" horiz-adv-x="690" 
d="M40 10l57 291h-75c-7 0 -8 4 -8 10l15 78c1 7 5 10 12 10h75l57 291c1 7 5 10 12 10h197c161 0 275 -91 275 -272c0 -239 -145 -428 -407 -428h-202c-7 0 -8 4 -8 10zM360 600h-97l-39 -201h141c7 0 8 -4 8 -10l-15 -78c-1 -7 -5 -10 -12 -10h-141l-39 -201h89
c190 0 290 140 290 302c0 143 -71 198 -185 198z" />
    <glyph glyph-name="dcroat" unicode="&#x111;" horiz-adv-x="609" 
d="M566 541l-104 -531c-1 -7 -5 -10 -12 -10h-82c-7 0 -8 4 -8 10l7 32c-45 -38 -94 -52 -146 -52c-115 0 -199 73 -199 221c0 159 109 301 279 301c71 0 114 -25 146 -58l17 87h-129c-7 0 -8 4 -8 10l13 70c1 7 5 10 12 10h129l12 59c1 7 5 10 12 10h82c7 0 8 -4 8 -10
l-12 -59h54c7 0 8 -4 8 -10l-13 -70c-1 -7 -5 -10 -12 -10h-54zM420 286c0 75 -40 132 -119 132c-106 0 -171 -97 -171 -207c0 -81 44 -127 113 -127c112 0 177 96 177 202z" />
    <glyph glyph-name="Emacron" unicode="&#x112;" horiz-adv-x="569" 
d="M188 318l-42 -218h330c7 0 9 -4 9 -10l-16 -80c-1 -7 -5 -10 -12 -10h-429c-7 0 -8 4 -8 10l133 680c1 7 5 10 12 10h413c7 0 9 -4 9 -10l-16 -80c-1 -7 -5 -10 -12 -10h-316l-35 -182h285c7 0 9 -4 9 -10l-16 -80c-1 -7 -5 -10 -12 -10h-286zM279 794l13 70
c1 7 5 10 12 10h200c7 0 8 -4 8 -10l-13 -70c-1 -7 -5 -10 -12 -10h-200c-7 0 -8 4 -8 10z" />
    <glyph glyph-name="emacron" unicode="&#x113;" horiz-adv-x="584" 
d="M250 84c65 0 107 22 143 75c5 8 8 9 15 9h87c5 0 6 -3 6 -7c0 -2 0 -3 -3 -10c-50 -112 -137 -161 -255 -161c-127 0 -221 82 -221 229c0 157 124 293 299 293c144 0 212 -97 212 -214c0 -12 0 -28 -5 -50l-4 -19c-1 -7 -5 -10 -12 -10h-382v-12c0 -77 43 -123 120 -123z
M310 418c-62 0 -130 -33 -165 -109h282c-3 72 -43 109 -117 109zM229 596l13 70c1 7 5 10 12 10h200c7 0 8 -4 8 -10l-13 -70c-1 -7 -5 -10 -12 -10h-200c-7 0 -8 4 -8 10z" />
    <glyph glyph-name="Ebreve" unicode="&#x114;" horiz-adv-x="569" 
d="M188 318l-42 -218h330c7 0 9 -4 9 -10l-16 -80c-1 -7 -5 -10 -12 -10h-429c-7 0 -8 4 -8 10l133 680c1 7 5 10 12 10h413c7 0 9 -4 9 -10l-16 -80c-1 -7 -5 -10 -12 -10h-316l-35 -182h285c7 0 9 -4 9 -10l-16 -80c-1 -7 -5 -10 -12 -10h-286zM283 890h61c7 0 7 -4 7 -10
v-11c0 -27 14 -42 42 -42c29 0 49 18 56 53c1 7 5 10 12 10h62c7 0 8 -3 8 -10c-15 -88 -68 -129 -148 -129c-68 0 -114 43 -114 107c0 7 1 15 2 22s5 10 12 10z" />
    <glyph glyph-name="ebreve" unicode="&#x115;" horiz-adv-x="584" 
d="M250 84c65 0 107 22 143 75c5 8 8 9 15 9h87c5 0 6 -3 6 -7c0 -2 0 -3 -3 -10c-50 -112 -137 -161 -255 -161c-127 0 -221 82 -221 229c0 157 124 293 299 293c144 0 212 -97 212 -214c0 -12 0 -28 -5 -50l-4 -19c-1 -7 -5 -10 -12 -10h-382v-12c0 -77 43 -123 120 -123z
M310 418c-62 0 -130 -33 -165 -109h282c-3 72 -43 109 -117 109zM237 692h61c7 0 7 -4 7 -10v-11c0 -27 14 -42 42 -42c29 0 49 18 56 53c1 7 5 10 12 10h62c7 0 8 -3 8 -10c-15 -88 -68 -129 -148 -129c-68 0 -114 43 -114 107c0 7 1 15 2 22s5 10 12 10z" />
    <glyph glyph-name="Edotaccent" unicode="&#x116;" horiz-adv-x="569" 
d="M188 318l-42 -218h330c7 0 9 -4 9 -10l-16 -80c-1 -7 -5 -10 -12 -10h-429c-7 0 -8 4 -8 10l133 680c1 7 5 10 12 10h413c7 0 9 -4 9 -10l-16 -80c-1 -7 -5 -10 -12 -10h-316l-35 -182h285c7 0 9 -4 9 -10l-16 -80c-1 -7 -5 -10 -12 -10h-286zM312 788l20 100
c1 7 5 10 12 10h104c7 0 8 -4 8 -10l-20 -100c-1 -7 -5 -10 -12 -10h-104c-7 0 -8 4 -8 10z" />
    <glyph glyph-name="edotaccent" unicode="&#x117;" horiz-adv-x="584" 
d="M250 84c65 0 107 22 143 75c5 8 8 9 15 9h87c5 0 6 -3 6 -7c0 -2 0 -3 -3 -10c-50 -112 -137 -161 -255 -161c-127 0 -221 82 -221 229c0 157 124 293 299 293c144 0 212 -97 212 -214c0 -12 0 -28 -5 -50l-4 -19c-1 -7 -5 -10 -12 -10h-382v-12c0 -77 43 -123 120 -123z
M310 418c-62 0 -130 -33 -165 -109h282c-3 72 -43 109 -117 109zM274 590l20 100c1 7 5 10 12 10h104c7 0 8 -4 8 -10l-20 -100c-1 -7 -5 -10 -12 -10h-104c-7 0 -8 4 -8 10z" />
    <glyph glyph-name="Eogonek" unicode="&#x118;" horiz-adv-x="569" 
d="M188 318l-42 -218h330c7 0 9 -4 9 -10l-16 -80c-1 -6 -4 -9 -9 -10c-32 -8 -63 -31 -63 -68c0 -25 17 -37 47 -37h16c7 0 9 -3 9 -10l-10 -50c-1 -7 -6 -10 -12 -10h-44c-61 0 -105 24 -105 85c0 37 28 70 64 90h-334c-7 0 -8 4 -8 10l133 680c1 7 5 10 12 10h413
c7 0 9 -4 9 -10l-16 -80c-1 -7 -5 -10 -12 -10h-316l-35 -182h285c7 0 9 -4 9 -10l-16 -80c-1 -7 -5 -10 -12 -10h-286z" />
    <glyph glyph-name="eogonek" unicode="&#x119;" horiz-adv-x="584" 
d="M250 84c65 0 107 22 143 75c5 8 8 9 15 9h87c5 0 6 -3 6 -7c0 -2 0 -3 -3 -10c-37 -83 -94 -131 -169 -151c-33 -9 -64 -31 -64 -68c0 -25 17 -37 47 -37h16c7 0 9 -3 9 -10l-10 -50c-1 -7 -6 -10 -12 -10h-44c-61 0 -105 24 -105 85c0 32 21 59 51 80
c-113 10 -195 92 -195 229c0 157 124 293 299 293c144 0 212 -97 212 -214c0 -12 0 -28 -5 -50l-4 -19c-1 -7 -5 -10 -12 -10h-381c-1 -7 -1 -9 -1 -12c0 -77 43 -123 120 -123zM310 418c-62 0 -130 -33 -165 -109h282c-3 72 -43 109 -117 109z" />
    <glyph glyph-name="Ecaron" unicode="&#x11a;" horiz-adv-x="569" 
d="M188 318l-42 -218h330c7 0 9 -4 9 -10l-16 -80c-1 -7 -5 -10 -12 -10h-429c-7 0 -8 4 -8 10l133 680c1 7 5 10 12 10h413c7 0 9 -4 9 -10l-16 -80c-1 -7 -5 -10 -12 -10h-316l-35 -182h285c7 0 9 -4 9 -10l-16 -80c-1 -7 -5 -10 -12 -10h-286zM334 754l-80 134
c-3 5 1 10 7 10h74c8 0 12 -3 17 -9l42 -53l67 53c7 6 11 9 19 9h81c6 0 8 -5 3 -10l-132 -134c-6 -6 -9 -8 -16 -8h-68c-7 0 -10 2 -14 8z" />
    <glyph glyph-name="ecaron" unicode="&#x11b;" horiz-adv-x="584" 
d="M250 84c65 0 107 22 143 75c5 8 8 9 15 9h87c5 0 6 -3 6 -7c0 -2 0 -3 -3 -10c-50 -112 -137 -161 -255 -161c-127 0 -221 82 -221 229c0 157 124 293 299 293c144 0 212 -97 212 -214c0 -12 0 -28 -5 -50l-4 -19c-1 -7 -5 -10 -12 -10h-382v-12c0 -77 43 -123 120 -123z
M310 418c-62 0 -130 -33 -165 -109h282c-3 72 -43 109 -117 109zM291 556l-80 134c-3 5 1 10 7 10h74c8 0 12 -3 17 -9l42 -53l67 53c7 6 11 9 19 9h81c6 0 8 -5 3 -10l-132 -134c-6 -6 -9 -8 -16 -8h-68c-7 0 -10 2 -14 8z" />
    <glyph glyph-name="uni018E" unicode="&#x18e;" horiz-adv-x="569" 
d="M381 382l42 218h-330c-7 0 -9 4 -9 10l16 80c1 7 5 10 12 10h429c7 0 8 -4 8 -10l-133 -680c-1 -7 -5 -10 -12 -10h-413c-7 0 -9 4 -9 10l16 80c1 7 5 10 12 10h316l35 182h-285c-7 0 -9 4 -9 10l16 80c1 7 5 10 12 10h286z" />
    <glyph glyph-name="uni018F" unicode="&#x18f;" horiz-adv-x="584" 
d="M298 418c-65 0 -107 -22 -143 -75c-5 -8 -8 -9 -15 -9h-87c-5 0 -6 3 -6 7c0 2 0 3 3 10c50 112 137 161 255 161c127 0 221 -82 221 -229c0 -157 -124 -293 -299 -293c-144 0 -212 97 -212 214c0 12 0 28 5 50l4 19c1 7 5 10 12 10h382v12c0 77 -43 123 -120 123z
M238 84c62 0 130 33 165 109h-282c3 -72 43 -109 117 -109z" />
    <glyph glyph-name="Gcircumflex" unicode="&#x11c;" horiz-adv-x="720" 
d="M375 362h287c7 0 8 -4 8 -10l-35 -183c-3 -17 -10 -29 -18 -38c-86 -99 -176 -141 -300 -141c-162 0 -285 94 -285 294c0 222 152 426 397 426c145 0 255 -76 255 -216c-1 -8 -4 -10 -12 -10h-86c-6 0 -10 3 -11 10c-10 85 -74 116 -159 116c-168 0 -272 -174 -272 -318
c0 -129 65 -202 181 -202c87 0 162 34 206 89l16 83h-192c-7 0 -8 4 -8 10l16 80c1 7 5 10 12 10zM508 890l80 -134c3 -5 -1 -10 -7 -10h-74c-8 0 -12 3 -17 9l-42 53l-67 -53c-7 -6 -11 -9 -19 -9h-81c-6 0 -8 5 -3 10l132 134c6 6 9 8 16 8h68c7 0 10 -2 14 -8z" />
    <glyph glyph-name="gcircumflex" unicode="&#x11d;" horiz-adv-x="609" 
d="M207 -208c-127 0 -192 59 -192 169c1 8 5 10 12 10h78c7 0 8 -3 8 -10c0 -53 43 -75 105 -75c88 0 134 56 150 144l3 17c-52 -33 -86 -45 -147 -45c-114 0 -187 70 -187 204c0 157 99 306 274 306c65 0 108 -18 140 -52l7 32c2 7 5 10 12 10h82c7 0 8 -4 8 -10l-88 -452
c-35 -182 -118 -248 -265 -248zM262 96c99 0 163 98 163 195c0 82 -36 127 -110 127c-107 0 -172 -95 -172 -197c0 -80 40 -125 119 -125zM403 692l80 -134c3 -5 -1 -10 -7 -10h-74c-8 0 -12 3 -17 9l-42 53l-67 -53c-7 -6 -11 -9 -19 -9h-81c-6 0 -8 5 -3 10l132 134
c6 6 9 8 16 8h68c7 0 10 -2 14 -8z" />
    <glyph glyph-name="Gbreve" unicode="&#x11e;" horiz-adv-x="720" 
d="M375 362h287c7 0 8 -4 8 -10l-35 -183c-3 -17 -10 -29 -18 -38c-86 -99 -176 -141 -300 -141c-162 0 -285 94 -285 294c0 222 152 426 397 426c145 0 255 -76 255 -216c-1 -8 -4 -10 -12 -10h-86c-6 0 -10 3 -11 10c-10 85 -74 116 -159 116c-168 0 -272 -174 -272 -318
c0 -129 65 -202 181 -202c87 0 162 34 206 89l16 83h-192c-7 0 -8 4 -8 10l16 80c1 7 5 10 12 10zM355 890h61c7 0 7 -4 7 -10v-11c0 -27 14 -42 42 -42c29 0 49 18 56 53c1 7 5 10 12 10h62c7 0 8 -3 8 -10c-15 -88 -68 -129 -148 -129c-68 0 -114 43 -114 107
c0 7 1 15 2 22s5 10 12 10z" />
    <glyph glyph-name="gbreve" unicode="&#x11f;" horiz-adv-x="609" 
d="M207 -208c-127 0 -192 59 -192 169c1 8 5 10 12 10h78c7 0 8 -3 8 -10c0 -53 43 -75 105 -75c88 0 134 56 150 144l3 17c-52 -33 -86 -45 -147 -45c-114 0 -187 70 -187 204c0 157 99 306 274 306c65 0 108 -18 140 -52l7 32c2 7 5 10 12 10h82c7 0 8 -4 8 -10l-88 -452
c-35 -182 -118 -248 -265 -248zM262 96c99 0 163 98 163 195c0 82 -36 127 -110 127c-107 0 -172 -95 -172 -197c0 -80 40 -125 119 -125zM247 692h61c7 0 7 -4 7 -10v-11c0 -27 14 -42 42 -42c29 0 49 18 56 53c1 7 5 10 12 10h62c7 0 8 -3 8 -10
c-15 -88 -68 -129 -148 -129c-68 0 -114 43 -114 107c0 7 1 15 2 22s5 10 12 10z" />
    <glyph glyph-name="Gdotaccent" unicode="&#x120;" horiz-adv-x="720" 
d="M375 362h287c7 0 8 -4 8 -10l-35 -183c-3 -17 -10 -29 -18 -38c-86 -99 -176 -141 -300 -141c-162 0 -285 94 -285 294c0 222 152 426 397 426c145 0 255 -76 255 -216c-1 -8 -4 -10 -12 -10h-86c-6 0 -10 3 -11 10c-10 85 -74 116 -159 116c-168 0 -272 -174 -272 -318
c0 -129 65 -202 181 -202c87 0 162 34 206 89l16 83h-192c-7 0 -8 4 -8 10l16 80c1 7 5 10 12 10zM396 788l20 100c1 7 5 10 12 10h104c7 0 8 -4 8 -10l-20 -100c-1 -7 -5 -10 -12 -10h-104c-7 0 -8 4 -8 10z" />
    <glyph glyph-name="gdotaccent" unicode="&#x121;" horiz-adv-x="609" 
d="M207 -208c-127 0 -192 59 -192 169c1 8 5 10 12 10h78c7 0 8 -3 8 -10c0 -53 43 -75 105 -75c88 0 134 56 150 144l3 17c-52 -33 -86 -45 -147 -45c-114 0 -187 70 -187 204c0 157 99 306 274 306c65 0 108 -18 140 -52l7 32c2 7 5 10 12 10h82c7 0 8 -4 8 -10l-88 -452
c-35 -182 -118 -248 -265 -248zM262 96c99 0 163 98 163 195c0 82 -36 127 -110 127c-107 0 -172 -95 -172 -197c0 -80 40 -125 119 -125zM285 590l20 100c1 7 5 10 12 10h104c7 0 8 -4 8 -10l-20 -100c-1 -7 -5 -10 -12 -10h-104c-7 0 -8 4 -8 10z" />
    <glyph glyph-name="Gcommaaccent" unicode="&#x122;" horiz-adv-x="720" 
d="M375 362h287c7 0 8 -4 8 -10l-35 -183c-3 -17 -10 -29 -18 -38c-86 -99 -176 -141 -300 -141c-162 0 -285 94 -285 294c0 222 152 426 397 426c145 0 255 -76 255 -216c-1 -8 -4 -10 -12 -10h-86c-6 0 -10 3 -11 10c-10 85 -74 116 -159 116c-168 0 -272 -174 -272 -318
c0 -129 65 -202 181 -202c87 0 162 34 206 89l16 83h-192c-7 0 -8 4 -8 10l16 80c1 7 5 10 12 10zM225 -208c35 0 49 10 54 42l2 12h-47c-7 0 -8 4 -8 10l18 92c1 7 4 10 11 10h92c7 0 9 -4 9 -10l-24 -121c-11 -56 -39 -85 -92 -85h-24c-7 0 -9 3 -9 10l6 30
c1 7 5 10 12 10z" />
    <glyph glyph-name="gcommaaccent" unicode="&#x123;" horiz-adv-x="609" 
d="M207 -208c-127 0 -192 59 -192 169c1 8 5 10 12 10h78c7 0 8 -3 8 -10c0 -53 43 -75 105 -75c88 0 134 56 150 144l3 17c-52 -33 -86 -45 -147 -45c-114 0 -187 70 -187 204c0 157 99 306 274 306c65 0 108 -18 140 -52l7 32c2 7 5 10 12 10h82c7 0 8 -4 8 -10l-88 -452
c-35 -182 -118 -248 -265 -248zM262 96c99 0 163 98 163 195c0 82 -36 127 -110 127c-107 0 -172 -95 -172 -197c0 -80 40 -125 119 -125zM418 721c-42 0 -61 -17 -66 -50l-2 -12h47c7 0 9 -4 9 -10l-18 -92c-1 -7 -5 -10 -12 -10h-98c-7 0 -8 4 -8 10l23 121
c12 62 45 93 107 93h27c7 0 8 -4 8 -10l-6 -30c-1 -7 -4 -10 -11 -10z" />
    <glyph glyph-name="Hcircumflex" unicode="&#x124;" horiz-adv-x="701" 
d="M191 315l-60 -305c-1 -7 -5 -10 -12 -10h-88c-7 0 -8 4 -8 10l133 680c1 7 5 10 12 10h88c7 0 8 -4 8 -10l-54 -275h306l54 275c1 7 5 10 12 10h88c7 0 8 -4 8 -10l-133 -680c-1 -7 -5 -10 -12 -10h-88c-7 0 -8 4 -8 10l60 305h-306zM502 890l80 -134c3 -5 -1 -10 -7 -10
h-74c-8 0 -12 3 -17 9l-42 53l-67 -53c-7 -6 -11 -9 -19 -9h-81c-6 0 -8 5 -3 10l132 134c6 6 9 8 16 8h68c7 0 10 -2 14 -8z" />
    <glyph glyph-name="hcircumflex" unicode="&#x125;" horiz-adv-x="607" 
d="M20 10l133 680c1 7 5 10 12 10h82c7 0 8 -4 8 -10l-46 -237c55 41 109 59 171 59c100 0 152 -54 152 -134c0 -15 -2 -30 -5 -47l-63 -321c-1 -7 -5 -10 -12 -10h-82c-7 0 -8 4 -8 10l58 294c2 12 4 24 4 34c0 46 -24 80 -83 80c-75 0 -151 -56 -173 -171l-46 -237
c-1 -7 -5 -10 -12 -10h-82c-7 0 -8 4 -8 10zM407 890l80 -134c3 -5 -1 -10 -7 -10h-74c-8 0 -12 3 -17 9l-42 53l-67 -53c-7 -6 -11 -9 -19 -9h-81c-6 0 -8 5 -3 10l132 134c6 6 9 8 16 8h68c7 0 10 -2 14 -8z" />
    <glyph glyph-name="Hbar" unicode="&#x126;" horiz-adv-x="701" 
d="M191 315l-60 -305c-1 -7 -5 -10 -12 -10h-88c-7 0 -8 4 -8 10l95 489h-70c-7 0 -8 4 -8 10l16 76c1 7 5 10 12 10h69l19 95c1 7 5 10 12 10h88c7 0 8 -4 8 -10l-19 -95h306l19 95c1 7 5 10 12 10h88c7 0 8 -4 8 -10l-19 -95h71c7 0 8 -4 8 -10l-16 -76
c-1 -7 -5 -10 -12 -10h-70l-95 -489c-1 -7 -5 -10 -12 -10h-88c-7 0 -8 4 -8 10l60 305h-306zM210 415h306l16 84h-306z" />
    <glyph glyph-name="hbar" unicode="&#x127;" horiz-adv-x="607" 
d="M20 10l104 531h-61c-7 0 -8 4 -8 10l13 70c1 7 5 10 12 10h61l12 59c1 7 5 10 12 10h82c7 0 8 -4 8 -10l-12 -59h118c7 0 8 -4 8 -10l-13 -70c-1 -7 -5 -10 -12 -10h-118l-17 -88c55 41 109 59 171 59c100 0 152 -54 152 -134c0 -15 -2 -30 -5 -47l-63 -321
c-1 -7 -5 -10 -12 -10h-82c-7 0 -8 4 -8 10l58 294c2 12 4 24 4 34c0 46 -24 80 -83 80c-75 0 -151 -56 -173 -171l-46 -237c-1 -7 -5 -10 -12 -10h-82c-7 0 -8 4 -8 10z" />
    <glyph glyph-name="Itilde" unicode="&#x128;" horiz-adv-x="277" 
d="M18 10l133 680c1 7 5 10 12 10h88c7 0 8 -4 8 -10l-133 -680c-1 -7 -5 -10 -12 -10h-88c-7 0 -8 4 -8 10zM54 862c39 28 84 46 120 46c75 0 72 -41 126 -41c21 0 37 5 66 24c3 2 5 2 8 2s5 -2 8 -8l27 -50c2 -4 2 -6 2 -8c0 -3 -1 -5 -5 -8c-39 -28 -84 -46 -120 -46
c-75 0 -72 41 -126 41c-21 0 -37 -5 -66 -24c-3 -2 -5 -2 -8 -2s-5 2 -8 8l-27 50c-2 4 -2 6 -2 8c0 3 1 5 5 8z" />
    <glyph glyph-name="itilde" unicode="&#x129;" horiz-adv-x="268" 
d="M21 10l93 482c1 7 5 10 12 10h82c7 0 8 -4 8 -10l-94 -482c-1 -7 -5 -10 -12 -10h-81c-7 0 -8 4 -8 10zM20 664c39 28 84 46 120 46c75 0 72 -41 126 -41c21 0 37 5 66 24c3 2 5 2 8 2s5 -2 8 -8l27 -50c2 -4 2 -6 2 -8c0 -3 -1 -5 -5 -8c-39 -28 -84 -46 -120 -46
c-75 0 -72 41 -126 41c-21 0 -37 -5 -66 -24c-3 -2 -5 -2 -8 -2s-5 2 -8 8l-27 50c-2 4 -2 6 -2 8c0 3 1 5 5 8z" />
    <glyph glyph-name="uni012A" unicode="&#x12a;" horiz-adv-x="277" 
d="M18 10l133 680c1 7 5 10 12 10h88c7 0 8 -4 8 -10l-133 -680c-1 -7 -5 -10 -12 -10h-88c-7 0 -8 4 -8 10zM108 794l13 70c1 7 5 10 12 10h200c7 0 8 -4 8 -10l-13 -70c-1 -7 -5 -10 -12 -10h-200c-7 0 -8 4 -8 10z" />
    <glyph glyph-name="imacron" unicode="&#x12b;" horiz-adv-x="268" 
d="M21 10l93 482c1 7 5 10 12 10h82c7 0 8 -4 8 -10l-94 -482c-1 -7 -5 -10 -12 -10h-81c-7 0 -8 4 -8 10zM70 596l13 70c1 7 5 10 12 10h200c7 0 8 -4 8 -10l-13 -70c-1 -7 -5 -10 -12 -10h-200c-7 0 -8 4 -8 10z" />
    <glyph glyph-name="Ibreve" unicode="&#x12c;" horiz-adv-x="277" 
d="M18 10l133 680c1 7 5 10 12 10h88c7 0 8 -4 8 -10l-133 -680c-1 -7 -5 -10 -12 -10h-88c-7 0 -8 4 -8 10zM120 890h61c7 0 7 -4 7 -10v-11c0 -27 14 -42 42 -42c29 0 49 18 56 53c1 7 5 10 12 10h62c7 0 8 -3 8 -10c-15 -88 -68 -129 -148 -129c-68 0 -114 43 -114 107
c0 7 1 15 2 22s5 10 12 10z" />
    <glyph glyph-name="uni012D" unicode="&#x12d;" horiz-adv-x="268" 
d="M21 10l93 482c1 7 5 10 12 10h82c7 0 8 -4 8 -10l-94 -482c-1 -7 -5 -10 -12 -10h-81c-7 0 -8 4 -8 10zM79 692h61c7 0 7 -4 7 -10v-11c0 -27 14 -42 42 -42c29 0 49 18 56 53c1 7 5 10 12 10h62c7 0 8 -3 8 -10c-15 -88 -68 -129 -148 -129c-68 0 -114 43 -114 107
c0 7 1 15 2 22s5 10 12 10z" />
    <glyph glyph-name="Iogonek" unicode="&#x12e;" horiz-adv-x="277" 
d="M16 1l135 689c1 7 5 10 12 10h88c7 0 8 -4 8 -10l-133 -680c-1 -6 -4 -9 -9 -10c-32 -9 -63 -31 -63 -68c0 -25 17 -37 47 -37h16c7 0 9 -3 9 -10l-10 -50c-1 -7 -6 -10 -12 -10h-44c-61 0 -105 24 -105 85c0 38 28 74 61 91z" />
    <glyph glyph-name="iogonek" unicode="&#x12f;" horiz-adv-x="268" 
d="M20 3l94 489c1 7 5 10 12 10h82c7 0 8 -4 8 -10l-94 -482c-1 -6 -4 -9 -9 -10c-32 -8 -63 -31 -63 -68c0 -25 17 -37 47 -37h16c7 0 9 -3 9 -10l-10 -50c-1 -7 -6 -10 -12 -10h-44c-61 0 -105 24 -105 85c0 40 29 73 69 93zM122 590l20 100c1 7 5 10 12 10h104
c7 0 8 -4 8 -10l-20 -100c-1 -7 -5 -10 -12 -10h-104c-7 0 -8 4 -8 10z" />
    <glyph glyph-name="Idotaccent" unicode="&#x130;" horiz-adv-x="277" 
d="M18 10l133 680c1 7 5 10 12 10h88c7 0 8 -4 8 -10l-133 -680c-1 -7 -5 -10 -12 -10h-88c-7 0 -8 4 -8 10zM160 788l20 100c1 7 5 10 12 10h104c7 0 8 -4 8 -10l-20 -100c-1 -7 -5 -10 -12 -10h-104c-7 0 -8 4 -8 10z" />
    <glyph glyph-name="IJ" unicode="&#x132;" horiz-adv-x="827" 
d="M18 10l133 680c1 7 5 10 12 10h88c7 0 8 -4 8 -10l-133 -680c-1 -7 -5 -10 -12 -10h-88c-7 0 -8 4 -8 10zM811 690l-84 -429c-42 -213 -143 -271 -282 -271c-125 0 -193 77 -193 183c0 16 0 29 3 46c1 7 6 10 13 10h86c7 0 9 -4 9 -10c0 -2 -3 -23 -3 -37
c0 -58 35 -92 100 -92c81 0 135 48 159 170l84 430c1 7 5 10 12 10h87c7 0 9 -4 9 -10z" />
    <glyph glyph-name="ij" unicode="&#x133;" horiz-adv-x="537" 
d="M21 10l93 482c1 7 5 10 12 10h82c7 0 8 -4 8 -10l-94 -482c-1 -7 -5 -10 -12 -10h-81c-7 0 -8 4 -8 10zM122 590l20 100c1 7 5 10 12 10h104c7 0 8 -4 8 -10l-20 -100c-1 -7 -5 -10 -12 -10h-104c-7 0 -8 4 -8 10zM282 -31l101 523c1 7 5 10 12 10h82c7 0 8 -4 8 -10
l-100 -519c-17 -90 -38 -130 -64 -173c-3 -5 -6 -8 -9 -8s-5 1 -10 3l-70 26c-4 2 -6 4 -6 7c0 1 0 3 1 5c27 47 44 80 55 136zM391 590l20 100c1 7 5 10 12 10h104c7 0 8 -4 8 -10l-20 -100c-1 -7 -4 -10 -11 -10h-104c-7 0 -9 4 -9 10z" />
    <glyph glyph-name="Jcircumflex" unicode="&#x134;" horiz-adv-x="567" 
d="M551 690l-84 -429c-42 -213 -143 -271 -282 -271c-125 0 -193 77 -193 183c0 16 0 29 3 46c1 7 6 10 13 10h86c7 0 9 -4 9 -10c0 -2 -3 -23 -3 -37c0 -58 35 -92 100 -92c81 0 135 48 159 170l84 430c1 7 5 10 12 10h87c7 0 9 -4 9 -10zM580 890l80 -134
c3 -5 -1 -10 -7 -10h-74c-8 0 -12 3 -17 9l-42 53l-67 -53c-7 -6 -11 -9 -19 -9h-81c-6 0 -8 5 -3 10l132 134c6 6 9 8 16 8h68c7 0 10 -2 14 -8z" />
    <glyph glyph-name="jcircumflex" unicode="&#x135;" horiz-adv-x="280" 
d="M13 -31l101 523c1 7 5 10 12 10h82c7 0 8 -4 8 -10l-100 -519c-17 -90 -38 -130 -64 -173c-3 -5 -6 -8 -9 -8s-5 1 -10 3l-70 26c-4 2 -6 4 -6 7c0 1 0 3 1 5c27 47 44 80 55 136zM250 692l80 -134c3 -5 -1 -10 -7 -10h-74c-8 0 -12 3 -17 9l-42 53l-67 -53
c-7 -6 -11 -9 -19 -9h-81c-6 0 -8 5 -3 10l132 134c6 6 9 8 16 8h68c7 0 10 -2 14 -8z" />
    <glyph glyph-name="Kcommaaccent" unicode="&#x136;" horiz-adv-x="626" 
d="M261 690l-53 -268l304 268c7 7 11 10 18 10h110c9 0 11 -8 5 -14l-279 -252l189 -420c4 -9 -2 -14 -10 -14h-96c-10 0 -15 5 -19 15l-153 344l-98 -87l-51 -262c-1 -7 -5 -10 -12 -10h-88c-7 0 -8 4 -8 10l133 680c1 7 5 10 12 10h88c7 0 8 -4 8 -10zM187 -208
c35 0 49 10 54 42l2 12h-47c-7 0 -8 4 -8 10l18 92c1 7 4 10 11 10h92c7 0 9 -4 9 -10l-24 -121c-11 -56 -39 -85 -92 -85h-24c-7 0 -9 3 -9 10l6 30c1 7 5 10 12 10z" />
    <glyph glyph-name="kcommaaccent" unicode="&#x137;" horiz-adv-x="545" 
d="M532 487l-207 -171l133 -301c1 -3 1 -5 1 -7c-1 -5 -4 -8 -11 -8h-86c-7 0 -11 2 -14 9l-107 244l-79 -64l-35 -179c-1 -7 -5 -10 -12 -10h-82c-7 0 -8 4 -8 10l133 680c1 7 5 10 12 10h82c7 0 8 -4 8 -10l-72 -369l217 172c6 5 11 9 18 9h108c5 0 7 -2 7 -6
c0 -3 -2 -6 -6 -9zM152 -208c35 0 49 10 54 42l2 12h-47c-7 0 -8 4 -8 10l18 92c1 7 4 10 11 10h92c7 0 9 -4 9 -10l-24 -121c-11 -56 -39 -85 -92 -85h-24c-7 0 -9 3 -9 10l6 30c1 7 5 10 12 10z" />
    <glyph glyph-name="kgreenlandic" unicode="&#x138;" horiz-adv-x="545" 
d="M532 487l-207 -171l133 -301c1 -3 1 -5 1 -7c-1 -5 -4 -8 -11 -8h-86c-7 0 -11 2 -14 9l-107 244l-79 -64l-35 -179c-1 -7 -5 -10 -12 -10h-82c-7 0 -8 4 -8 10l94 482c1 7 5 10 12 10h82c7 0 8 -4 8 -10l-33 -171l217 172c6 5 11 9 18 9h108c6 0 7 -3 7 -7
c-1 -2 -2 -5 -6 -8z" />
    <glyph glyph-name="Lacute" unicode="&#x139;" horiz-adv-x="548" 
d="M20 10l133 680c1 7 5 10 12 10h88c7 0 8 -4 8 -10l-115 -590h348c7 0 8 -4 8 -10l-16 -80c-1 -7 -5 -10 -12 -10h-446c-7 0 -8 4 -8 10zM171 762l93 126c5 7 10 10 17 10h112c6 0 8 -5 3 -10l-128 -127c-6 -6 -11 -9 -20 -9h-74c-5 0 -7 5 -3 10z" />
    <glyph glyph-name="lacute" unicode="&#x13a;" horiz-adv-x="269" 
d="M21 10l133 680c1 7 5 10 12 10h82c7 0 8 -4 8 -10l-133 -680c-1 -7 -5 -10 -12 -10h-82c-7 0 -8 4 -8 10zM172 762l93 126c5 7 10 10 17 10h112c6 0 8 -5 3 -10l-128 -127c-6 -6 -11 -9 -20 -9h-74c-5 0 -7 5 -3 10z" />
    <glyph glyph-name="Lcommaaccent" unicode="&#x13b;" horiz-adv-x="548" 
d="M20 10l133 680c1 7 5 10 12 10h88c7 0 8 -4 8 -10l-115 -590h348c7 0 8 -4 8 -10l-16 -80c-1 -7 -5 -10 -12 -10h-446c-7 0 -8 4 -8 10zM174 -208c35 0 49 10 54 42l2 12h-47c-7 0 -8 4 -8 10l18 92c1 7 4 10 11 10h92c7 0 9 -4 9 -10l-24 -121c-11 -56 -39 -85 -92 -85
h-24c-7 0 -9 3 -9 10l6 30c1 7 5 10 12 10z" />
    <glyph glyph-name="lcommaaccent" unicode="&#x13c;" horiz-adv-x="269" 
d="M21 10l133 680c1 7 5 10 12 10h82c7 0 8 -4 8 -10l-133 -680c-1 -7 -5 -10 -12 -10h-82c-7 0 -8 4 -8 10zM-14 -208c35 0 49 10 54 42l2 12h-47c-7 0 -8 4 -8 10l18 92c1 7 4 10 11 10h92c7 0 9 -4 9 -10l-24 -121c-11 -56 -39 -85 -92 -85h-24c-7 0 -9 3 -9 10l6 30
c1 7 5 10 12 10z" />
    <glyph glyph-name="Lcaron" unicode="&#x13d;" horiz-adv-x="548" 
d="M20 10l133 680c1 7 5 10 12 10h88c7 0 8 -4 8 -10l-115 -590h348c7 0 8 -4 8 -10l-16 -80c-1 -7 -5 -10 -12 -10h-446c-7 0 -8 4 -8 10zM373 526c42 0 61 17 66 50l2 12h-47c-7 0 -9 4 -9 10l18 92c1 7 5 10 12 10h98c7 0 8 -4 8 -10l-23 -121c-12 -62 -45 -93 -107 -93
h-27c-7 0 -8 4 -8 10l6 30c1 7 4 10 11 10z" />
    <glyph glyph-name="lcaron" unicode="&#x13e;" horiz-adv-x="427" 
d="M21 10l133 680c1 7 5 10 12 10h82c7 0 8 -4 8 -10l-133 -680c-1 -7 -5 -10 -12 -10h-82c-7 0 -8 4 -8 10zM314 526c42 0 61 17 66 50l2 12h-47c-7 0 -9 4 -9 10l18 92c1 7 5 10 12 10h98c7 0 8 -4 8 -10l-23 -121c-12 -62 -45 -93 -107 -93h-27c-7 0 -8 4 -8 10l6 30
c1 7 4 10 11 10z" />
    <glyph glyph-name="Ldot" unicode="&#x13f;" horiz-adv-x="548" 
d="M20 10l133 680c1 7 5 10 12 10h88c7 0 8 -4 8 -10l-115 -590h348c7 0 8 -4 8 -10l-16 -80c-1 -7 -5 -10 -12 -10h-446c-7 0 -8 4 -8 10zM328 412h92c7 0 8 -4 8 -10l-17 -92c-1 -7 -5 -10 -12 -10h-92c-7 0 -8 4 -8 10l17 92c1 7 5 10 12 10z" />
    <glyph glyph-name="ldot" unicode="&#x140;" horiz-adv-x="406" 
d="M21 10l133 680c1 7 5 10 12 10h82c7 0 8 -4 8 -10l-133 -680c-1 -7 -5 -10 -12 -10h-82c-7 0 -8 4 -8 10zM285 412h92c7 0 8 -4 8 -10l-17 -92c-1 -7 -5 -10 -12 -10h-92c-7 0 -8 4 -8 10l17 92c1 7 5 10 12 10z" />
    <glyph glyph-name="Nacute" unicode="&#x143;" horiz-adv-x="717" 
d="M552 0h-91c-7 0 -11 1 -14 8l-218 514l-101 -512c-1 -7 -5 -10 -12 -10h-88c-7 0 -8 4 -8 10l133 680c2 8 5 10 12 10h91c7 0 11 -1 14 -8l218 -514l101 512c1 7 5 10 12 10h88c7 0 8 -4 8 -10l-133 -680c-1 -7 -5 -10 -12 -10zM371 762l93 126c5 7 10 10 17 10h112
c6 0 8 -5 3 -10l-128 -127c-6 -6 -11 -9 -20 -9h-74c-5 0 -7 5 -3 10z" />
    <glyph glyph-name="nacute" unicode="&#x144;" horiz-adv-x="595" 
d="M20 10l93 482c1 7 5 10 12 10h82c7 0 8 -4 8 -10l-8 -45c47 40 99 65 172 65c93 0 143 -52 143 -130c0 -14 -2 -29 -5 -45l-63 -327c-1 -7 -5 -10 -12 -10h-82c-7 0 -8 4 -8 10l58 298c3 13 4 24 4 35c0 45 -28 75 -81 75c-71 0 -143 -57 -165 -171l-46 -237
c-1 -7 -5 -10 -12 -10h-82c-7 0 -8 3 -8 10zM281 564l93 126c5 7 10 10 17 10h112c6 0 8 -5 3 -10l-128 -127c-6 -6 -11 -9 -20 -9h-74c-5 0 -7 5 -3 10z" />
    <glyph glyph-name="Ncommaaccent" unicode="&#x145;" horiz-adv-x="717" 
d="M552 0h-91c-7 0 -11 1 -14 8l-218 514l-101 -512c-1 -7 -5 -10 -12 -10h-88c-7 0 -8 4 -8 10l133 680c2 8 5 10 12 10h91c7 0 11 -1 14 -8l218 -514l101 512c1 7 5 10 12 10h88c7 0 8 -4 8 -10l-133 -680c-1 -7 -5 -10 -12 -10zM214 -208c35 0 49 10 54 42l2 12h-47
c-7 0 -8 4 -8 10l18 92c1 7 4 10 11 10h92c7 0 9 -4 9 -10l-24 -121c-11 -56 -39 -85 -92 -85h-24c-7 0 -9 3 -9 10l6 30c1 7 5 10 12 10z" />
    <glyph glyph-name="ncommaaccent" unicode="&#x146;" horiz-adv-x="595" 
d="M20 10l93 482c1 7 5 10 12 10h82c7 0 8 -4 8 -10l-8 -45c47 40 99 65 172 65c93 0 143 -52 143 -130c0 -14 -2 -29 -5 -45l-63 -327c-1 -7 -5 -10 -12 -10h-82c-7 0 -8 4 -8 10l58 298c3 13 4 24 4 35c0 45 -28 75 -81 75c-71 0 -143 -57 -165 -171l-46 -237
c-1 -7 -5 -10 -12 -10h-82c-7 0 -8 3 -8 10zM162 -208c35 0 49 10 54 42l2 12h-47c-7 0 -8 4 -8 10l18 92c1 7 4 10 11 10h92c7 0 9 -4 9 -10l-24 -121c-11 -56 -39 -85 -92 -85h-24c-7 0 -9 3 -9 10l6 30c1 7 5 10 12 10z" />
    <glyph glyph-name="Ncaron" unicode="&#x147;" horiz-adv-x="717" 
d="M552 0h-91c-7 0 -11 1 -14 8l-218 514l-101 -512c-1 -7 -5 -10 -12 -10h-88c-7 0 -8 4 -8 10l133 680c2 8 5 10 12 10h91c7 0 11 -1 14 -8l218 -514l101 512c1 7 5 10 12 10h88c7 0 8 -4 8 -10l-133 -680c-1 -7 -5 -10 -12 -10zM372 754l-80 134c-3 5 1 10 7 10h74
c8 0 12 -3 17 -9l42 -53l67 53c7 6 11 9 19 9h81c6 0 8 -5 3 -10l-132 -134c-6 -6 -9 -8 -16 -8h-68c-7 0 -10 2 -14 8z" />
    <glyph glyph-name="ncaron" unicode="&#x148;" horiz-adv-x="595" 
d="M20 10l93 482c1 7 5 10 12 10h82c7 0 8 -4 8 -10l-8 -45c47 40 99 65 172 65c93 0 143 -52 143 -130c0 -14 -2 -29 -5 -45l-63 -327c-1 -7 -5 -10 -12 -10h-82c-7 0 -8 4 -8 10l58 298c3 13 4 24 4 35c0 45 -28 75 -81 75c-71 0 -143 -57 -165 -171l-46 -237
c-1 -7 -5 -10 -12 -10h-82c-7 0 -8 3 -8 10zM292 556l-80 134c-3 5 1 10 7 10h74c8 0 12 -3 17 -9l42 -53l67 53c7 6 11 9 19 9h81c6 0 8 -5 3 -10l-132 -134c-6 -6 -9 -8 -16 -8h-68c-7 0 -10 2 -14 8z" />
    <glyph glyph-name="napostrophe" unicode="&#x149;" horiz-adv-x="679" 
d="M104 10l93 482c1 7 5 10 12 10h82c7 0 8 -4 8 -10l-8 -45c47 40 99 65 172 65c93 0 143 -52 143 -130c0 -14 -2 -29 -5 -45l-63 -327c-1 -7 -5 -10 -12 -10h-82c-7 0 -8 4 -8 10l58 298c3 13 4 24 4 35c0 45 -28 75 -81 75c-71 0 -143 -57 -165 -171l-46 -237
c-1 -7 -5 -10 -12 -10h-82c-7 0 -8 3 -8 10zM50 556c42 0 61 17 66 50l2 12h-47c-7 0 -9 4 -9 10l18 92c1 7 5 10 12 10h98c7 0 8 -4 8 -10l-23 -121c-12 -62 -45 -93 -107 -93h-27c-7 0 -8 4 -8 10l6 30c1 7 4 10 11 10z" />
    <glyph glyph-name="Eng" unicode="&#x14a;" horiz-adv-x="717" 
d="M300 -108c99 0 138 22 153 108l-226 520l-99 -510c-1 -7 -5 -10 -12 -10h-88c-7 0 -8 4 -8 10l132 680c1 7 5 10 12 10h94c7 0 11 -2 14 -8l219 -497l96 495c1 7 5 10 12 10h88c7 0 8 -4 8 -10l-134 -690c-33 -171 -95 -208 -281 -208c-7 0 -8 4 -8 10l16 80
c1 7 5 10 12 10z" />
    <glyph glyph-name="eng" unicode="&#x14b;" horiz-adv-x="595" 
d="M20 10l93 482c1 7 5 10 12 10h82c7 0 8 -4 8 -10l-8 -45c47 40 99 65 172 65c93 0 143 -52 143 -130c0 -14 -2 -29 -5 -45l-70 -364c-17 -90 -38 -130 -64 -173c-3 -5 -6 -8 -9 -8s-5 1 -10 3l-70 26c-4 2 -6 4 -6 7c0 1 0 3 1 5c27 47 44 80 55 136l66 339
c3 13 4 24 4 35c0 45 -28 75 -81 75c-71 0 -143 -57 -165 -171l-46 -237c-1 -7 -5 -10 -12 -10h-82c-7 0 -8 4 -8 10z" />
    <glyph glyph-name="Omacron" unicode="&#x14c;" horiz-adv-x="751" 
d="M314 -10c-159 0 -287 104 -287 297c0 221 155 423 409 423c159 0 287 -104 287 -297c0 -221 -155 -423 -409 -423zM327 90c172 0 284 157 284 308c0 144 -79 212 -188 212c-172 0 -284 -157 -284 -308c0 -144 79 -212 188 -212zM337 794l13 70c1 7 5 10 12 10h200
c7 0 8 -4 8 -10l-13 -70c-1 -7 -5 -10 -12 -10h-200c-7 0 -8 4 -8 10z" />
    <glyph glyph-name="omacron" unicode="&#x14d;" horiz-adv-x="608" 
d="M22 212c0 174 128 300 306 300c139 0 228 -95 228 -222c0 -174 -128 -300 -306 -300c-139 0 -228 95 -228 222zM318 418c-105 0 -188 -80 -188 -197c0 -87 48 -137 130 -137c105 0 188 80 188 197c0 87 -48 137 -130 137zM244 596l13 70c1 7 5 10 12 10h200
c7 0 8 -4 8 -10l-13 -70c-1 -7 -5 -10 -12 -10h-200c-7 0 -8 4 -8 10z" />
    <glyph glyph-name="Obreve" unicode="&#x14e;" horiz-adv-x="751" 
d="M314 -10c-159 0 -287 104 -287 297c0 221 155 423 409 423c159 0 287 -104 287 -297c0 -221 -155 -423 -409 -423zM327 90c172 0 284 157 284 308c0 144 -79 212 -188 212c-172 0 -284 -157 -284 -308c0 -144 79 -212 188 -212zM352 890h61c7 0 7 -4 7 -10v-11
c0 -27 14 -42 42 -42c29 0 49 18 56 53c1 7 5 10 12 10h62c7 0 8 -3 8 -10c-15 -88 -68 -129 -148 -129c-68 0 -114 43 -114 107c0 7 1 15 2 22s5 10 12 10z" />
    <glyph glyph-name="obreve" unicode="&#x14f;" horiz-adv-x="608" 
d="M22 212c0 174 128 300 306 300c139 0 228 -95 228 -222c0 -174 -128 -300 -306 -300c-139 0 -228 95 -228 222zM318 418c-105 0 -188 -80 -188 -197c0 -87 48 -137 130 -137c105 0 188 80 188 197c0 87 -48 137 -130 137zM247 692h61c7 0 7 -4 7 -10v-11
c0 -27 14 -42 42 -42c29 0 49 18 56 53c1 7 5 10 12 10h62c7 0 8 -3 8 -10c-15 -88 -68 -129 -148 -129c-68 0 -114 43 -114 107c0 7 1 15 2 22s5 10 12 10z" />
    <glyph glyph-name="Ohungarumlaut" unicode="&#x150;" horiz-adv-x="751" 
d="M314 -10c-159 0 -287 104 -287 297c0 221 155 423 409 423c159 0 287 -104 287 -297c0 -221 -155 -423 -409 -423zM327 90c172 0 284 157 284 308c0 144 -79 212 -188 212c-172 0 -284 -157 -284 -308c0 -144 79 -212 188 -212zM281 762l93 126c5 7 10 10 17 10h112
c7 0 8 -5 3 -10l-128 -127c-6 -6 -11 -9 -20 -9h-74c-6 0 -7 5 -3 10zM471 762l93 126c5 7 10 10 17 10h112c7 0 8 -5 3 -10l-128 -127c-6 -6 -11 -9 -20 -9h-74c-6 0 -7 5 -3 10z" />
    <glyph glyph-name="ohungarumlaut" unicode="&#x151;" horiz-adv-x="608" 
d="M22 212c0 174 128 300 306 300c139 0 228 -95 228 -222c0 -174 -128 -300 -306 -300c-139 0 -228 95 -228 222zM318 418c-105 0 -188 -80 -188 -197c0 -87 48 -137 130 -137c105 0 188 80 188 197c0 87 -48 137 -130 137zM166 564l93 126c5 7 10 10 17 10h112
c7 0 8 -5 3 -10l-128 -127c-6 -6 -11 -9 -20 -9h-74c-6 0 -7 5 -3 10zM356 564l93 126c5 7 10 10 17 10h112c7 0 8 -5 3 -10l-128 -127c-6 -6 -11 -9 -20 -9h-74c-6 0 -7 5 -3 10z" />
    <glyph glyph-name="Racute" unicode="&#x154;" horiz-adv-x="635" 
d="M20 10l133 680c1 7 5 10 12 10h258c113 0 187 -57 187 -164c0 -105 -64 -171 -169 -204l88 -322s1 -3 1 -5s-1 -5 -7 -5h-96c-7 0 -10 3 -12 10l-85 314h-141l-61 -314c-1 -7 -5 -10 -12 -10h-88c-7 0 -8 4 -8 10zM243 600l-34 -176h162c78 0 127 33 127 99
c0 46 -26 77 -94 77h-161zM296 762l93 126c5 7 10 10 17 10h112c6 0 8 -5 3 -10l-128 -127c-6 -6 -11 -9 -20 -9h-74c-5 0 -7 5 -3 10z" />
    <glyph glyph-name="racute" unicode="&#x155;" horiz-adv-x="442" 
d="M448 478l-16 -79c-1 -6 -4 -11 -10 -11c-1 0 -2 0 -6 2c-38 20 -59 28 -95 28c-69 0 -130 -54 -148 -147l-50 -261c-1 -7 -5 -10 -12 -10h-82c-7 0 -8 4 -8 10l93 482c1 7 5 10 12 10h82c7 0 8 -4 8 -10l-6 -36c38 34 85 56 142 56c35 0 62 -6 87 -16c7 -3 10 -5 10 -11
c0 -1 0 -2 -1 -7zM223 564l93 126c5 7 10 10 17 10h112c6 0 8 -5 3 -10l-128 -127c-6 -6 -11 -9 -20 -9h-74c-5 0 -7 5 -3 10z" />
    <glyph glyph-name="Rcommaaccent" unicode="&#x156;" horiz-adv-x="635" 
d="M20 10l133 680c1 7 5 10 12 10h258c113 0 187 -57 187 -164c0 -105 -64 -171 -169 -204l88 -322s1 -3 1 -5s-1 -5 -7 -5h-96c-7 0 -10 3 -12 10l-85 314h-141l-61 -314c-1 -7 -5 -10 -12 -10h-88c-7 0 -8 4 -8 10zM243 600l-34 -176h162c78 0 127 33 127 99
c0 46 -26 77 -94 77h-161zM189 -208c35 0 49 10 54 42l2 12h-47c-7 0 -8 4 -8 10l18 92c1 7 4 10 11 10h92c7 0 9 -4 9 -10l-24 -121c-11 -56 -39 -85 -92 -85h-24c-7 0 -9 3 -9 10l6 30c1 7 5 10 12 10z" />
    <glyph glyph-name="rcommaaccent" unicode="&#x157;" horiz-adv-x="442" 
d="M448 478l-16 -79c-1 -6 -4 -11 -10 -11c-1 0 -2 0 -6 2c-38 20 -59 28 -95 28c-69 0 -130 -54 -148 -147l-50 -261c-1 -7 -5 -10 -12 -10h-82c-7 0 -8 4 -8 10l93 482c1 7 5 10 12 10h82c7 0 8 -4 8 -10l-6 -36c38 34 85 56 142 56c35 0 62 -6 87 -16c7 -3 10 -5 10 -11
c0 -1 0 -2 -1 -7zM54 -208c35 0 49 10 54 42l2 12h-47c-7 0 -8 4 -8 10l18 92c1 7 4 10 11 10h92c7 0 9 -4 9 -10l-24 -121c-11 -56 -39 -85 -92 -85h-24c-7 0 -9 3 -9 10l6 30c1 7 5 10 12 10z" />
    <glyph glyph-name="Rcaron" unicode="&#x158;" horiz-adv-x="635" 
d="M20 10l133 680c1 7 5 10 12 10h258c113 0 187 -57 187 -164c0 -105 -64 -171 -169 -204l88 -322s1 -3 1 -5s-1 -5 -7 -5h-96c-7 0 -10 3 -12 10l-85 314h-141l-61 -314c-1 -7 -5 -10 -12 -10h-88c-7 0 -8 4 -8 10zM243 600l-34 -176h162c78 0 127 33 127 99
c0 46 -26 77 -94 77h-161zM311 754l-80 134c-3 5 1 10 7 10h74c8 0 12 -3 17 -9l42 -53l67 53c7 6 11 9 19 9h81c6 0 8 -5 3 -10l-132 -134c-6 -6 -9 -8 -16 -8h-68c-7 0 -10 2 -14 8z" />
    <glyph glyph-name="rcaron" unicode="&#x159;" horiz-adv-x="442" 
d="M448 478l-16 -79c-1 -6 -4 -11 -10 -11c-1 0 -2 0 -6 2c-38 20 -59 28 -95 28c-69 0 -130 -54 -148 -147l-50 -261c-1 -7 -5 -10 -12 -10h-82c-7 0 -8 4 -8 10l93 482c1 7 5 10 12 10h82c7 0 8 -4 8 -10l-6 -36c38 34 85 56 142 56c35 0 62 -6 87 -16c7 -3 10 -5 10 -11
c0 -1 0 -2 -1 -7zM247 556l-80 134c-3 5 1 10 7 10h74c8 0 12 -3 17 -9l42 -53l67 53c7 6 11 9 19 9h81c6 0 8 -5 3 -10l-132 -134c-6 -6 -9 -8 -16 -8h-68c-7 0 -10 2 -14 8z" />
    <glyph glyph-name="Sacute" unicode="&#x15a;" horiz-adv-x="589" 
d="M76 502c0 136 126 208 265 208c144 0 224 -82 224 -189v-12c-1 -7 -5 -10 -12 -10h-86c-7 0 -8 3 -8 10c0 62 -53 101 -133 101c-63 0 -144 -27 -144 -97c0 -63 68 -86 155 -112c100 -30 196 -73 196 -175c0 -157 -120 -236 -282 -236c-149 0 -243 86 -243 201
c0 9 1 18 2 27c1 7 5 10 12 10h86c7 0 8 -3 8 -10c0 -78 36 -128 142 -128c83 0 167 34 167 117c0 52 -56 81 -150 107c-128 35 -199 84 -199 188zM282 762l93 126c5 7 10 10 17 10h112c6 0 8 -5 3 -10l-128 -127c-6 -6 -11 -9 -20 -9h-74c-5 0 -7 5 -3 10z" />
    <glyph glyph-name="sacute" unicode="&#x15b;" horiz-adv-x="506" 
d="M434 166c0 -113 -97 -176 -227 -176c-134 0 -195 66 -195 169c0 6 5 10 12 10h82c7 0 8 -3 8 -10c3 -56 35 -75 99 -75c52 0 113 17 113 71c0 30 -33 43 -119 61c-99 21 -149 61 -149 138c0 101 100 158 214 158c118 0 185 -64 185 -150c0 -6 -5 -10 -12 -10h-85
c-6 0 -7 3 -8 10c-7 37 -39 56 -95 56c-39 0 -97 -14 -97 -60c0 -31 30 -50 118 -66c89 -16 156 -52 156 -126zM223 564l93 126c5 7 10 10 17 10h112c6 0 8 -5 3 -10l-128 -127c-6 -6 -11 -9 -20 -9h-74c-5 0 -7 5 -3 10z" />
    <glyph glyph-name="Scircumflex" unicode="&#x15c;" horiz-adv-x="589" 
d="M76 502c0 136 126 208 265 208c144 0 224 -82 224 -189v-12c-1 -7 -5 -10 -12 -10h-86c-7 0 -8 3 -8 10c0 62 -53 101 -133 101c-63 0 -144 -27 -144 -97c0 -63 68 -86 155 -112c100 -30 196 -73 196 -175c0 -157 -120 -236 -282 -236c-149 0 -243 86 -243 201
c0 9 1 18 2 27c1 7 5 10 12 10h86c7 0 8 -3 8 -10c0 -78 36 -128 142 -128c83 0 167 34 167 117c0 52 -56 81 -150 107c-128 35 -199 84 -199 188zM444 890l80 -134c3 -5 -1 -10 -7 -10h-74c-8 0 -12 3 -17 9l-42 53l-67 -53c-7 -6 -11 -9 -19 -9h-81c-6 0 -8 5 -3 10
l132 134c6 6 9 8 16 8h68c7 0 10 -2 14 -8z" />
    <glyph glyph-name="scircumflex" unicode="&#x15d;" horiz-adv-x="506" 
d="M434 166c0 -113 -97 -176 -227 -176c-134 0 -195 66 -195 169c0 6 5 10 12 10h82c7 0 8 -3 8 -10c3 -56 35 -75 99 -75c52 0 113 17 113 71c0 30 -33 43 -119 61c-99 21 -149 61 -149 138c0 101 100 158 214 158c118 0 185 -64 185 -150c0 -6 -5 -10 -12 -10h-85
c-6 0 -7 3 -8 10c-7 37 -39 56 -95 56c-39 0 -97 -14 -97 -60c0 -31 30 -50 118 -66c89 -16 156 -52 156 -126zM370 692l80 -134c3 -5 -1 -10 -7 -10h-74c-8 0 -12 3 -17 9l-42 53l-67 -53c-7 -6 -11 -9 -19 -9h-81c-6 0 -8 5 -3 10l132 134c6 6 9 8 16 8h68
c7 0 10 -2 14 -8z" />
    <glyph glyph-name="Scedilla" unicode="&#x15e;" horiz-adv-x="589" 
d="M180 -111l-16 19c-2 2 -3 4 -3 6s1 4 2 6l36 74c-119 17 -191 96 -191 197c0 9 1 18 2 27c1 7 5 10 12 10h86c7 0 8 -3 8 -10c0 -78 36 -128 142 -128c83 0 167 34 167 117c0 52 -56 81 -150 107c-128 35 -199 84 -199 188c0 136 126 208 265 208c144 0 224 -82 224 -189
v-12c-1 -7 -5 -10 -12 -10h-86c-7 0 -8 3 -8 10c0 62 -53 101 -133 101c-63 0 -144 -27 -144 -97c0 -63 68 -86 155 -112c100 -30 196 -73 196 -175c0 -153 -113 -231 -268 -236l-30 -47c15 4 37 7 53 7c48 0 77 -22 77 -66c0 -63 -58 -92 -128 -92c-49 0 -79 4 -102 10
c-7 2 -9 4 -9 10l8 39c2 8 6 10 12 10c14 0 32 -13 88 -13c27 0 49 6 49 27c0 14 -11 21 -32 21c-18 0 -39 -5 -56 -9c-4 -1 -5 -1 -7 -1c-4 0 -6 1 -8 3z" />
    <glyph glyph-name="scedilla" unicode="&#x15f;" horiz-adv-x="506" 
d="M141 -111l-16 19c-2 2 -3 4 -3 6s1 4 2 6l36 73c-102 14 -148 76 -148 166c0 6 5 10 12 10h82c7 0 8 -3 8 -10c3 -56 35 -75 99 -75c52 0 113 17 113 71c0 30 -33 43 -119 61c-99 21 -149 61 -149 136c0 105 102 160 216 160c116 0 183 -64 183 -150c0 -6 -5 -10 -12 -10
h-85c-6 0 -7 3 -8 10c-7 37 -39 56 -95 56c-39 0 -97 -14 -97 -60c0 -31 30 -50 118 -66c89 -16 156 -52 156 -125c0 -107 -88 -170 -207 -177l-31 -47c15 4 37 7 53 7c48 0 77 -22 77 -66c0 -63 -58 -92 -128 -92c-49 0 -79 4 -102 10c-7 2 -9 4 -9 10l8 39c2 8 6 10 12 10
c14 0 32 -13 88 -13c27 0 49 6 49 27c0 14 -11 21 -32 21c-18 0 -39 -5 -56 -9c-4 -1 -5 -1 -7 -1c-4 0 -6 1 -8 3z" />
    <glyph glyph-name="Tcommaaccent" unicode="&#x162;" horiz-adv-x="517" 
d="M43 610l16 80c1 7 5 10 12 10h498c7 0 8 -4 8 -10l-16 -80c-1 -7 -5 -10 -12 -10h-195l-115 -590c-1 -7 -5 -10 -12 -10h-88c-7 0 -8 4 -8 10l115 590h-195c-7 0 -8 4 -8 10zM100 -208c35 0 49 10 54 42l2 12h-47c-7 0 -8 4 -8 10l18 92c1 7 4 10 11 10h92
c7 0 9 -4 9 -10l-24 -121c-11 -56 -39 -85 -92 -85h-24c-7 0 -9 3 -9 10l6 30c1 7 5 10 12 10z" />
    <glyph glyph-name="tcommaaccent" unicode="&#x163;" horiz-adv-x="413" 
d="M108 -208c35 0 49 10 54 42l2 12h-47c-7 0 -8 4 -8 10l18 92c1 7 4 10 11 10h92c7 0 9 -4 9 -10l-24 -121c-11 -56 -39 -85 -92 -85h-24c-7 0 -9 3 -9 10l6 30c1 7 5 10 12 10zM235 502h157c7 0 8 -4 8 -10l-14 -74c-1 -7 -5 -10 -12 -10h-157l-45 -230
c-2 -11 -2 -22 -2 -30c0 -40 15 -64 60 -64c27 0 55 3 91 17c2 1 4 1 6 1c5 0 7 -3 7 -9l-14 -71c-2 -9 -3 -14 -11 -17c-29 -10 -70 -15 -106 -15c-91 0 -139 49 -139 126c0 12 0 22 3 40l48 252h-86c-7 0 -8 4 -8 10l14 74c1 7 5 10 12 10h86l28 144c1 7 5 10 12 10h81
c7 0 9 -4 9 -10z" />
    <glyph glyph-name="Tcaron" unicode="&#x164;" horiz-adv-x="517" 
d="M43 610l16 80c1 7 5 10 12 10h498c7 0 8 -4 8 -10l-16 -80c-1 -7 -5 -10 -12 -10h-195l-115 -590c-1 -7 -5 -10 -12 -10h-88c-7 0 -8 4 -8 10l115 590h-195c-7 0 -8 4 -8 10zM279 754l-80 134c-3 5 1 10 7 10h74c8 0 12 -3 17 -9l42 -53l67 53c7 6 11 9 19 9h81
c6 0 8 -5 3 -10l-132 -134c-6 -6 -9 -8 -16 -8h-68c-7 0 -10 2 -14 8z" />
    <glyph glyph-name="tcaron" unicode="&#x165;" horiz-adv-x="413" 
d="M338 588c42 0 61 17 66 50l2 12h-47c-7 0 -9 4 -9 10l18 92c1 7 5 10 12 10h98c7 0 8 -4 8 -10l-23 -121c-12 -62 -45 -93 -107 -93h-27c-7 0 -8 4 -8 10l6 30c1 7 4 10 11 10zM235 502h157c7 0 8 -4 8 -10l-14 -74c-1 -7 -5 -10 -12 -10h-157l-45 -230
c-2 -11 -2 -22 -2 -30c0 -40 15 -64 60 -64c27 0 55 3 91 17c2 1 4 1 6 1c5 0 7 -3 7 -9l-14 -71c-2 -9 -3 -14 -11 -17c-29 -10 -70 -15 -106 -15c-91 0 -139 49 -139 126c0 12 0 22 3 40l48 252h-86c-7 0 -8 4 -8 10l14 74c1 7 5 10 12 10h86l28 144c1 7 5 10 12 10h81
c7 0 9 -4 9 -10z" />
    <glyph glyph-name="Tbar" unicode="&#x166;" horiz-adv-x="517" 
d="M43 610l16 80c1 7 5 10 12 10h498c7 0 8 -4 8 -10l-16 -80c-1 -7 -5 -10 -12 -10h-195l-19 -95h171c7 0 8 -4 8 -10l-16 -76c-1 -7 -4 -10 -11 -10h-170l-78 -399c-1 -7 -5 -10 -12 -10h-88c-7 0 -8 4 -8 10l78 399h-172c-7 0 -9 4 -9 10l16 76c1 7 5 10 12 10h171l19 95
h-195c-7 0 -8 4 -8 10z" />
    <glyph glyph-name="tbar" unicode="&#x167;" horiz-adv-x="413" 
d="M235 502h157c7 0 8 -4 8 -10l-14 -74c-1 -7 -5 -10 -12 -10h-157l-15 -77h137c7 0 8 -4 8 -10l-13 -70c-1 -7 -5 -10 -12 -10h-138l-12 -63c-2 -13 -2 -21 -2 -29c0 -40 15 -65 60 -65c27 0 55 3 91 17c2 1 4 1 6 1c5 0 7 -3 7 -9l-14 -71c-2 -9 -3 -14 -11 -17
c-29 -10 -70 -15 -106 -15c-91 0 -139 49 -139 126c0 12 0 22 3 40l15 85h-70c-7 0 -8 4 -8 10l13 70c1 7 5 10 12 10h71l15 77h-86c-7 0 -8 4 -8 10l14 74c1 7 5 10 12 10h86l28 144c1 7 5 10 12 10h81c7 0 9 -4 9 -10z" />
    <glyph glyph-name="Utilde" unicode="&#x168;" horiz-adv-x="659" 
d="M57 267l82 423c1 7 5 10 12 10h88c7 0 8 -4 8 -10l-84 -428c-4 -18 -5 -36 -5 -51c0 -81 47 -121 124 -121c94 0 161 63 182 172l84 428c1 7 5 10 12 10h88c7 0 8 -4 8 -10l-85 -434c-36 -182 -144 -266 -298 -266c-134 0 -221 77 -221 225c0 17 2 34 5 52zM238 862
c39 28 84 46 120 46c75 0 72 -41 126 -41c21 0 37 5 66 24c3 2 5 2 8 2s5 -2 8 -8l27 -50c2 -4 2 -6 2 -8c0 -3 -1 -5 -5 -8c-39 -28 -84 -46 -120 -46c-75 0 -72 41 -126 41c-21 0 -37 -5 -66 -24c-3 -2 -5 -2 -8 -2s-5 2 -8 8l-27 50c-2 4 -2 6 -2 8c0 3 1 5 5 8z" />
    <glyph glyph-name="utilde" unicode="&#x169;" horiz-adv-x="589" 
d="M541 492l-93 -482c-1 -7 -5 -10 -12 -10h-82c-7 0 -8 4 -8 10l8 45c-47 -40 -99 -65 -172 -65c-93 0 -143 52 -143 130c0 14 2 29 5 45l63 327c1 7 5 10 12 10h82c7 0 8 -4 8 -10l-58 -298c-3 -13 -4 -24 -4 -35c0 -45 28 -75 81 -75c71 0 143 57 165 171l46 237
c1 7 5 10 12 10h82c7 0 8 -3 8 -10zM164 664c39 28 84 46 120 46c75 0 72 -41 126 -41c21 0 37 5 66 24c3 2 5 2 8 2s5 -2 8 -8l27 -50c2 -4 2 -6 2 -8c0 -3 -1 -5 -5 -8c-39 -28 -84 -46 -120 -46c-75 0 -72 41 -126 41c-21 0 -37 -5 -66 -24c-3 -2 -5 -2 -8 -2s-5 2 -8 8
l-27 50c-2 4 -2 6 -2 8c0 3 1 5 5 8z" />
    <glyph glyph-name="Umacron" unicode="&#x16a;" horiz-adv-x="659" 
d="M57 267l82 423c1 7 5 10 12 10h88c7 0 8 -4 8 -10l-84 -428c-4 -18 -5 -36 -5 -51c0 -81 47 -121 124 -121c94 0 161 63 182 172l84 428c1 7 5 10 12 10h88c7 0 8 -4 8 -10l-85 -434c-36 -182 -144 -266 -298 -266c-134 0 -221 77 -221 225c0 17 2 34 5 52zM307 794
l13 70c1 7 5 10 12 10h200c7 0 8 -4 8 -10l-13 -70c-1 -7 -5 -10 -12 -10h-200c-7 0 -8 4 -8 10z" />
    <glyph glyph-name="umacron" unicode="&#x16b;" horiz-adv-x="589" 
d="M541 492l-93 -482c-1 -7 -5 -10 -12 -10h-82c-7 0 -8 4 -8 10l8 45c-47 -40 -99 -65 -172 -65c-93 0 -143 52 -143 130c0 14 2 29 5 45l63 327c1 7 5 10 12 10h82c7 0 8 -4 8 -10l-58 -298c-3 -13 -4 -24 -4 -35c0 -45 28 -75 81 -75c71 0 143 57 165 171l46 237
c1 7 5 10 12 10h82c7 0 8 -3 8 -10zM230 596l13 70c1 7 5 10 12 10h200c7 0 8 -4 8 -10l-13 -70c-1 -7 -5 -10 -12 -10h-200c-7 0 -8 4 -8 10z" />
    <glyph glyph-name="Ubreve" unicode="&#x16c;" horiz-adv-x="659" 
d="M57 267l82 423c1 7 5 10 12 10h88c7 0 8 -4 8 -10l-84 -428c-4 -18 -5 -36 -5 -51c0 -81 47 -121 124 -121c94 0 161 63 182 172l84 428c1 7 5 10 12 10h88c7 0 8 -4 8 -10l-85 -434c-36 -182 -144 -266 -298 -266c-134 0 -221 77 -221 225c0 17 2 34 5 52zM315 890h61
c7 0 7 -4 7 -10v-11c0 -27 14 -42 42 -42c29 0 49 18 56 53c1 7 5 10 12 10h62c7 0 8 -3 8 -10c-15 -88 -68 -129 -148 -129c-68 0 -114 43 -114 107c0 7 1 15 2 22s5 10 12 10z" />
    <glyph glyph-name="ubreve" unicode="&#x16d;" horiz-adv-x="589" 
d="M541 492l-93 -482c-1 -7 -5 -10 -12 -10h-82c-7 0 -8 4 -8 10l8 45c-47 -40 -99 -65 -172 -65c-93 0 -143 52 -143 130c0 14 2 29 5 45l63 327c1 7 5 10 12 10h82c7 0 8 -4 8 -10l-58 -298c-3 -13 -4 -24 -4 -35c0 -45 28 -75 81 -75c71 0 143 57 165 171l46 237
c1 7 5 10 12 10h82c7 0 8 -3 8 -10zM235 692h61c7 0 7 -4 7 -10v-11c0 -27 14 -42 42 -42c29 0 49 18 56 53c1 7 5 10 12 10h62c7 0 8 -3 8 -10c-15 -88 -68 -129 -148 -129c-68 0 -114 43 -114 107c0 7 1 15 2 22s5 10 12 10z" />
    <glyph glyph-name="Uring" unicode="&#x16e;" horiz-adv-x="659" 
d="M57 267l82 423c1 7 5 10 12 10h88c7 0 8 -4 8 -10l-84 -428c-4 -18 -5 -36 -5 -51c0 -81 47 -121 124 -121c94 0 161 63 182 172l84 428c1 7 5 10 12 10h88c7 0 8 -4 8 -10l-85 -434c-36 -182 -144 -266 -298 -266c-134 0 -221 77 -221 225c0 17 2 34 5 52zM324 812
c0 64 50 106 110 106c48 0 84 -29 84 -78c0 -64 -50 -106 -110 -106c-48 0 -84 29 -84 78zM426 864c-24 0 -43 -18 -43 -42c0 -21 11 -34 33 -34c24 0 43 18 43 42c0 21 -11 34 -33 34z" />
    <glyph glyph-name="uring" unicode="&#x16f;" horiz-adv-x="589" 
d="M541 492l-93 -482c-1 -7 -5 -10 -12 -10h-82c-7 0 -8 4 -8 10l8 45c-47 -40 -99 -65 -172 -65c-93 0 -143 52 -143 130c0 14 2 29 5 45l63 327c1 7 5 10 12 10h82c7 0 8 -4 8 -10l-58 -298c-3 -13 -4 -24 -4 -35c0 -45 28 -75 81 -75c71 0 143 57 165 171l46 237
c1 7 5 10 12 10h82c7 0 8 -3 8 -10zM247 614c0 64 50 106 110 106c48 0 84 -29 84 -78c0 -64 -50 -106 -110 -106c-48 0 -84 29 -84 78zM349 666c-24 0 -43 -18 -43 -42c0 -21 11 -34 33 -34c24 0 43 18 43 42c0 21 -11 34 -33 34z" />
    <glyph glyph-name="Uhungarumlaut" unicode="&#x170;" horiz-adv-x="659" 
d="M57 267l82 423c1 7 5 10 12 10h88c7 0 8 -4 8 -10l-84 -428c-4 -18 -5 -36 -5 -51c0 -81 47 -121 124 -121c94 0 161 63 182 172l84 428c1 7 5 10 12 10h88c7 0 8 -4 8 -10l-85 -434c-36 -182 -144 -266 -298 -266c-134 0 -221 77 -221 225c0 17 2 34 5 52zM236 762
l93 126c5 7 10 10 17 10h112c7 0 8 -5 3 -10l-128 -127c-6 -6 -11 -9 -20 -9h-74c-6 0 -7 5 -3 10zM426 762l93 126c5 7 10 10 17 10h112c7 0 8 -5 3 -10l-128 -127c-6 -6 -11 -9 -20 -9h-74c-6 0 -7 5 -3 10z" />
    <glyph glyph-name="uhungarumlaut" unicode="&#x171;" horiz-adv-x="589" 
d="M541 492l-93 -482c-1 -7 -5 -10 -12 -10h-82c-7 0 -8 4 -8 10l8 45c-47 -40 -99 -65 -172 -65c-93 0 -143 52 -143 130c0 14 2 29 5 45l63 327c1 7 5 10 12 10h82c7 0 8 -4 8 -10l-58 -298c-3 -13 -4 -24 -4 -35c0 -45 28 -75 81 -75c71 0 143 57 165 171l46 237
c1 7 5 10 12 10h82c7 0 8 -3 8 -10zM150 564l93 126c5 7 10 10 17 10h112c7 0 8 -5 3 -10l-128 -127c-6 -6 -11 -9 -20 -9h-74c-6 0 -7 5 -3 10zM340 564l93 126c5 7 10 10 17 10h112c7 0 8 -5 3 -10l-128 -127c-6 -6 -11 -9 -20 -9h-74c-6 0 -7 5 -3 10z" />
    <glyph glyph-name="Uogonek" unicode="&#x172;" horiz-adv-x="659" 
d="M57 267l82 423c1 7 5 10 12 10h88c7 0 8 -4 8 -10l-84 -428c-4 -18 -5 -36 -5 -51c0 -81 47 -121 124 -121c94 0 161 63 182 172l84 428c1 7 5 10 12 10h88c7 0 8 -4 8 -10l-85 -434c-29 -148 -106 -228 -216 -257c-31 -8 -59 -31 -59 -67c0 -25 17 -37 47 -37h16
c7 0 9 -3 9 -10l-10 -50c-1 -7 -6 -10 -12 -10h-44c-61 0 -105 24 -105 85c0 32 21 62 50 82c-119 9 -195 85 -195 223c0 17 2 34 5 52z" />
    <glyph glyph-name="uogonek" unicode="&#x173;" horiz-adv-x="589" 
d="M541 492l-93 -482c-1 -6 -4 -9 -9 -10c-32 -8 -63 -31 -63 -68c0 -25 17 -37 47 -37h16c7 0 9 -3 9 -10l-10 -50c-1 -7 -6 -10 -12 -10h-44c-61 0 -105 24 -105 85c0 39 29 74 67 92l10 53c-47 -40 -99 -65 -172 -65c-93 0 -143 51 -143 129c0 14 2 29 5 46l63 327
c1 7 5 10 12 10h82c7 0 8 -4 8 -10l-58 -298c-3 -13 -4 -24 -4 -35c0 -45 28 -75 81 -75c71 0 143 57 165 171l46 237c1 7 5 10 12 10h82c7 0 8 -3 8 -10z" />
    <glyph glyph-name="Wcircumflex" unicode="&#x174;" horiz-adv-x="861" 
d="M900 690l-286 -680c-3 -7 -6 -10 -13 -10h-111c-7 0 -9 3 -9 10l-28 480l-213 -480c-3 -7 -6 -10 -13 -10h-111c-7 0 -8 3 -9 10l-30 680c0 7 3 10 10 10h86c7 0 10 -3 10 -10l19 -540l218 492c3 7 7 10 14 10h92c7 0 10 -3 10 -10l32 -492l223 540c3 7 7 10 14 10h89
c5 0 7 -2 7 -5c0 -1 0 -2 -1 -5zM572 890l80 -134c3 -5 -1 -10 -7 -10h-74c-8 0 -12 3 -17 9l-42 53l-67 -53c-7 -6 -11 -9 -19 -9h-81c-6 0 -8 5 -3 10l132 134c6 6 9 8 16 8h68c7 0 10 -2 14 -8z" />
    <glyph glyph-name="wcircumflex" unicode="&#x175;" horiz-adv-x="762" 
d="M762 487l-232 -477c-4 -8 -9 -10 -15 -10h-90c-7 0 -11 3 -11 10l-40 334l-158 -334c-3 -7 -8 -10 -15 -10h-88c-6 0 -11 2 -11 10l-60 480c0 8 3 12 10 12h84c10 0 11 -3 12 -10l31 -358l158 334c3 7 6 10 14 10h90c7 0 9 -3 10 -10l40 -334l166 358c3 7 6 10 16 10h85
c4 0 7 -2 7 -7c0 -2 -1 -4 -3 -8zM480 692l80 -134c3 -5 -1 -10 -7 -10h-74c-8 0 -12 3 -17 9l-42 53l-67 -53c-7 -6 -11 -9 -19 -9h-81c-6 0 -8 5 -3 10l132 134c6 6 9 8 16 8h68c7 0 10 -2 14 -8z" />
    <glyph glyph-name="Ycircumflex" unicode="&#x176;" horiz-adv-x="528" 
d="M592 690l-300 -438l-47 -242c-1 -7 -5 -10 -12 -10h-88c-7 0 -8 4 -8 10l47 242l-131 438c0 7 4 10 9 10h95c7 0 10 -3 11 -8l89 -320l216 320c3 5 6 8 13 8h102c5 0 8 -4 4 -10zM395 890l80 -134c3 -5 -1 -10 -7 -10h-74c-8 0 -12 3 -17 9l-42 53l-67 -53
c-7 -6 -11 -9 -19 -9h-81c-6 0 -8 5 -3 10l132 134c6 6 9 8 16 8h68c7 0 10 -2 14 -8z" />
    <glyph glyph-name="ycircumflex" unicode="&#x177;" horiz-adv-x="525" 
d="M147 502c8 0 10 -3 11 -10l67 -347l178 347c3 7 6 10 15 10h91c5 0 7 -2 7 -7c0 -1 0 -3 -2 -7l-284 -537c-67 -127 -131 -159 -201 -159c-43 0 -67 7 -88 16c-7 3 -8 7 -8 11c0 1 0 2 1 7l14 72c1 7 6 10 10 10c14 0 30 -22 71 -22c47 0 82 31 122 118l-104 481
c-1 5 -1 6 -1 9c0 5 5 8 10 8h91zM357 692l80 -134c3 -5 -1 -10 -7 -10h-74c-8 0 -12 3 -17 9l-42 53l-67 -53c-7 -6 -11 -9 -19 -9h-81c-6 0 -8 5 -3 10l132 134c6 6 9 8 16 8h68c7 0 10 -2 14 -8z" />
    <glyph glyph-name="Zacute" unicode="&#x179;" horiz-adv-x="601" 
d="M107 610l16 80c1 7 5 10 12 10h461c7 0 8 -4 8 -10l-16 -80c-1 -7 -4 -11 -9 -17l-457 -493h381c7 0 8 -4 8 -10l-16 -80c-1 -7 -5 -10 -12 -10h-501c-7 0 -8 4 -8 10l16 80c1 7 4 11 9 17l460 493h-344c-7 0 -8 4 -8 10zM285 762l93 126c5 7 10 10 17 10h112
c6 0 8 -5 3 -10l-128 -127c-6 -6 -11 -9 -20 -9h-74c-5 0 -7 5 -3 10z" />
    <glyph glyph-name="zacute" unicode="&#x17a;" horiz-adv-x="488" 
d="M72 418l14 74c1 7 5 10 12 10h362c7 0 8 -4 8 -10l-14 -74c-1 -6 -2 -12 -12 -21l-318 -303h276c7 0 8 -4 8 -10l-14 -74c-2 -7 -5 -10 -12 -10h-393c-7 0 -8 4 -8 10l14 74c1 7 5 11 8 15l324 309h-247c-7 0 -8 4 -8 10zM207 564l93 126c5 7 10 10 17 10h112
c6 0 8 -5 3 -10l-128 -127c-6 -6 -11 -9 -20 -9h-74c-5 0 -7 5 -3 10z" />
    <glyph glyph-name="Zdotaccent" unicode="&#x17b;" horiz-adv-x="601" 
d="M107 610l16 80c1 7 5 10 12 10h461c7 0 8 -4 8 -10l-16 -80c-1 -7 -4 -11 -9 -17l-457 -493h381c7 0 8 -4 8 -10l-16 -80c-1 -7 -5 -10 -12 -10h-501c-7 0 -8 4 -8 10l16 80c1 7 4 11 9 17l460 493h-344c-7 0 -8 4 -8 10zM310 788l20 100c1 7 5 10 12 10h104
c7 0 8 -4 8 -10l-20 -100c-1 -7 -5 -10 -12 -10h-104c-7 0 -8 4 -8 10z" />
    <glyph glyph-name="zdotaccent" unicode="&#x17c;" horiz-adv-x="488" 
d="M72 418l14 74c1 7 5 10 12 10h362c7 0 8 -4 8 -10l-14 -74c-1 -6 -2 -12 -12 -21l-318 -303h276c7 0 8 -4 8 -10l-14 -74c-2 -7 -5 -10 -12 -10h-393c-7 0 -8 4 -8 10l14 74c1 7 5 11 8 15l324 309h-247c-7 0 -8 4 -8 10zM228 590l20 100c1 7 5 10 12 10h104
c7 0 8 -4 8 -10l-20 -100c-1 -7 -5 -10 -12 -10h-104c-7 0 -8 4 -8 10z" />
    <glyph glyph-name="uni01B5" unicode="&#x1b5;" horiz-adv-x="601" 
d="M107 610l16 80c1 7 5 10 12 10h461c7 0 8 -4 8 -10l-16 -80c-1 -7 -4 -11 -9 -17l-184 -198h141c7 0 8 -4 8 -10l-16 -76c-1 -7 -5 -10 -12 -10h-210l-184 -199h381c7 0 8 -4 8 -10l-16 -80c-1 -7 -5 -10 -12 -10h-501c-7 0 -8 4 -8 10l16 80c1 7 4 11 9 17l179 192h-114
c-7 0 -8 4 -8 10l16 76c1 7 5 10 12 10h183l192 205h-344c-7 0 -8 4 -8 10z" />
    <glyph glyph-name="uni01B6" unicode="&#x1b6;" horiz-adv-x="488" 
d="M72 418l14 74c1 7 5 10 12 10h362c7 0 8 -4 8 -10l-14 -74c-1 -6 -2 -12 -12 -21l-92 -87h50c7 0 8 -4 8 -10l-14 -70c-1 -7 -5 -10 -12 -10h-126l-132 -126h276c7 0 8 -4 8 -10l-14 -74c-2 -7 -5 -10 -12 -10h-393c-7 0 -8 4 -8 10l14 74c1 7 5 11 8 15l127 121h-69
c-7 0 -8 4 -8 10l14 70c1 7 5 10 12 10h145l103 98h-247c-7 0 -8 4 -8 10z" />
    <glyph glyph-name="longs" unicode="&#x17f;" horiz-adv-x="371" 
d="M240 523l-100 -513c-1 -7 -5 -10 -12 -10h-82c-7 0 -9 3 -8 10l78 398h-80c-7 0 -10 3 -8 10l14 74c1 7 5 10 12 10h80l7 36c22 111 92 172 195 172c52 0 86 -9 113 -19c7 -3 7 -8 5 -17l-14 -72c-1 -7 -7 -12 -16 -8c-34 15 -55 22 -86 22c-50 0 -85 -26 -98 -93z" />
    <glyph glyph-name="uni2117" unicode="&#x2117;" horiz-adv-x="800" 
d="M400 -10c-170 0 -348 129 -348 360s178 360 348 360s348 -129 348 -360s-178 -360 -348 -360zM400 32c148 0 300 106 300 318s-152 318 -300 318s-300 -106 -300 -318s152 -318 300 -318zM262 133v436c0 8 3 11 11 11h151c94 0 151 -57 151 -135s-57 -135 -151 -135h-114
v-177c0 -8 -3 -11 -11 -11h-26c-8 0 -11 3 -11 11zM310 538v-186h121c65 0 96 37 96 93s-31 93 -96 93h-121z" />
    <glyph glyph-name="braceleft.ss03" horiz-adv-x="395" 
d="M214 263l-16 -79c-3 -14 -5 -27 -5 -37c0 -33 17 -47 54 -47h37c7 0 8 -4 8 -10l-16 -80c-1 -7 -5 -10 -12 -10h-55c-76 0 -124 38 -124 124c0 17 1 35 5 56l10 53c2 9 2 16 2 27c0 27 -16 40 -48 40h-28c-7 0 -8 4 -8 10l15 80c1 7 5 10 12 10h28c44 0 63 20 72 67
l12 60c28 138 88 173 192 173h52c7 0 8 -4 8 -10l-16 -80c-1 -7 -5 -10 -12 -10h-37c-49 0 -69 -23 -81 -84l-16 -79c-9 -47 -32 -74 -81 -87c35 -10 51 -28 51 -59c0 -8 -1 -18 -3 -28z" />
    <glyph glyph-name="braceright.ss03" horiz-adv-x="395" 
d="M182 437l16 79c3 14 5 27 5 37c0 33 -17 47 -54 47h-37c-7 0 -8 4 -8 10l16 80c1 7 5 10 12 10h55c76 0 124 -38 124 -124c0 -17 -1 -35 -5 -56l-10 -53c-2 -9 -2 -16 -2 -27c0 -27 16 -40 48 -40h28c7 0 8 -4 8 -10l-15 -80c-1 -7 -5 -10 -12 -10h-28
c-44 0 -63 -20 -72 -67l-12 -60c-28 -138 -88 -173 -192 -173h-52c-7 0 -8 4 -8 10l16 80c1 7 5 10 12 10h37c49 0 69 23 81 84l16 79c9 47 32 74 81 87c-35 10 -51 28 -51 59c0 8 1 18 3 28z" />
    <glyph glyph-name="bracketleft.ss03" horiz-adv-x="418" 
d="M23 10l133 680c1 7 5 10 12 10h267c7 0 8 -4 8 -10l-16 -80c-1 -7 -5 -10 -12 -10h-169l-97 -500h169c7 0 8 -4 8 -10l-16 -80c-1 -7 -5 -10 -12 -10h-267c-7 0 -8 4 -8 10z" />
    <glyph glyph-name="bracketright.ss03" horiz-adv-x="418" 
d="M395 690l-133 -680c-1 -7 -5 -10 -12 -10h-267c-7 0 -8 4 -8 10l16 80c1 7 5 10 12 10h169l97 500h-169c-7 0 -8 4 -8 10l16 80c1 7 5 10 12 10h267c7 0 8 -4 8 -10z" />
    <glyph glyph-name="parenleft.ss03" horiz-adv-x="341" 
d="M173 364l-3 -17c-6 -36 -9 -67 -9 -92c0 -81 30 -119 89 -185c2 -2 3 -4 3 -6c0 -3 -1 -5 -4 -8l-58 -60c-3 -3 -5 -4 -7 -4c-3 0 -5 1 -7 3c-76 67 -128 141 -128 245c0 23 2 43 7 73l18 99c25 138 106 223 236 303c3 2 5 3 7 3c3 0 5 -1 7 -4l48 -68c1 -2 2 -4 2 -6
c0 -3 -1 -5 -5 -8c-111 -76 -170 -121 -196 -268z" />
    <glyph glyph-name="parenright.ss03" horiz-adv-x="341" 
d="M176 346l3 17c6 36 9 67 9 92c0 81 -30 119 -89 185c-2 2 -3 4 -3 6c0 3 1 5 4 8l58 60c3 3 5 4 7 4c3 0 5 -1 7 -3c76 -67 128 -141 128 -245c0 -23 -2 -43 -7 -73l-18 -99c-25 -138 -106 -223 -236 -303c-3 -2 -5 -3 -7 -3c-3 0 -5 1 -7 4l-48 68c-1 2 -2 4 -2 6
c0 3 1 5 5 8c111 76 170 121 196 268z" />
    <glyph glyph-name="braceleft.case" horiz-adv-x="398" 
d="M229 264l-35 -178c-3 -16 -4 -24 -4 -34c0 -35 16 -50 55 -50h33c7 0 8 -4 8 -10l-16 -80c-1 -7 -5 -10 -12 -10h-41c-87 0 -135 46 -135 132c0 18 0 32 5 59l28 141c2 9 3 17 3 24c0 31 -19 43 -51 43h-28c-7 0 -8 4 -8 10l15 80c1 7 5 10 12 10h28c37 0 63 14 74 67
l28 141c29 145 76 191 198 191h47c7 0 8 -4 8 -10l-16 -80c-1 -7 -5 -10 -12 -10h-33c-46 0 -71 -24 -83 -84l-35 -178c-11 -54 -30 -74 -79 -87c31 -10 47 -31 47 -66c0 -7 1 -13 -1 -21z" />
    <glyph glyph-name="braceright.case" horiz-adv-x="398" 
d="M166 438l35 178c3 16 4 24 4 34c0 35 -16 50 -55 50h-33c-7 0 -8 4 -8 10l16 80c1 7 5 10 12 10h41c87 0 135 -46 135 -132c0 -18 0 -32 -5 -59l-28 -141c-2 -9 -3 -17 -3 -24c0 -31 19 -43 51 -43h28c7 0 8 -4 8 -10l-15 -80c-1 -7 -5 -10 -12 -10h-28
c-37 0 -63 -14 -74 -67l-28 -141c-29 -145 -76 -191 -198 -191h-47c-7 0 -8 4 -8 10l16 80c1 7 5 10 12 10h33c46 0 71 24 83 84l35 178c11 54 30 74 79 87c-31 10 -47 31 -47 66c0 7 -1 13 1 21z" />
    <glyph glyph-name="bracketleft.case" horiz-adv-x="447" 
d="M-13 -88l170 878c1 7 5 10 12 10h267c7 0 8 -4 8 -10l-16 -80c-1 -7 -5 -10 -12 -10h-169l-135 -698h169c7 0 8 -4 8 -10l-16 -80c-1 -7 -5 -10 -12 -10h-267c-6 0 -7 4 -7 10z" />
    <glyph glyph-name="bracketright.case" horiz-adv-x="447" 
d="M435 790l-171 -878c-1 -7 -5 -10 -12 -10h-266c-7 0 -8 4 -8 10l16 80c1 7 5 10 12 10h168l135 698h-169c-7 0 -8 4 -8 10l16 80c1 7 5 10 12 10h267c7 0 8 -4 8 -10z" />
    <glyph glyph-name="parenleft.case" horiz-adv-x="387" 
d="M214 407l-21 -111c-11 -59 -18 -103 -18 -140c0 -74 28 -120 91 -184c2 -2 3 -4 3 -6c0 -3 -2 -5 -5 -8l-58 -59c-4 -4 -6 -4 -8 -4s-5 1 -7 3c-86 80 -122 163 -122 263c0 33 4 68 11 105l33 171c39 203 95 260 254 368c3 2 5 3 7 3s4 -1 6 -4l47 -66c2 -3 2 -4 2 -6
c0 -3 -2 -5 -6 -8c-140 -100 -174 -134 -209 -317z" />
    <glyph glyph-name="parenright.case" horiz-adv-x="387" 
d="M178 296l21 111c11 59 18 103 18 140c0 74 -28 120 -91 184c-2 2 -3 4 -3 6c0 3 2 5 5 8l58 59c4 4 6 4 8 4s5 -1 7 -3c86 -80 122 -163 122 -263c0 -33 -4 -68 -11 -105l-33 -171c-39 -203 -95 -260 -254 -368c-3 -2 -5 -3 -7 -3s-4 1 -6 4l-47 66c-2 3 -2 4 -2 6
c0 3 2 5 6 8c140 100 174 134 209 317z" />
    <glyph glyph-name="bullet.case" horiz-adv-x="381" 
d="M102 350c0 52 42 94 94 94s94 -42 94 -94s-42 -94 -94 -94s-94 42 -94 94z" />
    <glyph glyph-name="exclamdown.case" horiz-adv-x="351" 
d="M155 0h-84c-7 0 -8 4 -8 10l95 487c1 7 5 10 12 10h84c7 0 8 -4 8 -10l-95 -487c-1 -7 -5 -10 -12 -10zM276 580h-100c-7 0 -8 4 -8 10l20 100c1 7 5 10 12 10h100c7 0 8 -4 8 -10l-20 -100c-1 -7 -5 -10 -12 -10z" />
    <glyph glyph-name="questiondown.case" horiz-adv-x="547" 
d="M481 194c-20 -119 -117 -204 -252 -204c-128 0 -197 67 -197 163c0 171 200 177 228 319l5 25c1 7 5 10 12 10h84c7 0 7 -4 7 -10l-4 -25c-30 -187 -224 -186 -224 -306c0 -45 36 -76 97 -76c58 0 120 32 142 104c3 7 5 10 12 10h82c7 0 8 -4 8 -10zM383 580h-100
c-7 0 -8 4 -8 10l20 100c1 7 5 10 12 10h100c7 0 8 -4 8 -10l-20 -100c-1 -7 -5 -10 -12 -10z" />
    <glyph glyph-name="at.case" horiz-adv-x="808" 
d="M691 406c0 137 -72 225 -245 225c-192 0 -326 -142 -326 -335c0 -155 100 -251 249 -251c89 0 133 18 190 48c2 1 4 1 5 1c3 0 5 -1 7 -5l25 -56c1 -2 1 -3 1 -4c0 -4 -3 -6 -7 -8c-78 -39 -153 -56 -232 -56c-176 0 -327 124 -327 334c0 241 170 412 418 412
c202 0 328 -122 328 -289c0 -153 -69 -277 -195 -277c-52 0 -78 22 -97 53c-43 -38 -89 -53 -140 -53c-77 0 -149 53 -149 161c0 138 110 235 219 235c66 0 97 -18 121 -42l8 27c2 6 5 8 10 8h57c6 0 8 -3 8 -8l-62 -204c-4 -12 -7 -25 -9 -35c-1 -7 -2 -13 -2 -18
c0 -37 22 -50 47 -50c59 0 98 93 98 187zM498 380c0 58 -24 87 -79 87c-77 0 -141 -79 -141 -155c0 -67 32 -93 79 -93c92 0 141 93 141 161z" />
    <glyph glyph-name="guilsinglleft.case" horiz-adv-x="358" 
d="M339 602l-22 -111c-1 -7 -3 -11 -10 -16l-171 -125l122 -133c3 -3 5 -6 5 -10c0 -1 0 -2 -1 -6l-19 -93c-1 -4 -3 -7 -7 -7c-2 0 -4 1 -6 3l-183 201c-5 6 -7 11 -6 18l13 68c1 7 5 11 14 18l260 197c3 2 5 3 7 3c3 0 4 -3 4 -7z" />
    <glyph glyph-name="guilsinglright.case" horiz-adv-x="358" 
d="M36 98l22 111c1 7 3 11 10 16l171 125l-122 133c-3 3 -5 6 -5 10c0 1 0 2 1 6l19 93c1 4 3 7 7 7c2 0 4 -1 6 -3l183 -201c5 -6 7 -11 6 -18l-13 -68c-1 -7 -5 -11 -14 -18l-260 -197c-3 -2 -5 -3 -7 -3c-3 0 -4 3 -4 7z" />
    <glyph glyph-name="guillemotleft.case" horiz-adv-x="571" 
d="M339 602l-22 -111c-1 -7 -3 -11 -10 -16l-171 -125l122 -133c3 -3 5 -6 5 -10c0 -1 0 -2 -1 -6l-19 -93c-1 -4 -3 -7 -7 -7c-2 0 -4 1 -6 3l-183 201c-5 6 -7 11 -6 18l13 68c1 7 5 11 14 18l260 197c3 2 5 3 7 3c3 0 4 -3 4 -7zM552 602l-22 -111c-1 -7 -3 -11 -10 -16
l-171 -125l122 -133c3 -3 5 -6 5 -10c0 -1 0 -2 -1 -6l-19 -93c-1 -4 -3 -7 -7 -7c-2 0 -4 1 -6 3l-183 201c-5 6 -7 11 -6 18l13 68c1 7 5 11 14 18l260 197c3 2 5 3 7 3c3 0 4 -3 4 -7z" />
    <glyph glyph-name="guillemotright.case" horiz-adv-x="571" 
d="M249 98l22 111c1 7 3 11 10 16l171 125l-122 133c-3 3 -5 6 -5 10c0 1 0 2 1 6l19 93c1 4 3 7 7 7c2 0 4 -1 6 -3l183 -201c5 -6 7 -11 6 -18l-13 -68c-1 -7 -5 -11 -14 -18l-260 -197c-3 -2 -5 -3 -7 -3c-3 0 -4 3 -4 7zM36 98l22 111c1 7 3 11 10 16l171 125l-122 133
c-3 3 -5 6 -5 10c0 1 0 2 1 6l19 93c1 4 3 7 7 7c2 0 4 -1 6 -3l183 -201c5 -6 7 -11 6 -18l-13 -68c-1 -7 -5 -11 -14 -18l-260 -197c-3 -2 -5 -3 -7 -3c-3 0 -4 3 -4 7z" />
    <glyph glyph-name="zero.tn" 
d="M30 269c0 189 109 441 342 441c130 0 221 -87 221 -279c0 -189 -109 -441 -342 -441c-130 0 -221 87 -221 279zM359 612c-152 0 -221 -183 -221 -343c0 -137 50 -181 126 -181c152 0 221 183 221 343c0 137 -50 181 -126 181z" />
    <glyph glyph-name="one.tn" 
d="M468 0h-426c-7 0 -8 4 -8 10l16 78c1 7 5 10 12 10h160l91 469l-158 -79c-4 -2 -8 -3 -11 -3c-4 0 -6 4 -6 9l17 87c1 7 8 12 14 15l199 99c5 3 10 5 16 5h51c7 0 8 -4 8 -10l-115 -592h160c7 0 8 -4 8 -10l-16 -78c-1 -7 -5 -10 -12 -10z" />
    <glyph glyph-name="two.tn" 
d="M17 10l11 62c2 10 8 17 16 23l320 259c60 48 97 96 97 166c0 53 -34 92 -105 92c-75 0 -129 -55 -145 -121c-3 -12 -7 -15 -16 -15h-71c-8 0 -13 5 -13 15c25 130 116 219 256 219c133 0 202 -79 202 -178c0 -103 -53 -174 -144 -248l-230 -186h301c7 0 9 -4 9 -10
l-16 -78c-1 -7 -5 -10 -12 -10h-453c-6 0 -7 4 -7 10z" />
    <glyph glyph-name="three.tn" 
d="M240 335l14 76c2 9 6 11 13 11h57c80 0 136 38 136 109c0 49 -37 81 -98 81s-120 -35 -140 -98c-3 -11 -7 -12 -15 -12h-72c-10 0 -13 7 -13 17c22 112 122 191 251 191c115 0 189 -68 189 -155c0 -80 -28 -133 -102 -179c34 -22 74 -65 74 -147
c0 -148 -103 -239 -268 -239c-135 0 -219 80 -219 201c0 7 0 14 1 21c1 12 9 17 16 17h75c8 0 11 -2 11 -13c0 -5 -1 -14 -1 -19c0 -72 50 -109 121 -109c97 0 158 53 158 141c0 60 -39 95 -120 95h-59c-7 0 -9 6 -9 11z" />
    <glyph glyph-name="four.tn" 
d="M303 10l24 120h-297c-6 0 -7 4 -7 10l10 57c2 10 6 16 12 23l406 472c4 5 9 8 15 8h68c7 0 8 -4 8 -10l-90 -462h94c7 0 9 -4 9 -10l-15 -78c-1 -7 -5 -10 -12 -10h-95l-24 -120c-1 -7 -5 -10 -13 -10h-85c-7 0 -8 4 -8 10zM396 487l-221 -259h171z" />
    <glyph glyph-name="five.tn" 
d="M75 314l117 376c2 7 5 10 12 10h382c7 0 8 -4 8 -10l-16 -78c-1 -7 -5 -10 -12 -10h-297l-60 -180c43 25 94 42 147 42c118 0 191 -75 191 -196c0 -170 -115 -278 -283 -278c-133 0 -213 83 -213 202v9c0 11 7 15 14 15h77c8 0 11 -3 11 -15c0 -72 47 -113 127 -113
c99 0 159 70 159 164c0 70 -44 114 -121 114c-49 0 -98 -19 -141 -53c-6 -5 -14 -9 -22 -9h-71c-7 0 -9 5 -9 10z" />
    <glyph glyph-name="six.tn" 
d="M56 242c0 210 109 468 335 468c126 0 197 -79 197 -180c0 -9 -6 -10 -12 -10h-80c-7 0 -9 4 -10 10c-10 58 -45 86 -110 86c-70 0 -152 -61 -187 -220c51 39 111 56 170 56c114 0 190 -77 190 -194c0 -163 -116 -268 -275 -268c-119 0 -218 75 -218 252zM321 354
c-91 0 -157 -65 -157 -147c0 -74 48 -119 122 -119c88 0 157 69 157 154c0 68 -43 112 -122 112z" />
    <glyph glyph-name="seven.tn" 
d="M128 612l16 78c1 7 5 10 12 10h437c7 0 8 -4 8 -10l-12 -58c-2 -9 -5 -16 -10 -25l-346 -600c-3 -5 -8 -7 -13 -7h-88c-5 0 -8 2 -8 6s2 7 3 9l337 587h-328c-7 0 -8 4 -8 10z" />
    <glyph glyph-name="eight.tn" 
d="M135 502c0 116 99 208 246 208c114 0 192 -66 192 -171c0 -66 -36 -130 -113 -167c32 -21 73 -70 73 -146c0 -145 -117 -236 -269 -236c-125 0 -213 70 -213 184c0 96 57 163 142 200c-29 25 -58 62 -58 128zM305 320c-75 0 -148 -49 -148 -131c0 -67 45 -101 113 -101
c76 0 157 46 157 134c0 56 -38 98 -122 98zM366 614c-66 0 -132 -40 -132 -110c0 -55 37 -88 102 -88c68 0 135 41 135 112c0 49 -40 86 -105 86z" />
    <glyph glyph-name="nine.tn" 
d="M579 458c0 -210 -109 -468 -335 -468c-126 0 -197 79 -197 180c0 9 6 10 12 10h80c7 0 9 -4 10 -10c10 -58 45 -86 110 -86c70 0 152 61 187 220c-51 -39 -111 -56 -170 -56c-114 0 -190 77 -190 194c0 163 116 268 275 268c119 0 218 -75 218 -252zM314 346
c91 0 157 65 157 147c0 74 -48 119 -122 119c-88 0 -157 -69 -157 -154c0 -68 43 -112 122 -112z" />
    <glyph glyph-name="zero.slashtn" 
d="M30 269c0 189 109 441 342 441c130 0 221 -87 221 -279c0 -189 -109 -441 -342 -441c-130 0 -221 87 -221 279zM485 431c0 62 -9 104 -27 133l-217 -475c7 -1 15 -1 23 -1c152 0 221 183 221 343zM359 612c-152 0 -221 -183 -221 -343c0 -62 9 -104 27 -133l217 475
c-7 1 -15 1 -23 1z" />
    <glyph glyph-name="zero.slash" horiz-adv-x="629" 
d="M33 269c0 189 109 441 342 441c130 0 221 -87 221 -279c0 -189 -109 -441 -342 -441c-130 0 -221 87 -221 279zM488 431c0 62 -9 104 -27 133l-217 -475c7 -1 15 -1 23 -1c152 0 221 183 221 343zM362 612c-152 0 -221 -183 -221 -343c0 -62 9 -104 27 -133l217 475
c-7 1 -15 1 -23 1z" />
    <glyph glyph-name="zero.slashposn" horiz-adv-x="621" 
d="M21 215c0 177 132 297 309 297c146 0 237 -92 237 -225c0 -177 -132 -297 -309 -297c-146 0 -237 92 -237 225zM320 418c-106 0 -193 -88 -193 -194c0 -38 8 -68 26 -92l211 281c-13 3 -28 5 -44 5zM461 278c0 37 -8 68 -26 92l-211 -281c13 -3 28 -5 44 -5
c106 0 193 88 193 194z" />
    <glyph glyph-name="zero.slashtosn" 
d="M32 215c0 177 132 297 309 297c146 0 237 -92 237 -225c0 -177 -132 -297 -309 -297c-146 0 -237 92 -237 225zM331 418c-106 0 -193 -88 -193 -194c0 -38 8 -68 26 -92l211 281c-13 3 -28 5 -44 5zM472 278c0 37 -8 68 -26 92l-211 -281c13 -3 28 -5 44 -5
c106 0 193 88 193 194z" />
    <glyph glyph-name="zero.slashsuperior" horiz-adv-x="373" 
d="M51 471c0 124 67 235 190 235c75 0 129 -52 129 -151c0 -124 -67 -235 -190 -235c-75 0 -129 52 -129 151zM231 638c-72 0 -106 -79 -106 -158c0 -26 4 -45 11 -59l99 217h-4zM296 546c0 26 -4 45 -11 59l-99 -217h4c72 0 106 79 106 158z" />
    <glyph glyph-name="zero.slashinferior" horiz-adv-x="373" 
d="M-29 -53c0 124 67 235 190 235c75 0 129 -52 129 -151c0 -124 -67 -235 -190 -235c-75 0 -129 52 -129 151zM151 114c-72 0 -106 -79 -106 -158c0 -26 4 -45 11 -59l99 217h-4zM216 22c0 26 -4 45 -11 59l-99 -217h4c72 0 106 79 106 158z" />
    <glyph glyph-name="g.alt" horiz-adv-x="616" 
d="M300 171c-54 0 -89 11 -120 35c-37 -10 -63 -31 -63 -63c0 -27 17 -46 50 -46c42 0 78 19 148 19c108 0 185 -52 185 -148c0 -119 -122 -176 -257 -176c-141 0 -228 47 -228 149c0 39 18 69 49 99c-31 27 -49 48 -49 99c0 60 46 118 123 142c-3 13 -4 18 -4 38
c0 109 88 193 208 193c50 0 80 -10 106 -24l81 65c4 3 6 4 9 4s4 -2 7 -5l42 -55c2 -2 3 -5 3 -8c-1 -3 -4 -6 -7 -9l-77 -58c4 -13 6 -26 6 -47c0 -127 -94 -204 -212 -204zM160 7c-20 -12 -43 -27 -43 -56c0 -48 43 -65 126 -65c72 0 155 14 155 78c0 38 -36 58 -117 58
c-54 0 -83 -12 -121 -15zM333 418c-55 0 -97 -39 -97 -87c0 -44 33 -66 73 -66c55 0 97 33 97 86c0 46 -31 67 -73 67z" />
    <glyph glyph-name="gcircumflex.alt" horiz-adv-x="616" 
d="M300 171c-54 0 -89 11 -120 35c-37 -10 -63 -31 -63 -63c0 -27 17 -46 50 -46c42 0 78 19 148 19c108 0 185 -52 185 -148c0 -119 -122 -176 -257 -176c-141 0 -228 47 -228 149c0 39 18 69 49 99c-31 27 -49 48 -49 99c0 60 46 118 123 142c-3 13 -4 18 -4 38
c0 109 88 193 208 193c50 0 80 -10 106 -24l81 65c4 3 6 4 9 4s4 -2 7 -5l42 -55c2 -2 3 -5 3 -8c-1 -3 -4 -6 -7 -9l-77 -58c4 -13 6 -26 6 -47c0 -127 -94 -204 -212 -204zM160 7c-20 -12 -43 -27 -43 -56c0 -48 43 -65 126 -65c72 0 155 14 155 78c0 38 -36 58 -117 58
c-54 0 -83 -12 -121 -15zM333 418c-55 0 -97 -39 -97 -87c0 -44 33 -66 73 -66c55 0 97 33 97 86c0 46 -31 67 -73 67zM422 692l80 -134c3 -5 -1 -10 -7 -10h-74c-8 0 -12 3 -17 9l-42 53l-67 -53c-7 -6 -11 -9 -19 -9h-81c-6 0 -8 5 -3 10l132 134c6 6 9 8 16 8h68
c7 0 10 -2 14 -8z" />
    <glyph glyph-name="gbreve.alt" horiz-adv-x="616" 
d="M300 171c-54 0 -89 11 -120 35c-37 -10 -63 -31 -63 -63c0 -27 17 -46 50 -46c42 0 78 19 148 19c108 0 185 -52 185 -148c0 -119 -122 -176 -257 -176c-141 0 -228 47 -228 149c0 39 18 69 49 99c-31 27 -49 48 -49 99c0 60 46 118 123 142c-3 13 -4 18 -4 38
c0 109 88 193 208 193c50 0 80 -10 106 -24l81 65c4 3 6 4 9 4s4 -2 7 -5l42 -55c2 -2 3 -5 3 -8c-1 -3 -4 -6 -7 -9l-77 -58c4 -13 6 -26 6 -47c0 -127 -94 -204 -212 -204zM160 7c-20 -12 -43 -27 -43 -56c0 -48 43 -65 126 -65c72 0 155 14 155 78c0 38 -36 58 -117 58
c-54 0 -83 -12 -121 -15zM333 418c-55 0 -97 -39 -97 -87c0 -44 33 -66 73 -66c55 0 97 33 97 86c0 46 -31 67 -73 67zM272 692h61c7 0 7 -4 7 -10v-11c0 -27 14 -42 42 -42c29 0 49 18 56 53c1 7 5 10 12 10h62c7 0 8 -3 8 -10c-15 -88 -68 -129 -148 -129
c-68 0 -114 43 -114 107c0 7 1 15 2 22s5 10 12 10z" />
    <glyph glyph-name="gdotaccent.alt" horiz-adv-x="616" 
d="M300 171c-54 0 -89 11 -120 35c-37 -10 -63 -31 -63 -63c0 -27 17 -46 50 -46c42 0 78 19 148 19c108 0 185 -52 185 -148c0 -119 -122 -176 -257 -176c-141 0 -228 47 -228 149c0 39 18 69 49 99c-31 27 -49 48 -49 99c0 60 46 118 123 142c-3 13 -4 18 -4 38
c0 109 88 193 208 193c50 0 80 -10 106 -24l81 65c4 3 6 4 9 4s4 -2 7 -5l42 -55c2 -2 3 -5 3 -8c-1 -3 -4 -6 -7 -9l-77 -58c4 -13 6 -26 6 -47c0 -127 -94 -204 -212 -204zM160 7c-20 -12 -43 -27 -43 -56c0 -48 43 -65 126 -65c72 0 155 14 155 78c0 38 -36 58 -117 58
c-54 0 -83 -12 -121 -15zM333 418c-55 0 -97 -39 -97 -87c0 -44 33 -66 73 -66c55 0 97 33 97 86c0 46 -31 67 -73 67zM301 590l20 100c1 7 5 10 12 10h104c7 0 8 -4 8 -10l-20 -100c-1 -7 -5 -10 -12 -10h-104c-7 0 -8 4 -8 10z" />
    <glyph glyph-name="gcommaaccent.alt" horiz-adv-x="616" 
d="M300 171c-54 0 -89 11 -120 35c-37 -10 -63 -31 -63 -63c0 -27 17 -46 50 -46c42 0 78 19 148 19c108 0 185 -52 185 -148c0 -119 -122 -176 -257 -176c-141 0 -228 47 -228 149c0 39 18 69 49 99c-31 27 -49 48 -49 99c0 60 46 118 123 142c-3 13 -4 18 -4 38
c0 109 88 193 208 193c50 0 80 -10 106 -24l81 65c4 3 6 4 9 4s4 -2 7 -5l42 -55c2 -2 3 -5 3 -8c-1 -3 -4 -6 -7 -9l-77 -58c4 -13 6 -26 6 -47c0 -127 -94 -204 -212 -204zM160 7c-20 -12 -43 -27 -43 -56c0 -48 43 -65 126 -65c72 0 155 14 155 78c0 38 -36 58 -117 58
c-54 0 -83 -12 -121 -15zM333 418c-55 0 -97 -39 -97 -87c0 -44 33 -66 73 -66c55 0 97 33 97 86c0 46 -31 67 -73 67zM452 721c-42 0 -61 -17 -66 -50l-2 -12h47c7 0 9 -4 9 -10l-18 -92c-1 -7 -5 -10 -12 -10h-98c-7 0 -8 4 -8 10l23 121c12 62 45 93 107 93h27
c7 0 8 -4 8 -10l-6 -30c-1 -7 -4 -10 -11 -10z" />
    <glyph glyph-name="left.arrow" horiz-adv-x="650" 
d="M329 581l43 -52c3 -4 3 -5 3 -7c0 -3 -3 -7 -7 -10l-138 -113h353c7 0 8 -4 8 -10l-15 -74c-1 -7 -5 -10 -12 -10h-360l96 -116c2 -3 3 -5 3 -8s-1 -5 -5 -9l-54 -49c-5 -4 -8 -5 -12 -5c-3 0 -5 1 -8 4l-168 209c-4 6 -5 12 -5 18c0 13 8 21 14 26l244 207c4 3 7 4 10 4
c4 0 7 -1 10 -5z" />
    <glyph glyph-name="right.arrow" horiz-adv-x="650" 
d="M308 123l-43 52c-3 4 -3 5 -3 7c0 3 3 7 7 10l138 113h-353c-7 0 -8 4 -8 10l15 74c1 7 5 10 12 10h360l-96 116c-2 3 -3 5 -3 8s1 5 5 9l54 49c5 4 8 5 12 5c3 0 5 -1 8 -4l168 -209c4 -6 5 -12 5 -18c0 -13 -8 -21 -14 -26l-244 -207c-4 -3 -7 -4 -10 -4
c-4 0 -7 1 -10 5z" />
    <glyph glyph-name="up.arrow" horiz-adv-x="650" 
d="M139 333l-46 50c-2 3 -3 5 -3 8c0 5 1 8 6 12l247 204c8 7 18 12 29 12c9 0 15 -3 21 -10l169 -208c2 -3 3 -5 3 -9s-3 -7 -8 -11l-58 -48c-3 -2 -6 -4 -9 -4s-6 2 -8 5l-92 115l-68 -353c-1 -7 -5 -10 -12 -10h-78c-7 0 -8 3 -8 10l68 353l-136 -115c-4 -3 -7 -5 -10 -5
s-5 2 -7 4z" />
    <glyph glyph-name="down.arrow" horiz-adv-x="650" 
d="M506 372l46 -50c2 -3 3 -5 3 -8c0 -5 -1 -8 -6 -12l-247 -204c-8 -7 -18 -12 -29 -12c-9 0 -15 3 -21 10l-169 208c-2 3 -3 5 -3 9s3 7 8 11l58 48c3 2 6 4 9 4s6 -2 8 -5l92 -115l68 353c1 7 5 10 12 10h78c7 0 8 -3 8 -10l-68 -353l136 115c4 3 7 5 10 5s5 -2 7 -4z
" />
    <glyph glyph-name="ul.arrow" horiz-adv-x="650" 
d="M495 532l-14 -73c-2 -8 -5 -10 -13 -10h-164l204 -248c2 -3 2 -5 2 -8s-2 -5 -5 -8l-64 -54c-4 -3 -6 -5 -9 -5c-2 0 -4 1 -7 5l-199 250l-32 -165c-1 -7 -5 -10 -12 -10h-76c-7 0 -8 4 -8 10l58 299c4 21 14 31 36 31h291c10 0 12 -6 12 -14z" />
    <glyph glyph-name="ur.arrow" horiz-adv-x="605" 
d="M195 459l14 73c2 8 7 14 17 14h293c18 0 24 -7 24 -20c0 -3 0 -5 -1 -11l-58 -299c-1 -7 -5 -10 -12 -10h-78c-7 0 -8 3 -8 10l33 165l-300 -249c-3 -2 -5 -3 -7 -3c-3 0 -6 2 -8 5l-45 55c-2 2 -3 5 -3 8c1 3 2 5 6 8l304 244h-162c-8 0 -9 3 -9 10z" />
    <glyph glyph-name="dl.arrow" horiz-adv-x="650" 
d="M427 216l-14 -73c-2 -8 -7 -14 -17 -14h-293c-18 0 -24 7 -24 20c0 3 0 5 1 11l58 299c1 7 5 10 12 10h78c7 0 8 -3 8 -10l-33 -165l300 249c3 2 5 3 7 3c3 0 6 -2 8 -5l45 -55c2 -2 3 -5 3 -8c-1 -3 -2 -5 -6 -8l-304 -244h162c8 0 9 -3 9 -10z" />
    <glyph glyph-name="dr.arrow" horiz-adv-x="650" 
d="M125 143l14 73c2 8 5 10 13 10h164l-204 248c-2 3 -2 5 -2 8s2 5 5 8l64 54c4 3 6 5 9 5c2 0 4 -1 7 -5l199 -250l32 165c1 7 5 10 12 10h76c7 0 8 -4 8 -10l-58 -299c-4 -21 -14 -31 -36 -31h-291c-10 0 -12 6 -12 14z" />
    <glyph glyph-name="currency.tn" 
d="M57 107l65 53c-10 21 -15 45 -15 73c0 56 19 105 51 143l-37 46c-2 3 -2 4 -2 6c0 3 1 4 5 8l55 47c4 3 6 4 8 4s3 -1 6 -4l40 -50c31 15 67 24 104 24c42 0 77 -10 106 -28l67 57c4 3 6 4 8 4s4 -1 6 -4l44 -52c2 -3 2 -4 2 -6c0 -3 -1 -5 -5 -8l-65 -54
c10 -22 15 -46 15 -73c0 -52 -20 -103 -53 -142l38 -47c2 -3 2 -4 2 -6c0 -3 -1 -5 -5 -8l-54 -46c-3 -3 -6 -4 -8 -4s-3 1 -6 4l-41 49c-31 -15 -66 -24 -103 -24c-41 0 -77 10 -107 28l-66 -56c-3 -3 -6 -4 -8 -4s-3 1 -6 4l-44 52c-2 3 -2 4 -2 6c0 3 1 5 5 8zM327 369
c-65 0 -125 -54 -125 -125c0 -55 34 -87 88 -87c66 0 129 52 129 123c0 57 -33 89 -92 89z" />
    <glyph glyph-name="sterling.tn" 
d="M46 111c53 53 94 115 98 186h-82c-7 0 -8 4 -8 10l15 78c1 7 5 10 12 10h53c-5 33 -5 47 -5 70c0 149 109 245 254 245c123 0 198 -75 198 -172c0 -9 -1 -17 -3 -32c-1 -7 -5 -10 -12 -10h-83c-7 0 -8 3 -8 10v10c0 53 -32 94 -108 94c-81 0 -130 -65 -130 -144
c0 -27 5 -47 9 -71h200c7 0 8 -4 8 -10l-15 -78c-1 -7 -5 -10 -12 -10h-177c-6 -74 -37 -136 -97 -197h355c7 0 8 -4 8 -10l-16 -80c-1 -7 -5 -10 -12 -10h-462c-6 0 -7 4 -7 10l15 81c1 7 5 12 12 20z" />
    <glyph glyph-name="yen.tn" 
d="M94 201h146l9 47h-166c-7 0 -8 4 -8 10l15 78c1 7 5 10 12 10h120l-102 344c0 6 4 10 8 10h98c7 0 8 -3 9 -8l90 -321l216 321c3 5 6 8 13 8h102c4 0 6 -1 6 -4c0 -2 0 -3 -2 -6l-237 -344h129c7 0 8 -4 8 -10l-15 -78c-1 -7 -5 -10 -12 -10h-176l-9 -47h156
c7 0 8 -4 8 -10l-16 -78c-1 -7 -5 -10 -12 -10h-155l-18 -93c-1 -7 -5 -10 -12 -10h-88c-7 0 -8 4 -8 10l18 93h-147c-7 0 -8 4 -8 10l16 78c1 7 5 10 12 10z" />
    </font>
</defs>
</svg>
